<svg width="24" height="24" viewBox="0 0 24 24" fill="none" xmlns="http://www.w3.org/2000/svg">
<path fill-rule="evenodd" clip-rule="evenodd" d="M16.7096 10.0721C16.7096 10.5715 17.1096 10.9711 17.6096 10.9711C18.1096 10.9711 18.5196 10.5715 18.5196 10.0721C18.5196 9.57263 18.1096 9.16309 17.6096 9.16309C17.1096 9.16309 16.7096 9.57263 16.7096 10.0721ZM14.7695 16.1052C14.0595 16.8144 13.0795 17.2539 11.9995 17.2539C10.9495 17.2539 9.96951 16.8443 9.21951 16.1052C8.47951 15.356 8.06951 14.3771 8.06951 13.3282C8.05951 12.2894 8.46951 11.3105 9.20951 10.5613C9.95951 9.81215 10.9495 9.40261 11.9995 9.40261C13.0495 9.40261 14.0395 9.81215 14.7795 10.5513C15.5195 11.3005 15.9295 12.2894 15.9295 13.3282C15.9195 14.417 15.4795 15.3959 14.7695 16.1052ZM11.9995 10.9007C11.3495 10.9007 10.7395 11.1504 10.2695 11.6199C9.80951 12.0794 9.55951 12.6887 9.56951 13.318V13.328C9.56951 13.9773 9.81951 14.5866 10.2795 15.0461C10.7395 15.5056 11.3495 15.7553 11.9995 15.7553C13.3395 15.7553 14.4195 14.6665 14.4295 13.328C14.4295 12.6787 14.1795 12.0694 13.7195 11.6099C13.2595 11.1504 12.6495 10.9007 11.9995 10.9007Z" fill="white"/>
<path opacity="0.4" d="M17.44 6.2364L17.34 6.01665C17.07 5.44728 16.76 4.78801 16.57 4.40844C16.11 3.50943 15.32 3.00999 14.35 3H9.64C8.67 3.00999 7.89 3.50943 7.43 4.40844C7.23 4.80799 6.89 5.52719 6.61 6.11654L6.55 6.2364C6.52 6.31632 6.44 6.35627 6.36 6.35627C3.95 6.35627 2 8.3141 2 10.7114V16.6448C2 19.0422 3.95 21 6.36 21H17.64C20.04 21 22 19.0422 22 16.6448V10.7114C22 8.3141 20.04 6.35627 17.64 6.35627C17.55 6.35627 17.48 6.30633 17.44 6.2364Z" fill="white"/>
</svg>
