<svg width="24" height="24" viewBox="0 0 24 24" fill="none" xmlns="http://www.w3.org/2000/svg">
<path opacity="0.4" d="M16.191 2H7.81C4.77 2 3 3.78 3 6.83V17.16C3 20.26 4.77 22 7.81 22H16.191C19.28 22 21 20.26 21 17.16V6.83C21 3.78 19.28 2 16.191 2Z" fill="white"/>
<path fill-rule="evenodd" clip-rule="evenodd" d="M8.08 6.65039V6.66039C7.649 6.66039 7.3 7.01039 7.3 7.44039C7.3 7.87039 7.649 8.22039 8.08 8.22039H11.069C11.5 8.22039 11.85 7.87039 11.85 7.42939C11.85 7.00039 11.5 6.65039 11.069 6.65039H8.08ZM15.92 12.7405H8.08C7.649 12.7405 7.3 12.3905 7.3 11.9605C7.3 11.5305 7.649 11.1795 8.08 11.1795H15.92C16.35 11.1795 16.7 11.5305 16.7 11.9605C16.7 12.3905 16.35 12.7405 15.92 12.7405ZM15.92 17.3105H8.07996C7.77996 17.3505 7.48996 17.2005 7.32996 16.9505C7.16996 16.6905 7.16996 16.3605 7.32996 16.1105C7.48996 15.8505 7.77996 15.7105 8.07996 15.7405H15.92C16.319 15.7805 16.62 16.1205 16.62 16.5305C16.62 16.9295 16.319 17.2705 15.92 17.3105Z" fill="white"/>
</svg>
