<svg width="16" height="16" viewBox="0 0 16 16" fill="none" xmlns="http://www.w3.org/2000/svg">
<path d="M14.7392 5.86325L6.0022 14.6437C5.54782 15.086 4.95064 15.3332 4.32749 15.3332H1.27667C1.1079 15.3332 0.952113 15.2681 0.835273 15.1511C0.718433 15.034 0.666504 14.8779 0.666504 14.7088L0.744397 11.6259C0.757379 11.0145 1.00404 10.4421 1.43246 10.0128L7.62498 3.80797C7.72883 3.7039 7.91058 3.7039 8.01444 3.80797L10.1864 5.97122C10.3292 6.11301 10.5369 6.20537 10.7576 6.20537C11.2379 6.20537 11.6144 5.81512 11.6144 5.34683C11.6144 5.11268 11.5235 4.90455 11.3807 4.74846C11.3418 4.69642 9.27372 2.63724 9.27372 2.63724C9.1439 2.50715 9.1439 2.28602 9.27372 2.15593L10.1435 1.27138C10.9484 0.464878 12.2466 0.464878 13.0515 1.27138L14.7392 2.96244C15.5311 3.75593 15.5311 5.05675 14.7392 5.86325Z" fill="#D4B62B"/>
</svg>
