<svg width="32" height="32" viewBox="0 0 32 32" fill="none" xmlns="http://www.w3.org/2000/svg">
<g id="Iconly/Two-tone/Home">
<g id="Home">
<path id="Home_2" d="M12.2095 27.6955V23.6066C12.2095 22.5665 13.0574 21.7214 14.1079 21.7144H17.956C19.0116 21.7144 19.8673 22.5616 19.8673 23.6066V23.6066V27.7082C19.867 28.5913 20.5789 29.313 21.4706 29.3337H24.036C26.5934 29.3337 28.6666 27.2812 28.6666 24.7494V24.7494V13.1174C28.6529 12.1214 28.1806 11.1861 27.3839 10.5777L18.6102 3.58073C17.0732 2.36241 14.8882 2.36241 13.3511 3.58073L4.61595 10.5904C3.81626 11.1964 3.3431 12.1332 3.33325 13.1301V24.7494C3.33325 27.2812 5.40642 29.3337 7.9638 29.3337H10.5292C11.4431 29.3337 12.1839 28.6002 12.1839 27.6955V27.6955" stroke="#57CECA" stroke-width="1.5" stroke-linecap="round" stroke-linejoin="round"/>
</g>
</g>
</svg>
