<svg width="32" height="32" viewBox="0 0 32 32" fill="none" xmlns="http://www.w3.org/2000/svg">
<path fill-rule="evenodd" clip-rule="evenodd" d="M20.4258 4.00033C20.4258 3.26395 21.0227 2.66699 21.7591 2.66699H27.7591C28.4955 2.66699 29.0924 3.26395 29.0924 4.00033V10.0004C29.0924 10.7367 28.4955 11.3337 27.7591 11.3337C27.0227 11.3337 26.4258 10.7367 26.4258 10.0004V7.21939L21.638 12.0071C23.2124 13.9555 23.9998 16.3305 23.9998 18.7022C23.9998 21.4299 22.9582 24.1621 20.8756 26.2447C16.7101 30.4102 9.95626 30.4102 5.79069 26.2447C1.62512 22.079 1.6251 15.3253 5.79068 11.1597C9.5893 7.36104 15.5403 7.0264 19.7181 10.1558L24.5403 5.33366H21.7591C21.0227 5.33366 20.4258 4.73671 20.4258 4.00033ZM18.8118 12.8725C15.6761 9.9222 10.7418 9.97981 7.67632 13.0453C4.55214 16.1695 4.55211 21.2348 7.67631 24.359C10.8005 27.4832 15.8659 27.4832 18.99 24.359C20.5524 22.7967 21.3332 20.7516 21.3332 18.7022C21.3332 16.6527 20.5524 14.6077 18.99 13.0453C18.9696 13.0249 18.9491 13.0046 18.9286 12.9845C18.9012 12.9612 18.8745 12.9366 18.8487 12.9108C18.8361 12.8982 18.8238 12.8854 18.8118 12.8725Z" fill="white"/>
<path d="M7.88465 13.0775C10.9501 10.012 15.8845 9.95442 19.0202 12.9047C19.0322 12.9177 19.0444 12.9304 19.057 12.943C19.0829 12.9689 19.1095 12.9934 19.1369 13.0167C19.1575 13.0369 19.178 13.0571 19.1984 13.0776C20.7607 14.6399 21.5415 16.685 21.5415 18.7344C21.5415 20.7838 20.7607 22.8289 19.1984 24.3913C16.0742 27.5154 11.0088 27.5154 7.88465 24.3913C4.76044 21.267 4.76047 16.2017 7.88465 13.0775Z" fill="white" fill-opacity="0.6"/>
</svg>
