<svg width="32" height="32" viewBox="0 0 32 32" fill="none" xmlns="http://www.w3.org/2000/svg">
<path d="M20.9705 29.3337H11.0292C10.6756 29.3336 10.3365 29.193 10.0865 28.943L3.05717 21.9137C2.80712 21.6637 2.6666 21.3246 2.6665 20.971V11.0297C2.6666 10.6761 2.80712 10.337 3.05717 10.087L10.0865 3.05766C10.3365 2.80761 10.6756 2.66709 11.0292 2.66699H20.9705C21.3241 2.66709 21.6632 2.80761 21.9132 3.05766L28.9425 10.087C29.1926 10.337 29.3331 10.6761 29.3332 11.0297V20.971C29.3331 21.3246 29.1926 21.6637 28.9425 21.9137L21.9132 28.943C21.6632 29.193 21.3241 29.3336 20.9705 29.3337Z" fill="#FAD427"/>
<path d="M15.9998 22.6667C16.7362 22.6667 17.3332 22.0697 17.3332 21.3333C17.3332 20.597 16.7362 20 15.9998 20C15.2635 20 14.6665 20.597 14.6665 21.3333C14.6665 22.0697 15.2635 22.6667 15.9998 22.6667Z" fill="#ECEBEB"/>
<path d="M15.9998 17.333C15.6462 17.333 15.3071 17.1925 15.057 16.9425C14.807 16.6924 14.6665 16.3533 14.6665 15.9997V10.6663C14.6665 10.3127 14.807 9.97358 15.057 9.72353C15.3071 9.47348 15.6462 9.33301 15.9998 9.33301C16.3535 9.33301 16.6926 9.47348 16.9426 9.72353C17.1927 9.97358 17.3332 10.3127 17.3332 10.6663V15.9997C17.3332 16.3533 17.1927 16.6924 16.9426 16.9425C16.6926 17.1925 16.3535 17.333 15.9998 17.333Z" fill="#ECEBEB"/>
</svg>
