<svg width="24" height="24" viewBox="0 0 24 24" fill="none" xmlns="http://www.w3.org/2000/svg">
<g id="Iconly/Two-tone/Notification">
<g id="Notification">
<path id="Stroke 1" fill-rule="evenodd" clip-rule="evenodd" d="M12 17.8476C17.6392 17.8476 20.2481 17.1242 20.5 14.2205C20.5 11.3188 18.6812 11.5054 18.6812 7.94511C18.6812 5.16414 16.0452 2 12 2C7.95477 2 5.31885 5.16414 5.31885 7.94511C5.31885 11.5054 3.5 11.3188 3.5 14.2205C3.75295 17.1352 6.36177 17.8476 12 17.8476Z" stroke="#57CECA" stroke-width="1.5" stroke-linecap="round" stroke-linejoin="round"/>
<path id="Stroke 3" opacity="0.4" d="M14.3889 20.8574C13.0247 22.3721 10.8967 22.3901 9.51953 20.8574" stroke="#57CECA" stroke-width="1.5" stroke-linecap="round" stroke-linejoin="round"/>
</g>
<g id="Group 370">
<circle id="Ellipse 10" opacity="0.9" cx="18" cy="6" r="6" fill="#FAD427"/>
<path id="9+" d="M15.1345 3.0802C15.6145 3.0802 16.0279 3.20353 16.3745 3.4502C16.7279 3.69686 16.9945 4.0202 17.1745 4.4202C17.3612 4.8202 17.4545 5.2502 17.4545 5.7102C17.4545 6.22353 17.3545 6.78353 17.1545 7.3902C16.9545 7.99686 16.6279 8.56353 16.1745 9.0902C15.7212 9.6102 15.1379 9.98353 14.4245 10.2102C14.3645 10.2302 14.3045 10.2402 14.2445 10.2402C14.1112 10.2402 13.9945 10.2035 13.8945 10.1302C13.8012 10.0502 13.7545 9.93353 13.7545 9.7802C13.7545 9.66686 13.7912 9.56686 13.8645 9.4802C13.9379 9.39353 14.0379 9.33353 14.1645 9.3002C14.6379 9.13353 15.0745 8.85353 15.4745 8.4602C15.8812 8.06686 16.1679 7.61686 16.3345 7.1102C15.9479 7.48353 15.4979 7.6702 14.9845 7.6702C14.6179 7.6702 14.2679 7.56686 13.9345 7.3602C13.6079 7.14686 13.3445 6.86353 13.1445 6.5102C12.9512 6.1502 12.8545 5.76686 12.8545 5.3602C12.8545 4.95353 12.9545 4.57686 13.1545 4.2302C13.3612 3.87686 13.6379 3.59686 13.9845 3.39019C14.3312 3.18353 14.7145 3.0802 15.1345 3.0802ZM15.1145 6.7802C15.5212 6.7802 15.8512 6.64353 16.1045 6.3702C16.3645 6.09686 16.4945 5.75686 16.4945 5.3502C16.4945 4.96353 16.3679 4.63686 16.1145 4.3702C15.8612 4.09686 15.5345 3.9602 15.1345 3.9602C14.7612 3.9602 14.4479 4.09353 14.1945 4.36019C13.9412 4.62686 13.8145 4.9602 13.8145 5.3602C13.8145 5.7602 13.9345 6.09686 14.1745 6.3702C14.4212 6.64353 14.7345 6.7802 15.1145 6.7802ZM22.8626 6.9702C22.9959 6.9702 23.1026 7.01353 23.1826 7.1002C23.2692 7.1802 23.3126 7.28686 23.3126 7.4202C23.3126 7.54686 23.2692 7.6502 23.1826 7.7302C23.1026 7.8102 22.9959 7.8502 22.8626 7.8502H21.3226V9.3802C21.3226 9.52686 21.2759 9.6502 21.1826 9.7502C21.0892 9.84353 20.9659 9.8902 20.8126 9.8902C20.6659 9.8902 20.5426 9.84353 20.4426 9.7502C20.3492 9.6502 20.3026 9.52686 20.3026 9.3802V7.8502H18.7726C18.6459 7.8502 18.5392 7.80686 18.4526 7.7202C18.3659 7.63353 18.3226 7.52686 18.3226 7.4002C18.3226 7.27353 18.3626 7.1702 18.4426 7.0902C18.5292 7.0102 18.6392 6.9702 18.7726 6.9702H20.3026V5.3402C20.3026 5.19353 20.3492 5.07353 20.4426 4.9802C20.5426 4.88686 20.6659 4.8402 20.8126 4.8402C20.9659 4.8402 21.0892 4.88686 21.1826 4.9802C21.2759 5.07353 21.3226 5.19353 21.3226 5.3402V6.9702H22.8626Z" fill="#0075AA"/>
</g>
</g>
</svg>
