<svg width="24" height="24" viewBox="0 0 24 24" fill="none" xmlns="http://www.w3.org/2000/svg">
<path d="M3.6 0H20.4C21.3545 0.00104184 22.2695 0.380662 22.9444 1.05557C23.6193 1.73047 23.999 2.64554 24 3.6V15.6C23.999 16.5545 23.6193 17.4696 22.9444 18.1445C22.2695 18.8194 21.3545 19.199 20.4 19.2H6.49687L2.04847 23.6484C1.88067 23.8163 1.66687 23.9306 1.43409 23.9769C1.20132 24.0232 0.960037 23.9995 0.740761 23.9087C0.521486 23.8179 0.334068 23.6641 0.202211 23.4667C0.0703564 23.2694 -1.52588e-05 23.0374 0 22.8V3.6C0.00104141 2.64554 0.380661 1.73047 1.05556 1.05557C1.73047 0.380662 2.64554 0.00104184 3.6 0ZM6 13.2H18C18.3183 13.2 18.6235 13.0736 18.8485 12.8485C19.0736 12.6235 19.2 12.3183 19.2 12C19.2 11.6818 19.0736 11.3765 18.8485 11.1515C18.6235 10.9264 18.3183 10.8 18 10.8H6C5.68174 10.8 5.37651 10.9264 5.15147 11.1515C4.92643 11.3765 4.8 11.6818 4.8 12C4.8 12.3183 4.92643 12.6235 5.15147 12.8485C5.37651 13.0736 5.68174 13.2 6 13.2ZM6 8.40001H18C18.3183 8.40001 18.6235 8.27358 18.8485 8.04854C19.0736 7.82349 19.2 7.51827 19.2 7.20001C19.2 6.88175 19.0736 6.57652 18.8485 6.35148C18.6235 6.12644 18.3183 6.00001 18 6.00001H6C5.68174 6.00001 5.37651 6.12644 5.15147 6.35148C4.92643 6.57652 4.8 6.88175 4.8 7.20001C4.8 7.51827 4.92643 7.82349 5.15147 8.04854C5.37651 8.27358 5.68174 8.40001 6 8.40001Z" fill="#57CECA"/>
</svg>
