<svg width="18" height="18" viewBox="0 0 18 18" fill="none" xmlns="http://www.w3.org/2000/svg">
<g id="Iconly/Two-tone/Video">
<g id="Video">
<path id="Stroke 1" fill-rule="evenodd" clip-rule="evenodd" d="M12.2222 11.6537C12.2829 13.0278 11.174 14.1897 9.74553 14.2481C9.64032 14.2525 4.51106 14.2422 4.51106 14.2422C3.08954 14.3501 1.84543 13.3286 1.73331 11.9597C1.72486 11.8577 1.72717 6.35414 1.72717 6.35414C1.66419 4.97862 2.77161 3.81374 4.2008 3.75313C4.30754 3.74796 9.4299 3.75757 9.4299 3.75757C10.8583 3.65113 12.1063 4.68001 12.2169 6.05553C12.2245 6.15458 12.2222 11.6537 12.2222 11.6537Z" stroke="#57CECA" stroke-width="1.5" stroke-linecap="round" stroke-linejoin="round"/>
<path id="Stroke 3" opacity="0.4" d="M12.2246 7.48488L14.6944 5.46363C15.3064 4.96263 16.2244 5.39913 16.2236 6.18888L16.2146 11.7006C16.2139 12.4904 15.2951 12.9231 14.6846 12.4221L12.2246 10.4009" stroke="#57CECA" stroke-width="1.5" stroke-linecap="round" stroke-linejoin="round"/>
</g>
</g>
</svg>
