<svg width="94" height="100" viewBox="0 0 94 100" fill="none" xmlns="http://www.w3.org/2000/svg">
<path d="M46.9202 44.4082H27.1875V66.473H46.9202V44.4082Z" fill="#CCCCCC"/>
<path d="M17.1416 99.6595H7.09586L6.01953 91.0488H18.2179L17.1416 99.6595Z" fill="#E6E6E6"/>
<path d="M37.3136 93.4227L36.9746 98.0572C36.9593 98.267 36.989 98.4776 37.0617 98.675C37.1344 98.8723 37.2485 99.0519 37.3963 99.2015C37.5441 99.3512 37.7222 99.4675 37.9187 99.5427C38.1151 99.6179 38.3253 99.6502 38.5353 99.6375L40.9158 99.4933C41.0261 99.4866 41.1335 99.4557 41.2305 99.4028C41.3275 99.3499 41.4117 99.2762 41.477 99.1871C41.5424 99.098 41.5873 98.9956 41.6086 98.8871C41.6298 98.7787 41.627 98.6669 41.6002 98.5597L40.2788 93.2744L37.3136 93.4227Z" fill="#E6E6E6"/>
<path d="M57.2255 96.1635C60.0272 96.8188 62.0285 97.7504 63.3432 99.0111C63.8114 99.4567 64.4241 99.7193 65.0696 99.7512C65.8942 99.7945 66.5684 99.7021 67.075 99.4758H67.0751C67.2049 99.4186 67.317 99.3277 67.3998 99.2125C67.4826 99.0974 67.5331 98.9621 67.546 98.8209C67.5613 98.6774 67.538 98.5324 67.4784 98.401C67.4189 98.2696 67.3252 98.1565 67.2072 98.0734L60.5627 93.3457L57.7404 94.4748L57.082 95.1332C57.0107 95.2045 56.957 95.2913 56.9249 95.3869C56.8929 95.4825 56.8834 95.5842 56.8973 95.684C56.9113 95.7839 56.9481 95.8792 57.0051 95.9623C57.062 96.0455 57.1375 96.1144 57.2255 96.1635H57.2255Z" fill="#E6E6E6"/>
<path d="M48.6033 20.4946L29.6108 20.3187C29.6586 17.5525 30.3022 14.836 31.7091 12.4052C32.6331 10.8088 32.6131 9.07136 32.3904 7.60761C32.0468 5.34875 32.8459 3.0376 34.6215 1.59968C35.9784 0.498887 37.6911 -0.0677572 39.4368 0.0064685L39.8056 0.0218327C41.0068 0.0717551 42.1763 0.422661 43.2066 1.04233C44.2369 1.662 45.095 2.53058 45.7021 3.56831C46.3192 4.67613 46.5681 5.95148 46.4128 7.21003C46.2924 8.39422 46.5804 9.59048 47.2542 10.7981C48.4166 13.4499 48.6683 16.8433 48.6033 20.4946Z" fill="#2F2E41"/>
<path d="M61.31 93.5923L57.5825 94.5647L39.4313 55.0211L40.5658 93.5923H36.8383C32.8553 75.4456 25.6641 54.5024 28.8972 47.8903L48.1828 46.7559L61.31 93.5923Z" fill="#57CECA"/>
<path d="M39.2696 13.8566C42.0443 13.8566 44.2936 11.6072 44.2936 8.83258C44.2936 6.05791 42.0443 3.80859 39.2696 3.80859C36.4949 3.80859 34.2456 6.05791 34.2456 8.83258C34.2456 11.6072 36.4949 13.8566 39.2696 13.8566Z" fill="#AE9284"/>
<path d="M43.6456 18.0706L35.3804 17.5844C36.1904 15.7253 36.5139 13.935 36.1907 12.2363H42.3491C42.3352 13.5406 42.9842 15.7967 43.6456 18.0706Z" fill="#AE9284"/>
<path d="M48.8317 48.2145L30.6807 49.5111L32.5443 17.3414L35.7046 16.45L39.27 17.2603L42.8353 15.4775L45.1042 16.288L48.8317 48.2145Z" fill="#57CECA"/>
<path d="M33.7597 71.3896L21.3618 68.5535C25.0484 56.3285 31.6898 28.3613 29.5461 18.3947L36.0286 15.4775L33.7597 71.3896Z" fill="#E6E6E6"/>
<path d="M27.7633 36.0593L23.0635 33.1422L27.0716 21.4031C27.5187 20.1918 28.3749 19.1747 29.4923 18.5278L30.8425 17.7461L30.0322 29.5768L27.7633 36.0593Z" fill="#E6E6E6"/>
<path d="M59.6088 68.7155C55.6957 70.9794 45.9144 72.2414 41.6197 70.6602C41.3036 59.6148 40.6839 28.3714 42.6731 15.1533L49.8039 18.0705L49.1556 26.8219C45.7465 34.3083 55.6458 60.3835 59.6088 68.7155Z" fill="#E6E6E6"/>
<path d="M59.0416 34.6L54.6658 33.1414L48.8315 26.4966L49.804 18.0693L59.5278 31.6828L59.0416 34.6Z" fill="#E6E6E6"/>
<path d="M45.3283 40.9093C45.3999 41.2235 45.5932 41.4964 45.8658 41.6683C46.1383 41.8403 46.4679 41.8971 46.7823 41.8263L50.4967 40.9852L49.9599 38.6143L46.2454 39.4553C45.931 39.5265 45.6578 39.7197 45.4858 39.9924C45.3138 40.265 45.2572 40.5948 45.3283 40.9093Z" fill="#AE9284"/>
<path d="M43.6453 7.53593C40.8548 6.38847 38.0988 6.30544 35.3801 7.37387L34.2456 3.32227H44.6177L43.6453 7.53593Z" fill="#2F2E41"/>
<path d="M48.6689 38.1662L50.7758 42.0557C54.3194 41.0673 57.3906 37.9515 60.3376 34.2766L59.5272 31.6836L54.5032 32.9801L48.6689 38.1662Z" fill="#E6E6E6"/>
<path d="M47.1301 30.1439H46.4818C46.4818 20.9753 44.594 14.5858 42.7544 14.5858L42.5923 13.9375C44.2421 13.9375 45.294 16.5968 45.8858 18.8277C46.6882 21.852 47.1301 25.8709 47.1301 30.1439Z" fill="#3F3D56"/>
<path d="M32.22 27.8761H31.5718C31.5718 19.479 33.4726 14.2627 36.2716 14.2627L36.1096 14.9109C34.1735 14.9109 32.22 18.9199 32.22 27.8761Z" fill="#3F3D56"/>
<path d="M46.8062 31.9268C47.7012 31.9268 48.4268 31.2012 48.4268 30.3062C48.4268 29.4111 47.7012 28.6855 46.8062 28.6855C45.9111 28.6855 45.1855 29.4111 45.1855 30.3062C45.1855 31.2012 45.9111 31.9268 46.8062 31.9268Z" fill="#3F3D56"/>
<path d="M29.6273 31.7654H28.979C28.979 29.442 30.2876 27.5518 31.8962 27.5518V28.2C30.6451 28.2 29.6273 29.7994 29.6273 31.7654Z" fill="#3F3D56"/>
<path d="M34.8127 31.7654H34.1644C34.1644 29.7995 33.1466 28.2 31.8955 28.2V27.5518C33.504 27.5518 34.8127 29.442 34.8127 31.7654Z" fill="#3F3D56"/>
<path d="M34.4891 32.5748C34.8471 32.5748 35.1373 32.2846 35.1373 31.9266C35.1373 31.5686 34.8471 31.2783 34.4891 31.2783C34.1311 31.2783 33.8408 31.5686 33.8408 31.9266C33.8408 32.2846 34.1311 32.5748 34.4891 32.5748Z" fill="#3F3D56"/>
<path d="M29.303 32.5748C29.6611 32.5748 29.9513 32.2846 29.9513 31.9266C29.9513 31.5686 29.6611 31.2783 29.303 31.2783C28.945 31.2783 28.6548 31.5686 28.6548 31.9266C28.6548 32.2846 28.945 32.5748 29.303 32.5748Z" fill="#3F3D56"/>
<path d="M21.1992 25.9648L25.2439 26.6871L34.4885 39.8319L29.5772 38.6763L21.1992 25.9648Z" fill="#57CECA"/>
<path d="M20.4819 25.8047C20.4203 25.8056 20.36 25.8231 20.3074 25.8553C20.2549 25.8875 20.2119 25.9332 20.1831 25.9877C20.1542 26.0421 20.1405 26.1033 20.1435 26.1649C20.1464 26.2265 20.1658 26.2861 20.1996 26.3377L28.841 39.4488C28.8892 39.5221 28.9637 39.5741 29.0491 39.5941L33.0697 40.5401C33.1375 40.556 33.2085 40.551 33.2734 40.5257C33.3383 40.5003 33.3939 40.4558 33.4329 40.3982C33.4719 40.3405 33.4924 40.2723 33.4918 40.2026C33.4912 40.133 33.4694 40.0652 33.4293 40.0082L23.9416 26.5179C23.9159 26.4812 23.8831 26.4498 23.8453 26.4257C23.8074 26.4016 23.7652 26.3852 23.721 26.3775L20.5467 25.8105C20.5253 25.8067 20.5036 25.8047 20.4819 25.8047Z" fill="#3F3D56"/>
<path d="M25.8726 35.18L26.1127 37.5991L29.9026 37.2229C30.2233 37.1911 30.5183 37.0331 30.7227 36.7837C30.927 36.5344 31.0239 36.2141 30.9921 35.8933C30.9602 35.5725 30.8023 35.2775 30.5529 35.0732C30.3036 34.8689 29.9833 34.772 29.6625 34.8038L25.8726 35.18Z" fill="#AE9284"/>
<path d="M22.5771 34.8988C22.5827 35.7237 22.9139 36.5129 23.4988 37.0946C24.0837 37.6762 24.8748 38.0032 25.6996 38.0041H26.3228L26.7765 34.2234L23.0201 32.8711L22.5771 34.8988Z" fill="#E6E6E6"/>
<path d="M4.5165 87.8645C7.10322 91.3287 12.4727 91.6933 12.4727 91.6933C12.4727 91.6933 13.6484 86.4414 11.0616 82.9772C8.47493 79.513 3.10541 79.1484 3.10541 79.1484C3.10541 79.1484 1.92979 84.4003 4.5165 87.8645Z" fill="#E6E6E6"/>
<path d="M17.6935 89.1656C15.9866 91.4515 12.4435 91.6921 12.4435 91.6921C12.4435 91.6921 11.6677 88.2265 13.3746 85.9406C15.0815 83.6547 18.6247 83.4141 18.6247 83.4141C18.6247 83.4141 19.4004 86.8797 17.6935 89.1656Z" fill="#E6E6E6"/>
<path d="M93.2024 99.5977H0V99.9996H93.2024V99.5977Z" fill="#3F3D56"/>
</svg>
