<svg width="132" height="100" viewBox="0 0 132 100" fill="none" xmlns="http://www.w3.org/2000/svg">
<path d="M18.7231 59.0477C23.3102 59.0477 27.0287 55.3292 27.0287 50.7421C27.0287 46.1551 23.3102 42.4365 18.7231 42.4365C14.136 42.4365 10.4175 46.1551 10.4175 50.7421C10.4175 55.3292 14.136 59.0477 18.7231 59.0477Z" fill="#57CECA"/>
<path d="M35.7316 97.6554H35.7232C35.4307 97.6551 35.1504 97.5387 34.9436 97.332C34.7368 97.1252 34.6204 96.8448 34.6201 96.5523V31.7945C34.6204 31.502 34.7368 31.2217 34.9436 31.0149C35.1504 30.8081 35.4307 30.6917 35.7232 30.6914H90.2288C90.5212 30.6917 90.8016 30.8081 91.0084 31.0149C91.2152 31.2217 91.3316 31.502 91.3319 31.7945V82.1473C91.3316 82.4382 91.2164 82.7173 91.0114 82.9239C90.8065 83.1304 90.5283 83.2477 90.2373 83.2503L35.7316 97.6554Z" fill="#F2F2F2"/>
<path d="M76.0186 21.5425H50.7124V6.87794C50.7128 6.56828 50.8359 6.27141 51.0549 6.05244C51.2738 5.83348 51.5707 5.71032 51.8804 5.70996H74.8506C75.1602 5.71032 75.4571 5.83348 75.6761 6.05244C75.895 6.27141 76.0182 6.56828 76.0186 6.87794V21.5425ZM50.972 21.283H75.759V6.87794C75.7587 6.63709 75.663 6.40619 75.4926 6.23588C75.3223 6.06558 75.0914 5.96978 74.8506 5.96951H51.8804C51.6395 5.96978 51.4086 6.06558 51.2383 6.23588C51.068 6.40619 50.9722 6.63709 50.972 6.87794V21.283Z" fill="#3F3D56"/>
<path d="M57.9152 11.29H68.8163C69.0916 11.29 69.3557 11.3994 69.5504 11.5941C69.7451 11.7888 69.8545 12.0529 69.8545 12.3282V27.9013H56.877V12.3282C56.877 12.0529 56.9863 11.7888 57.181 11.5941C57.3757 11.3994 57.6398 11.29 57.9152 11.29Z" fill="#E6E6E6"/>
<path d="M60.0561 5.96966H54.7354V0.648876C54.7355 0.476844 54.804 0.311914 54.9256 0.190269C55.0473 0.0686235 55.2122 0.000196811 55.3842 0H59.4073C59.5793 0.000196811 59.7442 0.0686235 59.8659 0.190269C59.9875 0.311914 60.0559 0.476844 60.0561 0.648876V5.96966ZM54.9949 5.71011H59.7966V0.648876C59.7965 0.545655 59.7554 0.446694 59.6824 0.373706C59.6094 0.300717 59.5105 0.259663 59.4073 0.25955H55.3842C55.281 0.259663 55.182 0.300717 55.1091 0.373706C55.0361 0.446694 54.995 0.545655 54.9949 0.648876V5.71011Z" fill="#3F3D56"/>
<path d="M103.779 84.2029C103.727 84.2029 103.677 84.2029 103.625 84.2016C100.414 84.1661 97.3272 82.9594 94.9435 80.8083C94.8554 80.7281 94.768 80.6468 94.6813 80.5645L94.6411 80.5261V55.6544L94.6535 55.6281C94.7394 55.446 94.8266 55.2665 94.9137 55.087C97.613 49.6066 100.761 46.5889 103.779 46.5889C108.13 46.5889 111.505 52.5577 113.129 56.1156C115.388 61.0632 116.965 67.1938 116.965 71.0242C116.964 74.4943 115.595 77.8241 113.154 80.291C110.714 82.7579 107.399 84.1631 103.929 84.2016C103.881 84.2029 103.829 84.2029 103.779 84.2029ZM94.9007 80.4149C94.9726 80.4828 95.0452 80.5498 95.1178 80.616C97.4549 82.7248 100.482 83.9076 103.629 83.9421C103.682 83.9433 103.732 83.9419 103.782 83.9433C103.829 83.9433 103.877 83.9433 103.925 83.9421C110.973 83.8639 116.705 78.069 116.705 71.0242C116.705 67.227 115.138 61.1407 112.893 56.2234C111.294 52.7221 107.985 46.8484 103.779 46.8484C100.865 46.8484 97.7999 49.8147 95.1468 55.201C95.0646 55.3704 94.9821 55.5404 94.9007 55.7126L94.9007 80.4149Z" fill="#3F3D56"/>
<path d="M103.778 99.9387C103.739 99.9387 103.701 99.923 103.673 99.895C103.645 99.867 103.629 99.829 103.629 99.7894V69.3094C103.629 69.2897 103.633 69.2702 103.64 69.252C103.647 69.2337 103.658 69.2172 103.672 69.2032C103.686 69.1893 103.703 69.1782 103.721 69.1706C103.739 69.1631 103.759 69.1592 103.778 69.1592C103.798 69.1592 103.817 69.1631 103.836 69.1706C103.854 69.1782 103.87 69.1893 103.884 69.2032C103.898 69.2172 103.909 69.2337 103.916 69.252C103.924 69.2702 103.928 69.2897 103.928 69.3094V99.7894C103.928 99.829 103.912 99.867 103.884 99.895C103.856 99.923 103.818 99.9387 103.778 99.9387Z" fill="#CCCCCC"/>
<path d="M26.3026 99.9387C26.263 99.9387 26.2251 99.923 26.1971 99.895C26.1691 99.867 26.1533 99.829 26.1533 99.7894V69.3094C26.1532 69.2897 26.157 69.2702 26.1644 69.252C26.1719 69.2337 26.1829 69.2172 26.1967 69.2032C26.2106 69.1893 26.2271 69.1782 26.2453 69.1706C26.2635 69.1631 26.2829 69.1592 26.3026 69.1592C26.3223 69.1592 26.3418 69.1631 26.36 69.1706C26.3781 69.1782 26.3946 69.1893 26.4085 69.2032C26.4224 69.2172 26.4334 69.2337 26.4408 69.252C26.4483 69.2702 26.4521 69.2897 26.4519 69.3094V99.7894C26.4519 99.829 26.4362 99.867 26.4082 99.895C26.3802 99.923 26.3422 99.9387 26.3026 99.9387Z" fill="#CCCCCC"/>
<path d="M103.778 75.0033C103.757 75.0033 103.736 74.9987 103.716 74.9898C103.697 74.981 103.679 74.968 103.665 74.9518L96.1559 66.2919C96.1301 66.2619 96.1172 66.223 96.12 66.1835C96.1229 66.1441 96.1412 66.1074 96.1711 66.0814C96.201 66.0555 96.24 66.0425 96.2794 66.0453C96.3189 66.0481 96.3556 66.0664 96.3816 66.0962L103.891 74.7561C103.91 74.7777 103.922 74.8043 103.926 74.8326C103.93 74.861 103.926 74.8899 103.914 74.9159C103.902 74.9419 103.883 74.964 103.859 74.9795C103.835 74.995 103.807 75.0032 103.778 75.0033V75.0033Z" fill="#CCCCCC"/>
<path d="M103.778 80.0018C103.749 80.0018 103.72 79.993 103.695 79.9766C103.671 79.9602 103.652 79.9369 103.64 79.9096C103.629 79.8824 103.626 79.8523 103.632 79.8234C103.638 79.7944 103.652 79.7678 103.673 79.7469L107.94 75.48C107.968 75.4521 108.005 75.4365 108.045 75.4365C108.085 75.4366 108.122 75.4523 108.15 75.4803C108.178 75.5082 108.194 75.5461 108.194 75.5856C108.194 75.6251 108.179 75.6631 108.151 75.6911L103.884 79.9581C103.87 79.972 103.853 79.983 103.835 79.9905C103.817 79.998 103.798 80.0018 103.778 80.0018Z" fill="#CCCCCC"/>
<path d="M117.592 100H106.431V99.8705C106.431 99.1374 106.575 98.4114 106.855 97.734C107.135 97.0566 107.546 96.4411 108.065 95.9226C108.583 95.4041 109.198 94.9928 109.876 94.7122C110.553 94.4316 111.279 94.2871 112.012 94.2871C112.745 94.2871 113.471 94.4316 114.148 94.7122C114.825 94.9928 115.441 95.4041 115.959 95.9226C116.477 96.4411 116.888 97.0566 117.168 97.734C117.449 98.4114 117.593 99.1374 117.592 99.8705L117.592 100ZM106.692 99.7407H117.331C117.298 98.3523 116.722 97.0322 115.728 96.0622C114.734 95.0923 113.401 94.5493 112.012 94.5493C110.623 94.5493 109.289 95.0923 108.295 96.0622C107.301 97.0322 106.726 98.3523 106.692 99.7407H106.692Z" fill="#3F3D56"/>
<path d="M112.012 96.7031C111.973 96.7031 111.935 96.7187 111.907 96.7463C111.88 96.7739 111.864 96.8114 111.864 96.8504V98.4155L110.34 97.107C110.325 97.0943 110.308 97.0847 110.29 97.0786C110.271 97.0725 110.252 97.0701 110.233 97.0716C110.213 97.073 110.194 97.0783 110.177 97.087C110.16 97.0958 110.144 97.1078 110.132 97.1225C110.119 97.1372 110.11 97.1543 110.103 97.1727C110.097 97.1911 110.095 97.2106 110.097 97.2299C110.098 97.2492 110.103 97.268 110.112 97.2853C110.121 97.3026 110.133 97.3179 110.148 97.3305L111.864 98.8038V99.7232C111.864 99.7426 111.868 99.7618 111.875 99.7797C111.883 99.7977 111.894 99.8139 111.907 99.8277C111.921 99.8414 111.937 99.8523 111.955 99.8597C111.973 99.8671 111.992 99.871 112.012 99.871C112.031 99.871 112.05 99.8671 112.068 99.8597C112.086 99.8523 112.102 99.8414 112.116 99.8277C112.13 99.8139 112.14 99.7977 112.148 99.7797C112.155 99.7618 112.159 99.7426 112.159 99.7232V96.8504C112.159 96.8114 112.143 96.7739 112.116 96.7463C112.088 96.7187 112.051 96.7031 112.012 96.7031Z" fill="#3F3D56"/>
<path d="M24.0246 100H12.8633V99.8705C12.8629 99.1374 13.007 98.4114 13.2873 97.734C13.5676 97.0566 13.9786 96.4411 14.4969 95.9226C15.0151 95.4041 15.6304 94.9928 16.3077 94.7122C16.9849 94.4316 17.7109 94.2871 18.4439 94.2871C19.177 94.2871 19.9029 94.4316 20.5802 94.7122C21.2575 94.9928 21.8728 95.4041 22.391 95.9226C22.9093 96.4411 23.3203 97.0566 23.6006 97.734C23.8809 98.4114 24.025 99.1374 24.0246 99.8705L24.0246 100ZM13.1244 99.7407H23.7635C23.7296 98.3523 23.1543 97.0322 22.1604 96.0622C21.1665 95.0923 19.8327 94.5493 18.4439 94.5493C17.0552 94.5493 15.7214 95.0923 14.7275 96.0622C13.7336 97.0322 13.1583 98.3523 13.1244 99.7407H13.1244Z" fill="#3F3D56"/>
<path d="M18.4438 96.7031C18.4047 96.7031 18.3672 96.7187 18.3396 96.7463C18.312 96.7739 18.2964 96.8114 18.2964 96.8504V98.4155L16.7719 97.107C16.7572 97.0943 16.7402 97.0847 16.7218 97.0786C16.7034 97.0725 16.684 97.0701 16.6646 97.0716C16.6453 97.073 16.6265 97.0783 16.6092 97.087C16.5919 97.0958 16.5765 97.1078 16.5639 97.1225C16.5512 97.1372 16.5416 97.1543 16.5356 97.1727C16.5296 97.1911 16.5273 97.2106 16.5288 97.2299C16.5303 97.2492 16.5355 97.268 16.5443 97.2853C16.5531 97.3026 16.5652 97.3179 16.58 97.3305L18.2964 98.8038V99.7232C18.2964 99.7426 18.3001 99.7618 18.3075 99.7797C18.3149 99.7977 18.3257 99.8139 18.3394 99.8277C18.3531 99.8414 18.3694 99.8523 18.3873 99.8597C18.4052 99.8671 18.4244 99.871 18.4438 99.871C18.4631 99.871 18.4823 99.8671 18.5002 99.8597C18.5181 99.8523 18.5344 99.8414 18.5481 99.8277C18.5618 99.8139 18.5726 99.7977 18.58 99.7797C18.5874 99.7618 18.5911 99.7426 18.5911 99.7232V96.8504C18.5911 96.8114 18.5756 96.7739 18.5479 96.7463C18.5203 96.7187 18.4828 96.7031 18.4438 96.7031Z" fill="#3F3D56"/>
<path d="M26.4329 84.2029C26.3812 84.2029 26.3308 84.2029 26.2791 84.2016C22.8096 84.1624 19.4954 82.757 17.0554 80.2901C14.6154 77.8233 13.2463 74.494 13.2451 71.0242C13.2451 67.1937 14.8227 61.063 17.0815 56.1156C18.7059 52.5577 22.0808 46.5889 26.4329 46.5889C28.2255 46.5889 30.0306 47.6106 31.798 49.6257C31.8856 49.7251 31.9735 49.8274 32.0601 49.9323L32.0898 49.9683V82.9294L32.0166 82.9648C31.9292 83.0072 31.8406 83.0469 31.752 83.0852C30.1233 83.806 28.3644 84.1859 26.5835 84.2016C26.535 84.2029 26.4833 84.2029 26.4329 84.2029ZM26.4329 46.8484C22.226 46.8484 18.9161 52.7221 17.3176 56.2234C15.0726 61.1406 13.5047 67.2269 13.5047 71.0242C13.5047 78.0678 19.2374 83.8627 26.2838 83.9421C26.3363 83.9434 26.3853 83.9438 26.4363 83.9433C26.4834 83.9433 26.5317 83.9433 26.5788 83.9421C28.3255 83.9269 30.0506 83.5543 31.648 82.8475C31.7092 82.8209 31.77 82.794 31.8302 82.766V50.0617C31.7551 49.9715 31.6791 49.8833 31.6031 49.7971C29.8869 47.8404 28.1475 46.8484 26.4329 46.8484Z" fill="#3F3D56"/>
<path d="M26.4324 75.0033C26.411 75.0033 26.3898 74.9987 26.3703 74.9898C26.3509 74.981 26.3335 74.968 26.3195 74.9518L18.8102 66.2919C18.7844 66.2619 18.7715 66.223 18.7743 66.1835C18.7772 66.1441 18.7955 66.1074 18.8254 66.0814C18.8553 66.0555 18.8942 66.0425 18.9337 66.0453C18.9732 66.0481 19.0099 66.0664 19.0359 66.0962L26.5452 74.7561C26.5639 74.7777 26.576 74.8043 26.5801 74.8326C26.5842 74.861 26.58 74.8899 26.5682 74.9159C26.5563 74.9419 26.5372 74.964 26.5131 74.9795C26.489 74.995 26.461 75.0032 26.4324 75.0033V75.0033Z" fill="#CCCCCC"/>
<path d="M26.4325 80.0018C26.403 80.0018 26.3741 79.993 26.3495 79.9766C26.325 79.9602 26.3059 79.9369 26.2946 79.9096C26.2833 79.8824 26.2803 79.8523 26.2861 79.8234C26.2918 79.7944 26.306 79.7678 26.3269 79.7469L30.5938 75.48C30.6219 75.4521 30.6598 75.4365 30.6993 75.4365C30.7388 75.4366 30.7767 75.4523 30.8047 75.4803C30.8326 75.5082 30.8483 75.5461 30.8484 75.5856C30.8484 75.6251 30.8328 75.6631 30.805 75.6911L26.5381 79.9581C26.5242 79.972 26.5078 79.983 26.4896 79.9905C26.4715 79.998 26.4521 80.0018 26.4325 80.0018Z" fill="#CCCCCC"/>
<path d="M38.1579 22.581L38.2539 22.7704C38.2965 22.8522 38.3188 22.943 38.3188 23.0352V28.1613H42.861V23.0352C42.861 22.943 42.8833 22.8522 42.9259 22.7704L43.0219 22.581H38.1579ZM42.6014 23.0352V27.9017H38.5784V23.0352C38.5785 22.9696 38.5706 22.9042 38.555 22.8405H42.6248C42.6092 22.9042 42.6013 22.9696 42.6014 23.0352ZM43.868 22.581L43.9641 22.7704C44.0066 22.8522 44.0289 22.943 44.0289 23.0352V28.1613H48.5711V23.0352C48.5711 22.943 48.5934 22.8522 48.636 22.7704L48.732 22.581H43.868ZM48.3115 23.0352V27.9017H44.2885V23.0352C44.2886 22.9696 44.2807 22.9042 44.2651 22.8405H48.3349C48.3193 22.9042 48.3115 22.9696 48.3115 23.0352ZM49.5781 22.581L49.6742 22.7704C49.7167 22.8522 49.739 22.943 49.7391 23.0352V28.1613H54.2812V23.0352C54.2812 22.943 54.3035 22.8522 54.3461 22.7704L54.4421 22.581H49.5781ZM54.0216 23.0352V27.9017H49.9986V23.0352C49.9987 22.9696 49.9908 22.9042 49.9752 22.8405H54.045C54.0294 22.9042 54.0216 22.9696 54.0216 23.0352ZM55.2882 22.581L55.3843 22.7704C55.4268 22.8522 55.4491 22.943 55.4492 23.0352V28.1613H59.9913V23.0352C59.9914 22.943 60.0136 22.8522 60.0562 22.7704L60.1522 22.581H55.2882ZM59.7317 23.0352V27.9017H55.7087V23.0352C55.7088 22.9696 55.7009 22.9042 55.6853 22.8405H59.7551C59.7395 22.9042 59.7317 22.9696 59.7317 23.0352ZM60.9983 22.581L61.0944 22.7704C61.137 22.8522 61.1592 22.943 61.1593 23.0352V28.1613H65.7014V23.0352C65.7015 22.943 65.7237 22.8522 65.7663 22.7704L65.8624 22.581H60.9983ZM65.4419 23.0352V27.9017H61.4188V23.0352C61.4189 22.9696 61.411 22.9042 61.3954 22.8405H65.4652C65.4496 22.9042 65.4418 22.9696 65.4419 23.0352ZM66.7084 22.581L66.8045 22.7704C66.8471 22.8522 66.8693 22.943 66.8694 23.0352V28.1613H71.4115V23.0352C71.4116 22.943 71.4338 22.8522 71.4764 22.7704L71.5725 22.581H66.7084ZM71.152 23.0352V27.9017H67.1289V23.0352C67.129 22.9696 67.1212 22.9042 67.1055 22.8405H71.1753C71.1597 22.9042 71.1519 22.9696 71.152 23.0352ZM72.4185 22.581L72.5146 22.7704C72.5572 22.8522 72.5794 22.943 72.5795 23.0352V28.1613H77.1216V23.0352C77.1217 22.943 77.1439 22.8522 77.1865 22.7704L77.2826 22.581H72.4185ZM76.8621 23.0352V27.9017H72.839V23.0352C72.8391 22.9696 72.8313 22.9042 72.8157 22.8405H76.8855C76.8699 22.9042 76.862 22.9696 76.8621 23.0352ZM78.1286 22.581L78.2247 22.7704C78.2673 22.8522 78.2895 22.943 78.2896 23.0352V28.1613H82.8317V23.0352C82.8318 22.943 82.854 22.8522 82.8966 22.7704L82.9927 22.581H78.1286ZM82.5722 23.0352V27.9017H78.5491V23.0352C78.5492 22.9696 78.5414 22.9042 78.5258 22.8405H82.5956C82.58 22.9042 82.5721 22.9696 82.5722 23.0352ZM83.8388 22.581L83.9348 22.7704C83.9774 22.8522 83.9996 22.943 83.9997 23.0352V28.1613H88.5418V23.0352C88.5419 22.943 88.5642 22.8522 88.6067 22.7704L88.7028 22.581H83.8388ZM88.2823 23.0352V27.9017H84.2593V23.0352C84.2593 22.9696 84.2515 22.9042 84.2359 22.8405H88.3057C88.2901 22.9042 88.2822 22.9696 88.2823 23.0352ZM83.8388 22.581L83.9348 22.7704C83.9774 22.8522 83.9996 22.943 83.9997 23.0352V28.1613H88.5418V23.0352C88.5419 22.943 88.5642 22.8522 88.6067 22.7704L88.7028 22.581H83.8388ZM88.2823 23.0352V27.9017H84.2593V23.0352C84.2593 22.9696 84.2515 22.9042 84.2359 22.8405H88.3057C88.2901 22.9042 88.2822 22.9696 88.2823 23.0352ZM78.1286 22.581L78.2247 22.7704C78.2673 22.8522 78.2895 22.943 78.2896 23.0352V28.1613H82.8317V23.0352C82.8318 22.943 82.854 22.8522 82.8966 22.7704L82.9927 22.581H78.1286ZM82.5722 23.0352V27.9017H78.5491V23.0352C78.5492 22.9696 78.5414 22.9042 78.5258 22.8405H82.5956C82.58 22.9042 82.5721 22.9696 82.5722 23.0352ZM72.4185 22.581L72.5146 22.7704C72.5572 22.8522 72.5794 22.943 72.5795 23.0352V28.1613H77.1216V23.0352C77.1217 22.943 77.1439 22.8522 77.1865 22.7704L77.2826 22.581H72.4185ZM76.8621 23.0352V27.9017H72.839V23.0352C72.8391 22.9696 72.8313 22.9042 72.8157 22.8405H76.8855C76.8699 22.9042 76.862 22.9696 76.8621 23.0352ZM66.7084 22.581L66.8045 22.7704C66.8471 22.8522 66.8693 22.943 66.8694 23.0352V28.1613H71.4115V23.0352C71.4116 22.943 71.4338 22.8522 71.4764 22.7704L71.5725 22.581H66.7084ZM71.152 23.0352V27.9017H67.1289V23.0352C67.129 22.9696 67.1212 22.9042 67.1055 22.8405H71.1753C71.1597 22.9042 71.1519 22.9696 71.152 23.0352ZM60.9983 22.581L61.0944 22.7704C61.137 22.8522 61.1592 22.943 61.1593 23.0352V28.1613H65.7014V23.0352C65.7015 22.943 65.7237 22.8522 65.7663 22.7704L65.8624 22.581H60.9983ZM65.4419 23.0352V27.9017H61.4188V23.0352C61.4189 22.9696 61.411 22.9042 61.3954 22.8405H65.4652C65.4496 22.9042 65.4418 22.9696 65.4419 23.0352ZM55.2882 22.581L55.3843 22.7704C55.4268 22.8522 55.4491 22.943 55.4492 23.0352V28.1613H59.9913V23.0352C59.9914 22.943 60.0136 22.8522 60.0562 22.7704L60.1522 22.581H55.2882ZM59.7317 23.0352V27.9017H55.7087V23.0352C55.7088 22.9696 55.7009 22.9042 55.6853 22.8405H59.7551C59.7395 22.9042 59.7317 22.9696 59.7317 23.0352ZM49.5781 22.581L49.6742 22.7704C49.7167 22.8522 49.739 22.943 49.7391 23.0352V28.1613H54.2812V23.0352C54.2812 22.943 54.3035 22.8522 54.3461 22.7704L54.4421 22.581H49.5781ZM54.0216 23.0352V27.9017H49.9986V23.0352C49.9987 22.9696 49.9908 22.9042 49.9752 22.8405H54.045C54.0294 22.9042 54.0216 22.9696 54.0216 23.0352ZM43.868 22.581L43.9641 22.7704C44.0066 22.8522 44.0289 22.943 44.0289 23.0352V28.1613H48.5711V23.0352C48.5711 22.943 48.5934 22.8522 48.636 22.7704L48.732 22.581H43.868ZM48.3115 23.0352V27.9017H44.2885V23.0352C44.2886 22.9696 44.2807 22.9042 44.2651 22.8405H48.3349C48.3193 22.9042 48.3115 22.9696 48.3115 23.0352ZM38.1579 22.581L38.2539 22.7704C38.2965 22.8522 38.3188 22.943 38.3188 23.0352V28.1613H42.861V23.0352C42.861 22.943 42.8833 22.8522 42.9259 22.7704L43.0219 22.581H38.1579ZM42.6014 23.0352V27.9017H38.5784V23.0352C38.5785 22.9696 38.5706 22.9042 38.555 22.8405H42.6248C42.6092 22.9042 42.6013 22.9696 42.6014 23.0352ZM83.8388 22.581L83.9348 22.7704C83.9774 22.8522 83.9996 22.943 83.9997 23.0352V28.1613H88.5418V23.0352C88.5419 22.943 88.5642 22.8522 88.6067 22.7704L88.7028 22.581H83.8388ZM88.2823 23.0352V27.9017H84.2593V23.0352C84.2593 22.9696 84.2515 22.9042 84.2359 22.8405H88.3057C88.2901 22.9042 88.2822 22.9696 88.2823 23.0352ZM78.1286 22.581L78.2247 22.7704C78.2673 22.8522 78.2895 22.943 78.2896 23.0352V28.1613H82.8317V23.0352C82.8318 22.943 82.854 22.8522 82.8966 22.7704L82.9927 22.581H78.1286ZM82.5722 23.0352V27.9017H78.5491V23.0352C78.5492 22.9696 78.5414 22.9042 78.5258 22.8405H82.5956C82.58 22.9042 82.5721 22.9696 82.5722 23.0352ZM72.4185 22.581L72.5146 22.7704C72.5572 22.8522 72.5794 22.943 72.5795 23.0352V28.1613H77.1216V23.0352C77.1217 22.943 77.1439 22.8522 77.1865 22.7704L77.2826 22.581H72.4185ZM76.8621 23.0352V27.9017H72.839V23.0352C72.8391 22.9696 72.8313 22.9042 72.8157 22.8405H76.8855C76.8699 22.9042 76.862 22.9696 76.8621 23.0352ZM66.7084 22.581L66.8045 22.7704C66.8471 22.8522 66.8693 22.943 66.8694 23.0352V28.1613H71.4115V23.0352C71.4116 22.943 71.4338 22.8522 71.4764 22.7704L71.5725 22.581H66.7084ZM71.152 23.0352V27.9017H67.1289V23.0352C67.129 22.9696 67.1212 22.9042 67.1055 22.8405H71.1753C71.1597 22.9042 71.1519 22.9696 71.152 23.0352ZM60.9983 22.581L61.0944 22.7704C61.137 22.8522 61.1592 22.943 61.1593 23.0352V28.1613H65.7014V23.0352C65.7015 22.943 65.7237 22.8522 65.7663 22.7704L65.8624 22.581H60.9983ZM65.4419 23.0352V27.9017H61.4188V23.0352C61.4189 22.9696 61.411 22.9042 61.3954 22.8405H65.4652C65.4496 22.9042 65.4418 22.9696 65.4419 23.0352ZM55.2882 22.581L55.3843 22.7704C55.4268 22.8522 55.4491 22.943 55.4492 23.0352V28.1613H59.9913V23.0352C59.9914 22.943 60.0136 22.8522 60.0562 22.7704L60.1522 22.581H55.2882ZM59.7317 23.0352V27.9017H55.7087V23.0352C55.7088 22.9696 55.7009 22.9042 55.6853 22.8405H59.7551C59.7395 22.9042 59.7317 22.9696 59.7317 23.0352ZM49.5781 22.581L49.6742 22.7704C49.7167 22.8522 49.739 22.943 49.7391 23.0352V28.1613H54.2812V23.0352C54.2812 22.943 54.3035 22.8522 54.3461 22.7704L54.4421 22.581H49.5781ZM54.0216 23.0352V27.9017H49.9986V23.0352C49.9987 22.9696 49.9908 22.9042 49.9752 22.8405H54.045C54.0294 22.9042 54.0216 22.9696 54.0216 23.0352ZM43.868 22.581L43.9641 22.7704C44.0066 22.8522 44.0289 22.943 44.0289 23.0352V28.1613H48.5711V23.0352C48.5711 22.943 48.5934 22.8522 48.636 22.7704L48.732 22.581H43.868ZM48.3115 23.0352V27.9017H44.2885V23.0352C44.2886 22.9696 44.2807 22.9042 44.2651 22.8405H48.3349C48.3193 22.9042 48.3115 22.9696 48.3115 23.0352ZM38.1579 22.581L38.2539 22.7704C38.2965 22.8522 38.3188 22.943 38.3188 23.0352V28.1613H42.861V23.0352C42.861 22.943 42.8833 22.8522 42.9259 22.7704L43.0219 22.581H38.1579ZM42.6014 23.0352V27.9017H38.5784V23.0352C38.5785 22.9696 38.5706 22.9042 38.555 22.8405H42.6248C42.6092 22.9042 42.6013 22.9696 42.6014 23.0352ZM83.8388 22.581L83.9348 22.7704C83.9774 22.8522 83.9996 22.943 83.9997 23.0352V28.1613H88.5418V23.0352C88.5419 22.943 88.5642 22.8522 88.6067 22.7704L88.7028 22.581H83.8388ZM88.2823 23.0352V27.9017H84.2593V23.0352C84.2593 22.9696 84.2515 22.9042 84.2359 22.8405H88.3057C88.2901 22.9042 88.2822 22.9696 88.2823 23.0352ZM78.1286 22.581L78.2247 22.7704C78.2673 22.8522 78.2895 22.943 78.2896 23.0352V28.1613H82.8317V23.0352C82.8318 22.943 82.854 22.8522 82.8966 22.7704L82.9927 22.581H78.1286ZM82.5722 23.0352V27.9017H78.5491V23.0352C78.5492 22.9696 78.5414 22.9042 78.5258 22.8405H82.5956C82.58 22.9042 82.5721 22.9696 82.5722 23.0352ZM72.4185 22.581L72.5146 22.7704C72.5572 22.8522 72.5794 22.943 72.5795 23.0352V28.1613H77.1216V23.0352C77.1217 22.943 77.1439 22.8522 77.1865 22.7704L77.2826 22.581H72.4185ZM76.8621 23.0352V27.9017H72.839V23.0352C72.8391 22.9696 72.8313 22.9042 72.8157 22.8405H76.8855C76.8699 22.9042 76.862 22.9696 76.8621 23.0352ZM66.7084 22.581L66.8045 22.7704C66.8471 22.8522 66.8693 22.943 66.8694 23.0352V28.1613H71.4115V23.0352C71.4116 22.943 71.4338 22.8522 71.4764 22.7704L71.5725 22.581H66.7084ZM71.152 23.0352V27.9017H67.1289V23.0352C67.129 22.9696 67.1212 22.9042 67.1055 22.8405H71.1753C71.1597 22.9042 71.1519 22.9696 71.152 23.0352ZM60.9983 22.581L61.0944 22.7704C61.137 22.8522 61.1592 22.943 61.1593 23.0352V28.1613H65.7014V23.0352C65.7015 22.943 65.7237 22.8522 65.7663 22.7704L65.8624 22.581H60.9983ZM65.4419 23.0352V27.9017H61.4188V23.0352C61.4189 22.9696 61.411 22.9042 61.3954 22.8405H65.4652C65.4496 22.9042 65.4418 22.9696 65.4419 23.0352ZM55.2882 22.581L55.3843 22.7704C55.4268 22.8522 55.4491 22.943 55.4492 23.0352V28.1613H59.9913V23.0352C59.9914 22.943 60.0136 22.8522 60.0562 22.7704L60.1522 22.581H55.2882ZM59.7317 23.0352V27.9017H55.7087V23.0352C55.7088 22.9696 55.7009 22.9042 55.6853 22.8405H59.7551C59.7395 22.9042 59.7317 22.9696 59.7317 23.0352ZM49.5781 22.581L49.6742 22.7704C49.7167 22.8522 49.739 22.943 49.7391 23.0352V28.1613H54.2812V23.0352C54.2812 22.943 54.3035 22.8522 54.3461 22.7704L54.4421 22.581H49.5781ZM54.0216 23.0352V27.9017H49.9986V23.0352C49.9987 22.9696 49.9908 22.9042 49.9752 22.8405H54.045C54.0294 22.9042 54.0216 22.9696 54.0216 23.0352ZM43.868 22.581L43.9641 22.7704C44.0066 22.8522 44.0289 22.943 44.0289 23.0352V28.1613H48.5711V23.0352C48.5711 22.943 48.5934 22.8522 48.636 22.7704L48.732 22.581H43.868ZM48.3115 23.0352V27.9017H44.2885V23.0352C44.2886 22.9696 44.2807 22.9042 44.2651 22.8405H48.3349C48.3193 22.9042 48.3115 22.9696 48.3115 23.0352ZM38.1579 22.581L38.2539 22.7704C38.2965 22.8522 38.3188 22.943 38.3188 23.0352V28.1613H42.861V23.0352C42.861 22.943 42.8833 22.8522 42.9259 22.7704L43.0219 22.581H38.1579ZM42.6014 23.0352V27.9017H38.5784V23.0352C38.5785 22.9696 38.5706 22.9042 38.555 22.8405H42.6248C42.6092 22.9042 42.6013 22.9696 42.6014 23.0352ZM83.8388 22.581L83.9348 22.7704C83.9774 22.8522 83.9996 22.943 83.9997 23.0352V28.1613H88.5418V23.0352C88.5419 22.943 88.5642 22.8522 88.6067 22.7704L88.7028 22.581H83.8388ZM88.2823 23.0352V27.9017H84.2593V23.0352C84.2593 22.9696 84.2515 22.9042 84.2359 22.8405H88.3057C88.2901 22.9042 88.2822 22.9696 88.2823 23.0352ZM78.1286 22.581L78.2247 22.7704C78.2673 22.8522 78.2895 22.943 78.2896 23.0352V28.1613H82.8317V23.0352C82.8318 22.943 82.854 22.8522 82.8966 22.7704L82.9927 22.581H78.1286ZM82.5722 23.0352V27.9017H78.5491V23.0352C78.5492 22.9696 78.5414 22.9042 78.5258 22.8405H82.5956C82.58 22.9042 82.5721 22.9696 82.5722 23.0352ZM72.4185 22.581L72.5146 22.7704C72.5572 22.8522 72.5794 22.943 72.5795 23.0352V28.1613H77.1216V23.0352C77.1217 22.943 77.1439 22.8522 77.1865 22.7704L77.2826 22.581H72.4185ZM76.8621 23.0352V27.9017H72.839V23.0352C72.8391 22.9696 72.8313 22.9042 72.8157 22.8405H76.8855C76.8699 22.9042 76.862 22.9696 76.8621 23.0352ZM66.7084 22.581L66.8045 22.7704C66.8471 22.8522 66.8693 22.943 66.8694 23.0352V28.1613H71.4115V23.0352C71.4116 22.943 71.4338 22.8522 71.4764 22.7704L71.5725 22.581H66.7084ZM71.152 23.0352V27.9017H67.1289V23.0352C67.129 22.9696 67.1212 22.9042 67.1055 22.8405H71.1753C71.1597 22.9042 71.1519 22.9696 71.152 23.0352ZM60.9983 22.581L61.0944 22.7704C61.137 22.8522 61.1592 22.943 61.1593 23.0352V28.1613H65.7014V23.0352C65.7015 22.943 65.7237 22.8522 65.7663 22.7704L65.8624 22.581H60.9983ZM65.4419 23.0352V27.9017H61.4188V23.0352C61.4189 22.9696 61.411 22.9042 61.3954 22.8405H65.4652C65.4496 22.9042 65.4418 22.9696 65.4419 23.0352ZM55.2882 22.581L55.3843 22.7704C55.4268 22.8522 55.4491 22.943 55.4492 23.0352V28.1613H59.9913V23.0352C59.9914 22.943 60.0136 22.8522 60.0562 22.7704L60.1522 22.581H55.2882ZM59.7317 23.0352V27.9017H55.7087V23.0352C55.7088 22.9696 55.7009 22.9042 55.6853 22.8405H59.7551C59.7395 22.9042 59.7317 22.9696 59.7317 23.0352ZM49.5781 22.581L49.6742 22.7704C49.7167 22.8522 49.739 22.943 49.7391 23.0352V28.1613H54.2812V23.0352C54.2812 22.943 54.3035 22.8522 54.3461 22.7704L54.4421 22.581H49.5781ZM54.0216 23.0352V27.9017H49.9986V23.0352C49.9987 22.9696 49.9908 22.9042 49.9752 22.8405H54.045C54.0294 22.9042 54.0216 22.9696 54.0216 23.0352ZM43.868 22.581L43.9641 22.7704C44.0066 22.8522 44.0289 22.943 44.0289 23.0352V28.1613H48.5711V23.0352C48.5711 22.943 48.5934 22.8522 48.636 22.7704L48.732 22.581H43.868ZM48.3115 23.0352V27.9017H44.2885V23.0352C44.2886 22.9696 44.2807 22.9042 44.2651 22.8405H48.3349C48.3193 22.9042 48.3115 22.9696 48.3115 23.0352ZM38.1579 22.581L38.2539 22.7704C38.2965 22.8522 38.3188 22.943 38.3188 23.0352V28.1613H42.861V23.0352C42.861 22.943 42.8833 22.8522 42.9259 22.7704L43.0219 22.581H38.1579ZM42.6014 23.0352V27.9017H38.5784V23.0352C38.5785 22.9696 38.5706 22.9042 38.555 22.8405H42.6248C42.6092 22.9042 42.6013 22.9696 42.6014 23.0352ZM83.8388 22.581L83.9348 22.7704C83.9774 22.8522 83.9996 22.943 83.9997 23.0352V28.1613H88.5418V23.0352C88.5419 22.943 88.5642 22.8522 88.6067 22.7704L88.7028 22.581H83.8388ZM88.2823 23.0352V27.9017H84.2593V23.0352C84.2593 22.9696 84.2515 22.9042 84.2359 22.8405H88.3057C88.2901 22.9042 88.2822 22.9696 88.2823 23.0352ZM78.2247 22.7704C78.2673 22.8522 78.2895 22.943 78.2896 23.0352V28.1613H82.8317V23.0352C82.8318 22.943 82.854 22.8522 82.8966 22.7704L82.9927 22.581H78.1286L78.2247 22.7704ZM82.5956 22.8405C82.58 22.9042 82.5721 22.9696 82.5722 23.0352V27.9017H78.5491V23.0352C78.5492 22.9696 78.5414 22.9042 78.5258 22.8405H82.5956ZM72.5146 22.7704C72.5572 22.8522 72.5794 22.943 72.5795 23.0352V28.1613H77.1216V23.0352C77.1217 22.943 77.1439 22.8522 77.1865 22.7704L77.2826 22.581H72.4185L72.5146 22.7704ZM76.8855 22.8405C76.8699 22.9042 76.862 22.9696 76.8621 23.0352V27.9017H72.839V23.0352C72.8391 22.9696 72.8313 22.9042 72.8157 22.8405H76.8855ZM66.8045 22.7704C66.8471 22.8522 66.8693 22.943 66.8694 23.0352V28.1613H71.4115V23.0352C71.4116 22.943 71.4338 22.8522 71.4764 22.7704L71.5725 22.581H66.7084L66.8045 22.7704ZM71.1753 22.8405C71.1597 22.9042 71.1519 22.9696 71.152 23.0352V27.9017H67.1289V23.0352C67.129 22.9696 67.1212 22.9042 67.1055 22.8405H71.1753ZM61.0944 22.7704C61.137 22.8522 61.1592 22.943 61.1593 23.0352V28.1613H65.7014V23.0352C65.7015 22.943 65.7237 22.8522 65.7663 22.7704L65.8624 22.581H60.9983L61.0944 22.7704ZM65.4652 22.8405C65.4496 22.9042 65.4418 22.9696 65.4419 23.0352V27.9017H61.4188V23.0352C61.4189 22.9696 61.411 22.9042 61.3954 22.8405H65.4652ZM55.3843 22.7704C55.4268 22.8522 55.4491 22.943 55.4492 23.0352V28.1613H59.9913V23.0352C59.9914 22.943 60.0136 22.8522 60.0562 22.7704L60.1522 22.581H55.2882L55.3843 22.7704ZM59.7551 22.8405C59.7395 22.9042 59.7317 22.9696 59.7317 23.0352V27.9017H55.7087V23.0352C55.7088 22.9696 55.7009 22.9042 55.6853 22.8405H59.7551ZM49.6742 22.7704C49.7167 22.8522 49.739 22.943 49.7391 23.0352V28.1613H54.2812V23.0352C54.2812 22.943 54.3035 22.8522 54.3461 22.7704L54.4421 22.581H49.5781L49.6742 22.7704ZM54.045 22.8405C54.0294 22.9042 54.0216 22.9696 54.0216 23.0352V27.9017H49.9986V23.0352C49.9987 22.9696 49.9908 22.9042 49.9752 22.8405H54.045ZM43.9641 22.7704C44.0066 22.8522 44.0289 22.943 44.0289 23.0352V28.1613H48.5711V23.0352C48.5711 22.943 48.5934 22.8522 48.636 22.7704L48.732 22.581H43.868L43.9641 22.7704ZM48.3349 22.8405C48.3193 22.9042 48.3115 22.9696 48.3115 23.0352V27.9017H44.2885V23.0352C44.2886 22.9696 44.2807 22.9042 44.2651 22.8405H48.3349ZM38.2539 22.7704C38.2965 22.8522 38.3188 22.943 38.3188 23.0352V28.1613H42.861V23.0352C42.861 22.943 42.8833 22.8522 42.9259 22.7704L43.0219 22.581H38.1579L38.2539 22.7704ZM42.6248 22.8405C42.6092 22.9042 42.6013 22.9696 42.6014 23.0352V27.9017H38.5784V23.0352C38.5785 22.9696 38.5706 22.9042 38.555 22.8405H42.6248ZM83.9348 22.7704C83.9774 22.8522 83.9996 22.943 83.9997 23.0352V28.1613H88.5418V23.0352C88.5419 22.943 88.5642 22.8522 88.6067 22.7704L88.7028 22.581H83.8388L83.9348 22.7704ZM88.3057 22.8405C88.2901 22.9042 88.2822 22.9696 88.2823 23.0352V27.9017H84.2593V23.0352C84.2593 22.9696 84.2515 22.9042 84.2359 22.8405H88.3057ZM78.2247 22.7704C78.2673 22.8522 78.2895 22.943 78.2896 23.0352V28.1613H82.8317V23.0352C82.8318 22.943 82.854 22.8522 82.8966 22.7704L82.9927 22.581H78.1286L78.2247 22.7704ZM82.5956 22.8405C82.58 22.9042 82.5721 22.9696 82.5722 23.0352V27.9017H78.5491V23.0352C78.5492 22.9696 78.5414 22.9042 78.5258 22.8405H82.5956ZM72.5146 22.7704C72.5572 22.8522 72.5794 22.943 72.5795 23.0352V28.1613H77.1216V23.0352C77.1217 22.943 77.1439 22.8522 77.1865 22.7704L77.2826 22.581H72.4185L72.5146 22.7704ZM76.8855 22.8405C76.8699 22.9042 76.862 22.9696 76.8621 23.0352V27.9017H72.839V23.0352C72.8391 22.9696 72.8313 22.9042 72.8157 22.8405H76.8855ZM66.8045 22.7704C66.8471 22.8522 66.8693 22.943 66.8694 23.0352V28.1613H71.4115V23.0352C71.4116 22.943 71.4338 22.8522 71.4764 22.7704L71.5725 22.581H66.7084L66.8045 22.7704ZM71.1753 22.8405C71.1597 22.9042 71.1519 22.9696 71.152 23.0352V27.9017H67.1289V23.0352C67.129 22.9696 67.1212 22.9042 67.1055 22.8405H71.1753ZM61.0944 22.7704C61.137 22.8522 61.1592 22.943 61.1593 23.0352V28.1613H65.7014V23.0352C65.7015 22.943 65.7237 22.8522 65.7663 22.7704L65.8624 22.581H60.9983L61.0944 22.7704ZM65.4652 22.8405C65.4496 22.9042 65.4418 22.9696 65.4419 23.0352V27.9017H61.4188V23.0352C61.4189 22.9696 61.411 22.9042 61.3954 22.8405H65.4652ZM55.3843 22.7704C55.4268 22.8522 55.4491 22.943 55.4492 23.0352V28.1613H59.9913V23.0352C59.9914 22.943 60.0136 22.8522 60.0562 22.7704L60.1522 22.581H55.2882L55.3843 22.7704ZM59.7551 22.8405C59.7395 22.9042 59.7317 22.9696 59.7317 23.0352V27.9017H55.7087V23.0352C55.7088 22.9696 55.7009 22.9042 55.6853 22.8405H59.7551ZM49.6742 22.7704C49.7167 22.8522 49.739 22.943 49.7391 23.0352V28.1613H54.2812V23.0352C54.2812 22.943 54.3035 22.8522 54.3461 22.7704L54.4421 22.581H49.5781L49.6742 22.7704ZM54.045 22.8405C54.0294 22.9042 54.0216 22.9696 54.0216 23.0352V27.9017H49.9986V23.0352C49.9987 22.9696 49.9908 22.9042 49.9752 22.8405H54.045ZM43.9641 22.7704C44.0066 22.8522 44.0289 22.943 44.0289 23.0352V28.1613H48.5711V23.0352C48.5711 22.943 48.5934 22.8522 48.636 22.7704L48.732 22.581H43.868L43.9641 22.7704ZM48.3349 22.8405C48.3193 22.9042 48.3115 22.9696 48.3115 23.0352V27.9017H44.2885V23.0352C44.2886 22.9696 44.2807 22.9042 44.2651 22.8405H48.3349ZM38.2539 22.7704C38.2965 22.8522 38.3188 22.943 38.3188 23.0352V28.1613H42.861V23.0352C42.861 22.943 42.8833 22.8522 42.9259 22.7704L43.0219 22.581H38.1579L38.2539 22.7704ZM42.6248 22.8405C42.6092 22.9042 42.6013 22.9696 42.6014 23.0352V27.9017H38.5784V23.0352C38.5785 22.9696 38.5706 22.9042 38.555 22.8405H42.6248ZM93.7328 28.9399H92.1859C92.1006 28.6414 91.9206 28.3787 91.6729 28.1914C91.4252 28.0041 91.1234 27.9025 90.8129 27.9017H89.9694V23.0352C89.9697 22.9307 89.9499 22.8271 89.9109 22.7302C90.058 22.6436 90.1724 22.511 90.2367 22.3529C90.3009 22.1948 90.3113 22.02 90.2663 21.8554C90.2212 21.6908 90.1233 21.5456 89.9875 21.4422C89.8518 21.3388 89.6858 21.2829 89.5152 21.2832H37.3455C37.1749 21.2829 37.0089 21.3388 36.8731 21.4422C36.7374 21.5456 36.6394 21.6908 36.5944 21.8554C36.5494 22.02 36.5598 22.1948 36.624 22.3529C36.6882 22.511 36.8027 22.6436 36.9497 22.7302C36.9108 22.8271 36.891 22.9307 36.8913 23.0352V27.9017H36.0478C35.7373 27.9025 35.4354 28.0041 35.1878 28.1914C34.9401 28.3787 34.7601 28.6414 34.6747 28.9399H32.9981C32.6884 28.9404 32.3916 29.0636 32.1727 29.2825C31.9537 29.5015 31.8305 29.7983 31.8301 30.1079V98.6292C31.8307 98.9388 31.954 99.2355 32.1729 99.4544C32.3918 99.6732 32.6885 99.7965 32.9981 99.7972H93.7328C94.0425 99.7967 94.3393 99.6735 94.5582 99.4546C94.7772 99.2357 94.9004 98.9388 94.9008 98.6292V30.1079C94.9004 29.7983 94.7771 29.5015 94.5582 29.2825C94.3393 29.0636 94.0425 28.9404 93.7328 28.9399ZM94.6413 98.6292C94.6411 98.8147 94.5841 98.9956 94.4781 99.1478C94.3721 99.3 94.2221 99.4161 94.0482 99.4805C93.9475 99.5189 93.8406 99.5382 93.7328 99.5376H32.9981C32.8903 99.5382 32.7834 99.5189 32.6827 99.4805C32.5088 99.4161 32.3588 99.3 32.2528 99.1478C32.1468 98.9956 32.0898 98.8147 32.0896 98.6292V30.1079C32.0899 29.8671 32.1857 29.6362 32.356 29.4659C32.5263 29.2956 32.7572 29.1998 32.9981 29.1995H34.8824L34.9032 29.0957C34.9577 28.8322 35.1013 28.5956 35.3097 28.4254C35.5181 28.2553 35.7787 28.162 36.0478 28.1613H37.1509V23.0352C37.1509 22.9296 37.1796 22.826 37.2339 22.7354L37.3143 22.6017L37.1677 22.5472C37.0531 22.5057 36.9568 22.425 36.8959 22.3195C36.8349 22.2139 36.8131 22.0903 36.8343 21.9702C36.8556 21.8502 36.9185 21.7415 37.012 21.6633C37.1055 21.5851 37.2236 21.5424 37.3455 21.5428H89.5151C89.637 21.5424 89.7551 21.5851 89.8486 21.6633C89.9422 21.7415 90.0051 21.8502 90.0263 21.9702C90.0476 22.0903 90.0258 22.2139 89.9648 22.3195C89.9038 22.425 89.8075 22.5057 89.693 22.5472L89.5463 22.6017L89.6267 22.7354C89.6811 22.8259 89.7098 22.9296 89.7098 23.0352V28.1613H90.8129C91.0819 28.162 91.3426 28.2553 91.551 28.4254C91.7594 28.5955 91.9029 28.8322 91.9575 29.0957L91.9783 29.1995H93.7328C93.9737 29.1998 94.2046 29.2956 94.3749 29.4659C94.5452 29.6362 94.641 29.8671 94.6413 30.1079L94.6413 98.6292ZM38.1579 22.581L38.2539 22.7704C38.2965 22.8522 38.3188 22.943 38.3188 23.0352V28.1613H42.861V23.0352C42.861 22.943 42.8833 22.8522 42.9259 22.7704L43.0219 22.581H38.1579ZM42.6014 23.0352V27.9017H38.5784V23.0352C38.5785 22.9696 38.5706 22.9042 38.555 22.8405H42.6248C42.6092 22.9042 42.6013 22.9696 42.6014 23.0352ZM43.868 22.581L43.9641 22.7704C44.0066 22.8522 44.0289 22.943 44.0289 23.0352V28.1613H48.5711V23.0352C48.5711 22.943 48.5934 22.8522 48.636 22.7704L48.732 22.581H43.868ZM48.3115 23.0352V27.9017H44.2885V23.0352C44.2886 22.9696 44.2807 22.9042 44.2651 22.8405H48.3349C48.3193 22.9042 48.3115 22.9696 48.3115 23.0352ZM49.5781 22.581L49.6742 22.7704C49.7167 22.8522 49.739 22.943 49.7391 23.0352V28.1613H54.2812V23.0352C54.2812 22.943 54.3035 22.8522 54.3461 22.7704L54.4421 22.581H49.5781ZM54.0216 23.0352V27.9017H49.9986V23.0352C49.9987 22.9696 49.9908 22.9042 49.9752 22.8405H54.045C54.0294 22.9042 54.0216 22.9696 54.0216 23.0352ZM55.2882 22.581L55.3843 22.7704C55.4268 22.8522 55.4491 22.943 55.4492 23.0352V28.1613H59.9913V23.0352C59.9914 22.943 60.0136 22.8522 60.0562 22.7704L60.1522 22.581H55.2882ZM59.7317 23.0352V27.9017H55.7087V23.0352C55.7088 22.9696 55.7009 22.9042 55.6853 22.8405H59.7551C59.7395 22.9042 59.7317 22.9696 59.7317 23.0352ZM60.9983 22.581L61.0944 22.7704C61.137 22.8522 61.1592 22.943 61.1593 23.0352V28.1613H65.7014V23.0352C65.7015 22.943 65.7237 22.8522 65.7663 22.7704L65.8624 22.581H60.9983ZM65.4419 23.0352V27.9017H61.4188V23.0352C61.4189 22.9696 61.411 22.9042 61.3954 22.8405H65.4652C65.4496 22.9042 65.4418 22.9696 65.4419 23.0352ZM66.7084 22.581L66.8045 22.7704C66.8471 22.8522 66.8693 22.943 66.8694 23.0352V28.1613H71.4115V23.0352C71.4116 22.943 71.4338 22.8522 71.4764 22.7704L71.5725 22.581H66.7084ZM71.152 23.0352V27.9017H67.1289V23.0352C67.129 22.9696 67.1212 22.9042 67.1055 22.8405H71.1753C71.1597 22.9042 71.1519 22.9696 71.152 23.0352ZM72.4185 22.581L72.5146 22.7704C72.5572 22.8522 72.5794 22.943 72.5795 23.0352V28.1613H77.1216V23.0352C77.1217 22.943 77.1439 22.8522 77.1865 22.7704L77.2826 22.581H72.4185ZM76.8621 23.0352V27.9017H72.839V23.0352C72.8391 22.9696 72.8313 22.9042 72.8157 22.8405H76.8855C76.8699 22.9042 76.862 22.9696 76.8621 23.0352ZM78.1286 22.581L78.2247 22.7704C78.2673 22.8522 78.2895 22.943 78.2896 23.0352V28.1613H82.8317V23.0352C82.8318 22.943 82.854 22.8522 82.8966 22.7704L82.9927 22.581H78.1286ZM82.5722 23.0352V27.9017H78.5491V23.0352C78.5492 22.9696 78.5414 22.9042 78.5258 22.8405H82.5956C82.58 22.9042 82.5721 22.9696 82.5722 23.0352ZM83.8388 22.581L83.9348 22.7704C83.9774 22.8522 83.9996 22.943 83.9997 23.0352V28.1613H88.5418V23.0352C88.5419 22.943 88.5642 22.8522 88.6067 22.7704L88.7028 22.581H83.8388ZM88.2823 23.0352V27.9017H84.2593V23.0352C84.2593 22.9696 84.2515 22.9042 84.2359 22.8405H88.3057C88.2901 22.9042 88.2822 22.9696 88.2823 23.0352ZM38.1579 22.581L38.2539 22.7704C38.2965 22.8522 38.3188 22.943 38.3188 23.0352V28.1613H42.861V23.0352C42.861 22.943 42.8833 22.8522 42.9259 22.7704L43.0219 22.581H38.1579ZM42.6014 23.0352V27.9017H38.5784V23.0352C38.5785 22.9696 38.5706 22.9042 38.555 22.8405H42.6248C42.6092 22.9042 42.6013 22.9696 42.6014 23.0352ZM43.868 22.581L43.9641 22.7704C44.0066 22.8522 44.0289 22.943 44.0289 23.0352V28.1613H48.5711V23.0352C48.5711 22.943 48.5934 22.8522 48.636 22.7704L48.732 22.581H43.868ZM48.3115 23.0352V27.9017H44.2885V23.0352C44.2886 22.9696 44.2807 22.9042 44.2651 22.8405H48.3349C48.3193 22.9042 48.3115 22.9696 48.3115 23.0352ZM49.5781 22.581L49.6742 22.7704C49.7167 22.8522 49.739 22.943 49.7391 23.0352V28.1613H54.2812V23.0352C54.2812 22.943 54.3035 22.8522 54.3461 22.7704L54.4421 22.581H49.5781ZM54.0216 23.0352V27.9017H49.9986V23.0352C49.9987 22.9696 49.9908 22.9042 49.9752 22.8405H54.045C54.0294 22.9042 54.0216 22.9696 54.0216 23.0352ZM55.2882 22.581L55.3843 22.7704C55.4268 22.8522 55.4491 22.943 55.4492 23.0352V28.1613H59.9913V23.0352C59.9914 22.943 60.0136 22.8522 60.0562 22.7704L60.1522 22.581H55.2882ZM59.7317 23.0352V27.9017H55.7087V23.0352C55.7088 22.9696 55.7009 22.9042 55.6853 22.8405H59.7551C59.7395 22.9042 59.7317 22.9696 59.7317 23.0352ZM60.9983 22.581L61.0944 22.7704C61.137 22.8522 61.1592 22.943 61.1593 23.0352V28.1613H65.7014V23.0352C65.7015 22.943 65.7237 22.8522 65.7663 22.7704L65.8624 22.581H60.9983ZM65.4419 23.0352V27.9017H61.4188V23.0352C61.4189 22.9696 61.411 22.9042 61.3954 22.8405H65.4652C65.4496 22.9042 65.4418 22.9696 65.4419 23.0352ZM66.7084 22.581L66.8045 22.7704C66.8471 22.8522 66.8693 22.943 66.8694 23.0352V28.1613H71.4115V23.0352C71.4116 22.943 71.4338 22.8522 71.4764 22.7704L71.5725 22.581H66.7084ZM71.152 23.0352V27.9017H67.1289V23.0352C67.129 22.9696 67.1212 22.9042 67.1055 22.8405H71.1753C71.1597 22.9042 71.1519 22.9696 71.152 23.0352ZM72.4185 22.581L72.5146 22.7704C72.5572 22.8522 72.5794 22.943 72.5795 23.0352V28.1613H77.1216V23.0352C77.1217 22.943 77.1439 22.8522 77.1865 22.7704L77.2826 22.581H72.4185ZM76.8621 23.0352V27.9017H72.839V23.0352C72.8391 22.9696 72.8313 22.9042 72.8157 22.8405H76.8855C76.8699 22.9042 76.862 22.9696 76.8621 23.0352ZM78.1286 22.581L78.2247 22.7704C78.2673 22.8522 78.2895 22.943 78.2896 23.0352V28.1613H82.8317V23.0352C82.8318 22.943 82.854 22.8522 82.8966 22.7704L82.9927 22.581H78.1286ZM82.5722 23.0352V27.9017H78.5491V23.0352C78.5492 22.9696 78.5414 22.9042 78.5258 22.8405H82.5956C82.58 22.9042 82.5721 22.9696 82.5722 23.0352ZM83.8388 22.581L83.9348 22.7704C83.9774 22.8522 83.9996 22.943 83.9997 23.0352V28.1613H88.5418V23.0352C88.5419 22.943 88.5642 22.8522 88.6067 22.7704L88.7028 22.581H83.8388ZM88.2823 23.0352V27.9017H84.2593V23.0352C84.2593 22.9696 84.2515 22.9042 84.2359 22.8405H88.3057C88.2901 22.9042 88.2822 22.9696 88.2823 23.0352ZM38.1579 22.581L38.2539 22.7704C38.2965 22.8522 38.3188 22.943 38.3188 23.0352V28.1613H42.861V23.0352C42.861 22.943 42.8833 22.8522 42.9259 22.7704L43.0219 22.581H38.1579ZM42.6014 23.0352V27.9017H38.5784V23.0352C38.5785 22.9696 38.5706 22.9042 38.555 22.8405H42.6248C42.6092 22.9042 42.6013 22.9696 42.6014 23.0352ZM43.868 22.581L43.9641 22.7704C44.0066 22.8522 44.0289 22.943 44.0289 23.0352V28.1613H48.5711V23.0352C48.5711 22.943 48.5934 22.8522 48.636 22.7704L48.732 22.581H43.868ZM48.3115 23.0352V27.9017H44.2885V23.0352C44.2886 22.9696 44.2807 22.9042 44.2651 22.8405H48.3349C48.3193 22.9042 48.3115 22.9696 48.3115 23.0352ZM49.5781 22.581L49.6742 22.7704C49.7167 22.8522 49.739 22.943 49.7391 23.0352V28.1613H54.2812V23.0352C54.2812 22.943 54.3035 22.8522 54.3461 22.7704L54.4421 22.581H49.5781ZM54.0216 23.0352V27.9017H49.9986V23.0352C49.9987 22.9696 49.9908 22.9042 49.9752 22.8405H54.045C54.0294 22.9042 54.0216 22.9696 54.0216 23.0352ZM55.2882 22.581L55.3843 22.7704C55.4268 22.8522 55.4491 22.943 55.4492 23.0352V28.1613H59.9913V23.0352C59.9914 22.943 60.0136 22.8522 60.0562 22.7704L60.1522 22.581H55.2882ZM59.7317 23.0352V27.9017H55.7087V23.0352C55.7088 22.9696 55.7009 22.9042 55.6853 22.8405H59.7551C59.7395 22.9042 59.7317 22.9696 59.7317 23.0352ZM60.9983 22.581L61.0944 22.7704C61.137 22.8522 61.1592 22.943 61.1593 23.0352V28.1613H65.7014V23.0352C65.7015 22.943 65.7237 22.8522 65.7663 22.7704L65.8624 22.581H60.9983ZM65.4419 23.0352V27.9017H61.4188V23.0352C61.4189 22.9696 61.411 22.9042 61.3954 22.8405H65.4652C65.4496 22.9042 65.4418 22.9696 65.4419 23.0352ZM66.7084 22.581L66.8045 22.7704C66.8471 22.8522 66.8693 22.943 66.8694 23.0352V28.1613H71.4115V23.0352C71.4116 22.943 71.4338 22.8522 71.4764 22.7704L71.5725 22.581H66.7084ZM71.152 23.0352V27.9017H67.1289V23.0352C67.129 22.9696 67.1212 22.9042 67.1055 22.8405H71.1753C71.1597 22.9042 71.1519 22.9696 71.152 23.0352ZM72.4185 22.581L72.5146 22.7704C72.5572 22.8522 72.5794 22.943 72.5795 23.0352V28.1613H77.1216V23.0352C77.1217 22.943 77.1439 22.8522 77.1865 22.7704L77.2826 22.581H72.4185ZM76.8621 23.0352V27.9017H72.839V23.0352C72.8391 22.9696 72.8313 22.9042 72.8157 22.8405H76.8855C76.8699 22.9042 76.862 22.9696 76.8621 23.0352ZM78.1286 22.581L78.2247 22.7704C78.2673 22.8522 78.2895 22.943 78.2896 23.0352V28.1613H82.8317V23.0352C82.8318 22.943 82.854 22.8522 82.8966 22.7704L82.9927 22.581H78.1286ZM82.5722 23.0352V27.9017H78.5491V23.0352C78.5492 22.9696 78.5414 22.9042 78.5258 22.8405H82.5956C82.58 22.9042 82.5721 22.9696 82.5722 23.0352ZM83.8388 22.581L83.9348 22.7704C83.9774 22.8522 83.9996 22.943 83.9997 23.0352V28.1613H88.5418V23.0352C88.5419 22.943 88.5642 22.8522 88.6067 22.7704L88.7028 22.581H83.8388ZM88.2823 23.0352V27.9017H84.2593V23.0352C84.2593 22.9696 84.2515 22.9042 84.2359 22.8405H88.3057C88.2901 22.9042 88.2822 22.9696 88.2823 23.0352ZM38.1579 22.581L38.2539 22.7704C38.2965 22.8522 38.3188 22.943 38.3188 23.0352V28.1613H42.861V23.0352C42.861 22.943 42.8833 22.8522 42.9259 22.7704L43.0219 22.581H38.1579ZM42.6014 23.0352V27.9017H38.5784V23.0352C38.5785 22.9696 38.5706 22.9042 38.555 22.8405H42.6248C42.6092 22.9042 42.6013 22.9696 42.6014 23.0352ZM43.868 22.581L43.9641 22.7704C44.0066 22.8522 44.0289 22.943 44.0289 23.0352V28.1613H48.5711V23.0352C48.5711 22.943 48.5934 22.8522 48.636 22.7704L48.732 22.581H43.868ZM48.3115 23.0352V27.9017H44.2885V23.0352C44.2886 22.9696 44.2807 22.9042 44.2651 22.8405H48.3349C48.3193 22.9042 48.3115 22.9696 48.3115 23.0352ZM49.5781 22.581L49.6742 22.7704C49.7167 22.8522 49.739 22.943 49.7391 23.0352V28.1613H54.2812V23.0352C54.2812 22.943 54.3035 22.8522 54.3461 22.7704L54.4421 22.581H49.5781ZM54.0216 23.0352V27.9017H49.9986V23.0352C49.9987 22.9696 49.9908 22.9042 49.9752 22.8405H54.045C54.0294 22.9042 54.0216 22.9696 54.0216 23.0352ZM55.2882 22.581L55.3843 22.7704C55.4268 22.8522 55.4491 22.943 55.4492 23.0352V28.1613H59.9913V23.0352C59.9914 22.943 60.0136 22.8522 60.0562 22.7704L60.1522 22.581H55.2882ZM59.7317 23.0352V27.9017H55.7087V23.0352C55.7088 22.9696 55.7009 22.9042 55.6853 22.8405H59.7551C59.7395 22.9042 59.7317 22.9696 59.7317 23.0352ZM60.9983 22.581L61.0944 22.7704C61.137 22.8522 61.1592 22.943 61.1593 23.0352V28.1613H65.7014V23.0352C65.7015 22.943 65.7237 22.8522 65.7663 22.7704L65.8624 22.581H60.9983ZM65.4419 23.0352V27.9017H61.4188V23.0352C61.4189 22.9696 61.411 22.9042 61.3954 22.8405H65.4652C65.4496 22.9042 65.4418 22.9696 65.4419 23.0352ZM66.7084 22.581L66.8045 22.7704C66.8471 22.8522 66.8693 22.943 66.8694 23.0352V28.1613H71.4115V23.0352C71.4116 22.943 71.4338 22.8522 71.4764 22.7704L71.5725 22.581H66.7084ZM71.152 23.0352V27.9017H67.1289V23.0352C67.129 22.9696 67.1212 22.9042 67.1055 22.8405H71.1753C71.1597 22.9042 71.1519 22.9696 71.152 23.0352ZM72.4185 22.581L72.5146 22.7704C72.5572 22.8522 72.5794 22.943 72.5795 23.0352V28.1613H77.1216V23.0352C77.1217 22.943 77.1439 22.8522 77.1865 22.7704L77.2826 22.581H72.4185ZM76.8621 23.0352V27.9017H72.839V23.0352C72.8391 22.9696 72.8313 22.9042 72.8157 22.8405H76.8855C76.8699 22.9042 76.862 22.9696 76.8621 23.0352ZM78.1286 22.581L78.2247 22.7704C78.2673 22.8522 78.2895 22.943 78.2896 23.0352V28.1613H82.8317V23.0352C82.8318 22.943 82.854 22.8522 82.8966 22.7704L82.9927 22.581H78.1286ZM82.5722 23.0352V27.9017H78.5491V23.0352C78.5492 22.9696 78.5414 22.9042 78.5258 22.8405H82.5956C82.58 22.9042 82.5721 22.9696 82.5722 23.0352ZM83.8388 22.581L83.9348 22.7704C83.9774 22.8522 83.9996 22.943 83.9997 23.0352V28.1613H88.5418V23.0352C88.5419 22.943 88.5642 22.8522 88.6067 22.7704L88.7028 22.581H83.8388ZM88.2823 23.0352V27.9017H84.2593V23.0352C84.2593 22.9696 84.2515 22.9042 84.2359 22.8405H88.3057C88.2901 22.9042 88.2822 22.9696 88.2823 23.0352Z" fill="#3F3D56"/>
<path d="M53.5871 45.2914H44.0171C43.8155 45.2912 43.6223 45.211 43.4798 45.0685C43.3372 44.9259 43.2571 44.7327 43.2568 44.5311V39.4331C43.2571 39.2315 43.3372 39.0383 43.4798 38.8958C43.6223 38.7532 43.8155 38.6731 44.0171 38.6729H53.5871C53.7887 38.6731 53.9819 38.7532 54.1244 38.8958C54.267 39.0383 54.3471 39.2315 54.3474 39.4331V44.5311C54.3471 44.7327 54.267 44.9259 54.1244 45.0685C53.9819 45.211 53.7887 45.2912 53.5871 45.2914Z" fill="#57CECA"/>
<path d="M68.1506 45.2914H58.5806C58.379 45.2912 58.1858 45.211 58.0432 45.0685C57.9007 44.9259 57.8205 44.7327 57.8203 44.5311V39.4331C57.8205 39.2315 57.9007 39.0383 58.0432 38.8958C58.1858 38.7532 58.379 38.6731 58.5806 38.6729H68.1506C68.3522 38.6731 68.5454 38.7532 68.6879 38.8958C68.8304 39.0383 68.9106 39.2315 68.9108 39.4331V44.5311C68.9106 44.7327 68.8304 44.9259 68.6879 45.0685C68.5454 45.211 68.3522 45.2912 68.1506 45.2914Z" fill="#57CECA"/>
<path d="M82.7141 45.2914H73.144C72.9425 45.2912 72.7492 45.211 72.6067 45.0685C72.4642 44.9259 72.384 44.7327 72.3838 44.5311V39.4331C72.384 39.2315 72.4642 39.0383 72.6067 38.8958C72.7492 38.7532 72.9425 38.6731 73.144 38.6729H82.7141C82.9156 38.6731 83.1089 38.7532 83.2514 38.8958C83.3939 39.0383 83.4741 39.2315 83.4743 39.4331V44.5311C83.4741 44.7327 83.3939 44.9259 83.2514 45.0685C83.1089 45.211 82.9156 45.2912 82.7141 45.2914Z" fill="#57CECA"/>
<path d="M68.284 15.7024H58.7654C58.565 15.7023 58.3728 15.663 58.231 15.5931C58.0892 15.5232 58.0095 15.4285 58.0093 15.3297V12.8307C58.0095 12.7319 58.0892 12.6371 58.231 12.5673C58.3728 12.4974 58.565 12.4581 58.7654 12.458H68.284C68.4845 12.4581 68.6767 12.4974 68.8184 12.5673C68.9602 12.6371 69.0399 12.7319 69.0402 12.8307V15.3297C69.0399 15.4285 68.9602 15.5233 68.8184 15.5931C68.6767 15.663 68.4845 15.7023 68.284 15.7024Z" fill="#FF6584"/>
<path d="M65.1472 9.32096V18.8396C65.1471 19.04 65.1078 19.2322 65.0379 19.374C64.9681 19.5157 64.8733 19.5955 64.7745 19.5957H62.2755C62.1767 19.5955 62.082 19.5157 62.0121 19.374C61.9422 19.2322 61.9029 19.04 61.9028 18.8396V9.32096C61.9029 9.12049 61.9422 8.92829 62.0121 8.78653C62.082 8.64477 62.1767 8.56504 62.2755 8.56481H64.7745C64.8733 8.56504 64.9681 8.64477 65.0379 8.78653C65.1078 8.92829 65.1471 9.12049 65.1472 9.32096Z" fill="#FF6584"/>
<path d="M53.5871 62.2924H44.0171C43.8155 62.2921 43.6223 62.212 43.4798 62.0694C43.3372 61.9269 43.2571 61.7337 43.2568 61.5321V56.4341C43.2571 56.2325 43.3372 56.0393 43.4798 55.8967C43.6223 55.7542 43.8155 55.6741 44.0171 55.6738H53.5871C53.7887 55.6741 53.9819 55.7542 54.1244 55.8967C54.267 56.0393 54.3471 56.2325 54.3474 56.4341V61.5321C54.3471 61.7337 54.267 61.9269 54.1244 62.0694C53.9819 62.212 53.7887 62.2921 53.5871 62.2924Z" fill="#57CECA"/>
<path d="M68.1506 62.2924H58.5806C58.379 62.2921 58.1858 62.212 58.0432 62.0694C57.9007 61.9269 57.8205 61.7337 57.8203 61.5321V56.4341C57.8205 56.2325 57.9007 56.0393 58.0432 55.8967C58.1858 55.7542 58.379 55.6741 58.5806 55.6738H68.1506C68.3522 55.6741 68.5454 55.7542 68.6879 55.8967C68.8304 56.0393 68.9106 56.2325 68.9108 56.4341V61.5321C68.9106 61.7337 68.8304 61.9269 68.6879 62.0694C68.5454 62.212 68.3522 62.2921 68.1506 62.2924Z" fill="#57CECA"/>
<path d="M82.7141 62.2924H73.144C72.9425 62.2921 72.7492 62.212 72.6067 62.0694C72.4642 61.9269 72.384 61.7337 72.3838 61.5321V56.4341C72.384 56.2325 72.4642 56.0393 72.6067 55.8967C72.7492 55.7542 72.9425 55.6741 73.144 55.6738H82.7141C82.9156 55.6741 83.1089 55.7542 83.2514 55.8967C83.3939 56.0393 83.4741 56.2325 83.4743 56.4341V61.5321C83.4741 61.7337 83.3939 61.9269 83.2514 62.0694C83.1089 62.212 82.9156 62.2921 82.7141 62.2924Z" fill="#57CECA"/>
<path d="M53.5871 79.2924H44.0171C43.8155 79.2921 43.6223 79.212 43.4798 79.0694C43.3372 78.9269 43.2571 78.7337 43.2568 78.5321V73.4341C43.2571 73.2325 43.3372 73.0393 43.4798 72.8967C43.6223 72.7542 43.8155 72.6741 44.0171 72.6738H53.5871C53.7887 72.6741 53.9819 72.7542 54.1244 72.8967C54.267 73.0393 54.3471 73.2325 54.3474 73.4341V78.5321C54.3471 78.7337 54.267 78.9269 54.1244 79.0694C53.9819 79.212 53.7887 79.2921 53.5871 79.2924Z" fill="#57CECA"/>
<path d="M68.1506 79.2924H58.5806C58.379 79.2921 58.1858 79.212 58.0432 79.0694C57.9007 78.9269 57.8205 78.7337 57.8203 78.5321V73.4341C57.8205 73.2325 57.9007 73.0393 58.0432 72.8967C58.1858 72.7542 58.379 72.6741 58.5806 72.6738H68.1506C68.3522 72.6741 68.5454 72.7542 68.6879 72.8967C68.8304 73.0393 68.9106 73.2325 68.9108 73.4341V78.5321C68.9106 78.7337 68.8304 78.9269 68.6879 79.0694C68.5454 79.212 68.3522 79.2921 68.1506 79.2924Z" fill="#57CECA"/>
<path d="M82.7141 79.2924H73.144C72.9425 79.2921 72.7492 79.212 72.6067 79.0694C72.4642 78.9269 72.384 78.7337 72.3838 78.5321V73.4341C72.384 73.2325 72.4642 73.0393 72.6067 72.8967C72.7492 72.7542 72.9425 72.6741 73.144 72.6738H82.7141C82.9156 72.6741 83.1089 72.7542 83.2514 72.8967C83.3939 73.0393 83.4741 73.2325 83.4743 73.4341V78.5321C83.4741 78.7337 83.3939 78.9269 83.2514 79.0694C83.1089 79.212 82.9156 79.2921 82.7141 79.2924Z" fill="#57CECA"/>
<path d="M52.0377 45.9454H40.9514C40.6835 45.945 40.4266 45.8385 40.2372 45.649C40.0478 45.4596 39.9412 45.2028 39.9409 44.9348V39.0291C39.9412 38.7612 40.0478 38.5043 40.2372 38.3149C40.4266 38.1254 40.6835 38.0189 40.9514 38.0186H52.0377C52.3056 38.0189 52.5625 38.1254 52.7519 38.3149C52.9414 38.5043 53.0479 38.7612 53.0482 39.0291V44.9348C53.0479 45.2028 52.9414 45.4596 52.7519 45.649C52.5625 45.8385 52.3056 45.9451 52.0377 45.9454ZM40.9514 38.2781C40.7523 38.2783 40.5614 38.3575 40.4206 38.4983C40.2799 38.6391 40.2007 38.83 40.2005 39.0291V44.9348C40.2007 45.1339 40.2799 45.3248 40.4206 45.4656C40.5614 45.6064 40.7523 45.6856 40.9514 45.6858H52.0377C52.2368 45.6856 52.4277 45.6064 52.5685 45.4656C52.7093 45.3248 52.7884 45.1339 52.7887 44.9348V39.0291C52.7884 38.83 52.7093 38.6391 52.5685 38.4983C52.4277 38.3575 52.2368 38.2783 52.0377 38.2781H40.9514Z" fill="#3F3D56"/>
<path d="M68.9088 45.9454H57.8225C57.5546 45.9451 57.2977 45.8385 57.1083 45.649C56.9189 45.4596 56.8123 45.2028 56.812 44.9348V39.0291C56.8123 38.7612 56.9189 38.5043 57.1083 38.3149C57.2977 38.1254 57.5546 38.0189 57.8225 38.0186H68.9088C69.1767 38.0189 69.4336 38.1254 69.623 38.3149C69.8125 38.5043 69.919 38.7612 69.9193 39.0291V44.9348C69.919 45.2028 69.8125 45.4596 69.623 45.649C69.4336 45.8385 69.1767 45.945 68.9088 45.9454ZM57.8225 38.2781C57.6234 38.2783 57.4325 38.3575 57.2917 38.4983C57.151 38.6391 57.0718 38.83 57.0716 39.0291V44.9348C57.0718 45.1339 57.151 45.3248 57.2917 45.4656C57.4325 45.6064 57.6234 45.6856 57.8225 45.6858H68.9088C69.1079 45.6856 69.2988 45.6064 69.4396 45.4656C69.5804 45.3248 69.6595 45.1339 69.6598 44.9348V39.0291C69.6595 38.83 69.5804 38.6391 69.4396 38.4983C69.2988 38.3575 69.1079 38.2783 68.9088 38.2781H57.8225Z" fill="#3F3D56"/>
<path d="M85.7794 45.9454H74.6931C74.4252 45.9451 74.1683 45.8385 73.9789 45.649C73.7895 45.4596 73.6829 45.2028 73.6826 44.9348V39.0291C73.6829 38.7612 73.7895 38.5043 73.9789 38.3149C74.1683 38.1254 74.4252 38.0189 74.6931 38.0186H85.7794C86.0473 38.0189 86.3042 38.1254 86.4936 38.3149C86.6831 38.5043 86.7896 38.7612 86.7899 39.0291V44.9348C86.7896 45.2028 86.6831 45.4596 86.4936 45.649C86.3042 45.8385 86.0473 45.945 85.7794 45.9454ZM74.6931 38.2781C74.494 38.2783 74.3031 38.3575 74.1624 38.4983C74.0216 38.6391 73.9424 38.83 73.9422 39.0291V44.9348C73.9424 45.1339 74.0216 45.3248 74.1624 45.4656C74.3031 45.6064 74.494 45.6856 74.6931 45.6858H85.7794C85.9785 45.6856 86.1694 45.6064 86.3102 45.4656C86.451 45.3248 86.5301 45.1339 86.5304 44.9348V39.0291C86.5301 38.83 86.451 38.6391 86.3102 38.4983C86.1694 38.3575 85.9785 38.2783 85.7794 38.2781H74.6931Z" fill="#3F3D56"/>
<path d="M52.0377 62.9463H40.9514C40.6835 62.946 40.4266 62.8395 40.2372 62.65C40.0478 62.4606 39.9412 62.2037 39.9409 61.9358V56.03C39.9412 55.7621 40.0478 55.5053 40.2372 55.3159C40.4266 55.1264 40.6835 55.0198 40.9514 55.0195H52.0377C52.3056 55.0198 52.5625 55.1264 52.7519 55.3158C52.9414 55.5053 53.0479 55.7621 53.0482 56.03V61.9358C53.0479 62.2037 52.9414 62.4606 52.7519 62.65C52.5625 62.8395 52.3056 62.946 52.0377 62.9463ZM40.9514 55.2791C40.7523 55.2793 40.5614 55.3585 40.4206 55.4993C40.2799 55.6401 40.2007 55.8309 40.2005 56.03V61.9358C40.2007 62.1349 40.2799 62.3258 40.4206 62.4666C40.5614 62.6074 40.7523 62.6866 40.9514 62.6868H52.0377C52.2368 62.6866 52.4277 62.6074 52.5685 62.4666C52.7093 62.3258 52.7884 62.1349 52.7887 61.9358V56.03C52.7884 55.8309 52.7093 55.6401 52.5685 55.4993C52.4277 55.3585 52.2368 55.2793 52.0377 55.2791H40.9514Z" fill="#3F3D56"/>
<path d="M68.9088 62.9463H57.8225C57.5546 62.946 57.2977 62.8395 57.1083 62.65C56.9189 62.4606 56.8123 62.2037 56.812 61.9358V56.03C56.8123 55.7621 56.9189 55.5053 57.1083 55.3158C57.2977 55.1264 57.5546 55.0198 57.8225 55.0195H68.9088C69.1767 55.0198 69.4336 55.1264 69.623 55.3158C69.8125 55.5053 69.919 55.7621 69.9193 56.03V61.9358C69.919 62.2037 69.8125 62.4606 69.623 62.65C69.4336 62.8395 69.1767 62.946 68.9088 62.9463ZM57.8225 55.2791C57.6234 55.2793 57.4325 55.3585 57.2917 55.4993C57.151 55.6401 57.0718 55.8309 57.0716 56.03V61.9358C57.0718 62.1349 57.151 62.3258 57.2917 62.4666C57.4325 62.6074 57.6234 62.6866 57.8225 62.6868H68.9088C69.1079 62.6866 69.2988 62.6074 69.4396 62.4666C69.5804 62.3258 69.6595 62.1349 69.6598 61.9358V56.03C69.6595 55.8309 69.5804 55.6401 69.4396 55.4993C69.2988 55.3585 69.1079 55.2793 68.9088 55.2791H57.8225Z" fill="#3F3D56"/>
<path d="M85.7794 62.9463H74.6931C74.4252 62.946 74.1683 62.8395 73.9789 62.65C73.7895 62.4606 73.6829 62.2037 73.6826 61.9358V56.03C73.6829 55.7621 73.7895 55.5053 73.9789 55.3158C74.1683 55.1264 74.4252 55.0198 74.6931 55.0195H85.7794C86.0473 55.0198 86.3042 55.1264 86.4936 55.3158C86.6831 55.5053 86.7896 55.7621 86.7899 56.03V61.9358C86.7896 62.2037 86.6831 62.4606 86.4936 62.65C86.3042 62.8395 86.0473 62.946 85.7794 62.9463ZM74.6931 55.2791C74.494 55.2793 74.3031 55.3585 74.1624 55.4993C74.0216 55.6401 73.9424 55.8309 73.9422 56.03V61.9358C73.9424 62.1349 74.0216 62.3258 74.1624 62.4666C74.3031 62.6074 74.494 62.6866 74.6931 62.6868H85.7794C85.9785 62.6866 86.1694 62.6074 86.3102 62.4666C86.451 62.3258 86.5301 62.1349 86.5304 61.9358V56.03C86.5301 55.8309 86.451 55.6401 86.3102 55.4993C86.1694 55.3585 85.9785 55.2793 85.7794 55.2791H74.6931Z" fill="#3F3D56"/>
<path d="M52.0377 79.9463H40.9514C40.6835 79.946 40.4266 79.8395 40.2372 79.65C40.0478 79.4606 39.9412 79.2037 39.9409 78.9358V73.03C39.9412 72.7621 40.0478 72.5053 40.2372 72.3159C40.4266 72.1264 40.6835 72.0198 40.9514 72.0195H52.0377C52.3056 72.0198 52.5625 72.1264 52.7519 72.3158C52.9414 72.5053 53.0479 72.7621 53.0482 73.03V78.9358C53.0479 79.2037 52.9414 79.4606 52.7519 79.65C52.5625 79.8395 52.3056 79.946 52.0377 79.9463ZM40.9514 72.2791C40.7523 72.2793 40.5614 72.3585 40.4206 72.4993C40.2799 72.6401 40.2007 72.8309 40.2005 73.03V78.9358C40.2007 79.1349 40.2799 79.3258 40.4206 79.4666C40.5614 79.6074 40.7523 79.6866 40.9514 79.6868H52.0377C52.2368 79.6866 52.4277 79.6074 52.5685 79.4666C52.7093 79.3258 52.7884 79.1349 52.7887 78.9358V73.03C52.7884 72.8309 52.7093 72.6401 52.5685 72.4993C52.4277 72.3585 52.2368 72.2793 52.0377 72.2791H40.9514Z" fill="#3F3D56"/>
<path d="M68.9088 79.9463H57.8225C57.5546 79.946 57.2977 79.8395 57.1083 79.65C56.9189 79.4606 56.8123 79.2037 56.812 78.9358V73.03C56.8123 72.7621 56.9189 72.5053 57.1083 72.3158C57.2977 72.1264 57.5546 72.0198 57.8225 72.0195H68.9088C69.1767 72.0198 69.4336 72.1264 69.623 72.3158C69.8125 72.5053 69.919 72.7621 69.9193 73.03V78.9358C69.919 79.2037 69.8125 79.4606 69.623 79.65C69.4336 79.8395 69.1767 79.946 68.9088 79.9463ZM57.8225 72.2791C57.6234 72.2793 57.4325 72.3585 57.2917 72.4993C57.151 72.6401 57.0718 72.8309 57.0716 73.03V78.9358C57.0718 79.1349 57.151 79.3258 57.2917 79.4666C57.4325 79.6074 57.6234 79.6866 57.8225 79.6868H68.9088C69.1079 79.6866 69.2988 79.6074 69.4396 79.4666C69.5804 79.3258 69.6595 79.1349 69.6598 78.9358V73.03C69.6595 72.8309 69.5804 72.6401 69.4396 72.4993C69.2988 72.3585 69.1079 72.2793 68.9088 72.2791H57.8225Z" fill="#3F3D56"/>
<path d="M85.7794 79.9463H74.6931C74.4252 79.946 74.1683 79.8395 73.9789 79.65C73.7895 79.4606 73.6829 79.2037 73.6826 78.9358V73.03C73.6829 72.7621 73.7895 72.5053 73.9789 72.3158C74.1683 72.1264 74.4252 72.0198 74.6931 72.0195H85.7794C86.0473 72.0198 86.3042 72.1264 86.4936 72.3158C86.6831 72.5053 86.7896 72.7621 86.7899 73.03V78.9358C86.7896 79.2037 86.6831 79.4606 86.4936 79.65C86.3042 79.8395 86.0473 79.946 85.7794 79.9463ZM74.6931 72.2791C74.494 72.2793 74.3031 72.3585 74.1624 72.4993C74.0216 72.6401 73.9424 72.8309 73.9422 73.03V78.9358C73.9424 79.1349 74.0216 79.3258 74.1624 79.4666C74.3031 79.6074 74.494 79.6866 74.6931 79.6868H85.7794C85.9785 79.6866 86.1694 79.6074 86.3102 79.4666C86.451 79.3258 86.5301 79.1349 86.5304 78.9358V73.03C86.5301 72.8309 86.451 72.6401 86.3102 72.4993C86.1694 72.3585 85.9785 72.2793 85.7794 72.2791H74.6931Z" fill="#3F3D56"/>
<path d="M130.943 99.992H0.129775C0.0953567 99.992 0.0623477 99.9783 0.0380102 99.954C0.0136726 99.9296 0 99.8966 0 99.8622C0 99.8278 0.0136726 99.7948 0.0380102 99.7704C0.0623477 99.7461 0.0953567 99.7324 0.129775 99.7324H130.943C130.978 99.7324 131.011 99.7461 131.035 99.7704C131.059 99.7948 131.073 99.8278 131.073 99.8622C131.073 99.8966 131.059 99.9296 131.035 99.954C131.011 99.9783 130.978 99.992 130.943 99.992Z" fill="#3F3D56"/>
<path d="M69.9194 87.4312C69.9229 87.135 69.8087 86.8495 69.6019 86.6376C69.395 86.4256 69.1124 86.3044 68.8163 86.3008H63.3657V99.7325H69.9194V87.4312Z" fill="#3F3D56"/>
<path d="M63.4953 99.6022H56.6821V87.4682C56.6825 87.1414 56.8125 86.828 57.0436 86.5969C57.2748 86.3657 57.5881 86.2357 57.915 86.2354H63.4953V99.6022ZM56.9417 99.3426H63.2358V86.4949H57.915C57.6569 86.4952 57.4095 86.5978 57.2271 86.7803C57.0446 86.9628 56.942 87.2102 56.9417 87.4682V99.3426Z" fill="#3F3D56"/>
<path d="M57.5256 93.8275C57.7406 93.8275 57.9149 93.6532 57.9149 93.4382C57.9149 93.2231 57.7406 93.0488 57.5256 93.0488C57.3105 93.0488 57.1362 93.2231 57.1362 93.4382C57.1362 93.6532 57.3105 93.8275 57.5256 93.8275Z" fill="#3F3D56"/>
</svg>
