<svg width="888" height="619" viewBox="0 0 888 619" fill="none" xmlns="http://www.w3.org/2000/svg">
<g clip-path="url(#clip0)">
<path d="M741.957 95.0431L673.455 95.7105C670.235 79.8591 659.416 38.2677 669.159 26.9232C669.603 22.6534 671.677 18.7195 674.949 15.9402C678.22 13.1609 682.438 11.7505 686.723 12.0026C697.341 -4.6172 715.025 -2.12184 726.978 8.25797C739.008 12.4087 743.543 19.7828 741.957 29.7897C750.865 37.5877 752.509 47.0751 748.51 57.8746L741.957 95.0431Z" fill="#2F2E41"/>
<path d="M735.362 137.243L685.94 130.4L676.055 115.953C689.671 106.921 694.489 94.306 688.221 77.1754L722.436 76.415C720.833 91.6701 725.878 103.482 739.924 110.631L735.362 137.243Z" fill="#FFB9B9"/>
<path d="M674.255 583.02L672.365 608.855C672.28 610.024 672.445 611.199 672.851 612.299C673.256 613.399 673.892 614.4 674.716 615.234C675.54 616.068 676.533 616.717 677.628 617.136C678.723 617.555 679.895 617.735 681.065 617.664L694.335 616.861C694.95 616.823 695.549 616.651 696.09 616.356C696.63 616.061 697.1 615.65 697.464 615.154C697.828 614.657 698.078 614.086 698.197 613.481C698.316 612.877 698.3 612.254 698.15 611.656L690.784 582.193L674.255 583.02Z" fill="#E6E6E6"/>
<path d="M717.216 582.193L709.85 611.656C709.7 612.254 709.685 612.877 709.803 613.481C709.922 614.086 710.172 614.657 710.536 615.154C710.901 615.65 711.37 616.061 711.91 616.356C712.451 616.651 713.05 616.823 713.665 616.861L726.935 617.664C728.105 617.735 729.277 617.555 730.373 617.136C731.468 616.717 732.46 616.068 733.284 615.234C734.108 614.4 734.744 613.399 735.15 612.299C735.555 611.199 735.72 610.024 735.635 608.855L733.745 583.02L717.216 582.193Z" fill="#E6E6E6"/>
<path d="M734.602 586.606L716.694 584.809L698.866 394.239L692.128 584.195L674.534 583.565L644.881 320.485H758.172L734.602 586.606Z" fill="#57CECA"/>
<path d="M707.229 89.3402C726.126 89.3402 741.445 74.0214 741.445 55.1247C741.445 36.228 726.126 20.9092 707.229 20.9092C688.332 20.9092 673.014 36.228 673.014 55.1247C673.014 74.0214 688.332 89.3402 707.229 89.3402Z" fill="#FFB9B9"/>
<path d="M774.9 326.568L636.517 328.089C657.054 249.908 669.339 177.284 647.922 127.358L682.138 110.63C698.636 127.838 717.009 126.064 736.883 109.109L769.577 117.473C763.978 182.944 766.488 253.064 774.9 326.568Z" fill="#57CECA"/>
<path d="M598.5 245.971L684.419 280.187L703.628 285.836C704.488 286.089 705.389 286.166 706.279 286.061C707.168 285.957 708.027 285.673 708.804 285.228C709.582 284.784 710.261 284.186 710.802 283.472C711.342 282.758 711.733 281.942 711.95 281.073C712.331 279.55 712.16 277.94 711.467 276.531C710.775 275.122 709.606 274.003 708.167 273.373L688.221 267.261L628.153 232.285L640.699 199.21L614.467 185.144L598.5 245.971Z" fill="#FFB9B9"/>
<path d="M599.26 183.623C615.607 190 628.609 200.884 638.798 215.557L670.733 169.176L647.922 127.357L599.26 183.623Z" fill="#57CECA"/>
<path d="M745.792 49.5799C731.905 46.0018 718.252 45.5105 704.979 50.0491C696.525 54.1438 686.372 53.7666 675.08 50.3927V16.2559L736.039 17.8814L745.792 49.5799Z" fill="#2F2E41"/>
<path d="M684.134 206.106C681.447 206.109 678.871 207.178 676.971 209.078C675.072 210.978 674.003 213.554 674 216.24L678 299.973C678.003 302.659 679.072 305.235 680.971 307.135C682.871 309.035 685.447 310.103 688.134 310.106H733.866C736.553 310.103 739.129 309.035 741.029 307.135C742.928 305.235 743.997 302.659 744 299.973L748 216.24C747.997 213.554 746.928 210.978 745.029 209.078C743.129 207.178 740.553 206.109 737.866 206.106H684.134Z" fill="#3F3D56"/>
<path d="M813.89 239.646L739 269.466L733.35 271.716C733.17 271.786 732.99 271.846 732.8 271.906L713.87 277.476C711.45 278.186 708.1 274.926 706.14 272.676C705.17 271.591 704.62 270.195 704.591 268.74C704.561 267.285 705.054 265.868 705.98 264.746C706.242 264.444 706.529 264.166 706.84 263.916C707.57 263.348 708.429 262.97 709.34 262.816L728.25 259.096C728.929 258.963 729.58 258.719 730.18 258.376L739 253.236L784.79 226.576C786.064 225.836 787.033 224.667 787.526 223.279C788.018 221.891 788.002 220.373 787.48 218.996L778.74 195.946C778.204 194.535 778.2 192.978 778.728 191.565C779.256 190.152 780.281 188.979 781.61 188.266L796.09 180.506C796.918 180.062 797.835 179.811 798.773 179.773C799.712 179.735 800.646 179.91 801.507 180.285C802.368 180.661 803.132 181.227 803.742 181.94C804.353 182.654 804.793 183.497 805.03 184.406L817.6 232.286C817.987 233.754 817.823 235.313 817.139 236.669C816.456 238.024 815.3 239.083 813.89 239.646Z" fill="#FFB9B9"/>
<path d="M818.24 175.26C801.893 181.637 788.891 192.521 778.702 207.194L746.767 160.813L769.577 117.474L818.24 175.26Z" fill="#57CECA"/>
<path d="M730 85.579C715.032 91.8051 699.337 91.5523 683 85.579C687.754 77.465 680.648 71.1101 677 62.9192L738 61.1064C733.335 68.2221 726.452 76.629 730 85.579Z" fill="white"/>
<path d="M737.354 62.4603L736.646 61.7533L737.646 60.7533L743.62 53.7812L744.38 54.4313L738.38 61.4313L737.354 62.4603Z" fill="white"/>
<path d="M672.82 58.2216L672.18 58.9902L678.18 63.9902L678.82 63.2216L672.82 58.2216Z" fill="white"/>
<path d="M739.078 68.3395L728.575 84.8379L729.419 85.375L739.921 68.8766L739.078 68.3395Z" fill="white"/>
<path d="M673.922 68.338L673.078 68.875L683.578 85.375L684.422 84.838L673.922 68.338Z" fill="white"/>
<path d="M741 251.821V269.938L734.693 272.449C734.492 272.528 734.291 272.594 734.079 272.661L712.949 278.879C710.248 279.671 706.508 276.032 704.32 273.521C703.237 272.311 702.624 270.752 702.591 269.128C702.558 267.504 703.108 265.922 704.142 264.669C704.434 264.333 704.755 264.022 705.102 263.743C705.916 263.109 706.875 262.687 707.892 262.515L729 258.362C729.758 258.214 730.485 257.942 731.155 257.559L741 251.821Z" fill="white"/>
<path d="M750.14 187.202H746.526C746.526 136.091 736.002 100.473 725.747 100.473L724.844 96.8594C734.041 96.8594 739.904 111.683 743.203 124.12C747.676 140.979 750.14 163.382 750.14 187.202Z" fill="#3F3D56"/>
<path d="M667.025 174.554H663.411C663.411 127.745 674.007 98.666 689.61 98.666L688.707 102.28C677.914 102.28 667.025 124.628 667.025 174.554Z" fill="#3F3D56"/>
<path d="M748.333 197.14C753.323 197.14 757.367 193.095 757.367 188.106C757.367 183.116 753.323 179.071 748.333 179.071C743.344 179.071 739.299 183.116 739.299 188.106C739.299 193.095 743.344 197.14 748.333 197.14Z" fill="#3F3D56"/>
<path d="M652.57 196.236H648.956C648.956 183.284 656.251 172.747 665.218 172.747V176.361C658.243 176.361 652.57 185.277 652.57 196.236Z" fill="#3F3D56"/>
<path d="M681.479 196.236H677.866C677.866 185.277 672.192 176.361 665.218 176.361V172.747C674.185 172.747 681.479 183.284 681.479 196.236Z" fill="#3F3D56"/>
<path d="M679.673 200.754C681.669 200.754 683.286 199.136 683.286 197.14C683.286 195.144 681.669 193.526 679.673 193.526C677.677 193.526 676.059 195.144 676.059 197.14C676.059 199.136 677.677 200.754 679.673 200.754Z" fill="#3F3D56"/>
<path d="M650.763 200.754C652.759 200.754 654.377 199.136 654.377 197.14C654.377 195.144 652.759 193.526 650.763 193.526C648.767 193.526 647.149 195.144 647.149 197.14C647.149 199.136 648.767 200.754 650.763 200.754Z" fill="#3F3D56"/>
<path d="M215.271 75.6979L151.805 86.4454C150.237 86.7129 148.625 86.3893 147.282 85.5373C145.939 84.6852 144.96 83.3652 144.534 81.8328C139.949 65.2833 130.362 43.694 139.67 32.8562C140.144 28.2968 142.359 24.0959 145.852 21.1281C149.346 18.1603 153.849 16.6542 158.426 16.9233C169.763 -0.823993 188.648 1.84066 201.411 12.9247C214.257 17.357 219.1 25.2313 217.406 35.9171C222.956 40.7746 225.865 46.2458 226.478 52.251C226.769 55.5928 226.344 58.9582 225.231 62.1226C224.118 65.2871 222.343 68.1777 220.025 70.6018L215.271 75.6979Z" fill="#2F2E41"/>
<path d="M205.403 125.662L156.203 122.768C161.024 111.701 162.95 101.044 161.026 90.9326H197.685C197.602 98.6965 201.466 112.127 205.403 125.662Z" fill="#9F616A"/>
<path d="M146.18 580.289L144.162 607.877C144.07 609.125 144.247 610.379 144.68 611.554C145.113 612.729 145.792 613.798 146.672 614.688C147.552 615.579 148.612 616.272 149.781 616.719C150.95 617.167 152.202 617.359 153.452 617.284L167.622 616.425C168.278 616.385 168.918 616.201 169.496 615.886C170.073 615.571 170.574 615.133 170.963 614.603C171.352 614.072 171.619 613.462 171.746 612.817C171.873 612.171 171.855 611.506 171.696 610.868L163.83 579.406L146.18 580.289Z" fill="#E6E6E6"/>
<path d="M192.055 579.406L184.189 610.868C184.029 611.506 184.012 612.171 184.139 612.817C184.266 613.462 184.533 614.072 184.922 614.602C185.311 615.133 185.812 615.571 186.389 615.886C186.967 616.201 187.606 616.385 188.263 616.425L202.433 617.284C203.683 617.359 204.935 617.167 206.104 616.719C207.273 616.272 208.333 615.579 209.213 614.688C210.093 613.798 210.772 612.729 211.205 611.554C211.638 610.379 211.815 609.125 211.723 607.877L209.705 580.289L192.055 579.406Z" fill="#E6E6E6"/>
<path d="M210.62 584.119L191.498 582.2L172.46 378.701L165.265 581.544L146.478 580.871L114.813 299.944H235.79L210.62 584.119Z" fill="#57CECA"/>
<path d="M180.323 102.644C200.502 102.644 216.86 86.2857 216.86 66.1071C216.86 45.9284 200.502 29.5703 180.323 29.5703C160.144 29.5703 143.786 45.9284 143.786 66.1071C143.786 86.2857 160.144 102.644 180.323 102.644Z" fill="#9F616A"/>
<path d="M221.502 48.6528C206.673 46.0702 192.093 45.7157 177.92 48.9914C168.892 51.9469 158.05 51.6746 145.993 49.2394V24.6006L211.087 25.7739L221.502 48.6528Z" fill="#2F2E41"/>
<path d="M204.639 95.4228C188.655 102.071 171.895 101.801 154.45 95.4228C159.526 86.7583 151.938 79.9724 148.043 71.2258L213.181 69.29C208.2 76.8884 200.85 85.8656 204.639 95.4228Z" fill="white"/>
<path d="M143.558 66.2362L142.917 67.0049L149.324 72.3438L149.965 71.5751L143.558 66.2362Z" fill="white"/>
<path d="M214.362 77.0315L203.146 94.6494L203.99 95.1865L215.205 77.5686L214.362 77.0315Z" fill="white"/>
<path d="M144.726 77.0304L143.882 77.5674L155.095 95.1869L155.938 94.65L144.726 77.0304Z" fill="white"/>
<path d="M110.861 232.746L82.8848 215.381L106.744 145.502C109.405 138.292 114.502 132.238 121.154 128.387L129.191 123.733L129.89 194.228L110.861 232.746Z" fill="#57CECA"/>
<path d="M231.789 266.684L227.65 231.232C227.429 212.519 230.612 194.427 238.203 177.757L242.062 125.663L199.615 108.298C199.485 109.163 199.374 110.027 199.25 110.892L179.356 120.839L159.954 116.43L160.061 110.227L121.473 127.592C134.234 186.92 127.274 248.53 105.329 321.301L156.166 335.202L156.589 310.791L201.895 307.555C202.362 315.475 202.737 323.254 202.955 330.861C228.52 340.273 229.398 340.117 252.691 326.64C243.415 307.137 236.07 286.843 231.789 266.684Z" fill="#57CECA"/>
<path d="M297.051 224.063L271.004 215.381L229.34 166.878L242.062 125.663L299.945 206.699L297.051 224.063Z" fill="#57CECA"/>
<path d="M215.419 261.614C215.845 263.484 216.996 265.109 218.618 266.132C220.241 267.156 222.203 267.494 224.074 267.073L246.185 262.065L242.989 247.952L220.878 252.958C219.007 253.383 217.38 254.533 216.357 256.156C215.333 257.779 214.996 259.742 215.419 261.614V261.614Z" fill="#E6E6E6"/>
<path d="M235.31 245.287L247.851 268.44C268.945 262.557 287.227 244.009 304.769 222.134L299.945 206.698L270.039 214.416L235.31 245.287Z" fill="#57CECA"/>
<path d="M71.79 172.661L95.866 176.96L150.897 255.207L121.662 248.328L71.79 172.661Z" fill="#E6E6E6"/>
<path d="M67.5199 171.703C67.153 171.709 66.7943 171.813 66.4814 172.004C66.1685 172.196 65.9128 172.468 65.7411 172.792C65.5693 173.116 65.4879 173.481 65.5052 173.847C65.5226 174.214 65.6381 174.569 65.8396 174.876L117.279 252.922C117.566 253.358 118.009 253.668 118.518 253.787L142.451 259.418C142.855 259.513 143.277 259.483 143.664 259.332C144.05 259.181 144.381 258.917 144.613 258.573C144.845 258.23 144.967 257.824 144.964 257.409C144.96 256.995 144.83 256.591 144.592 256.252L88.1143 175.949C87.9611 175.73 87.7663 175.543 87.5411 175.4C87.3158 175.257 87.0645 175.159 86.8015 175.113L67.9057 171.738C67.7783 171.715 67.6493 171.703 67.5199 171.703Z" fill="#3F3D56"/>
<path d="M99.6079 227.505L101.038 241.905L123.597 239.666C125.507 239.476 127.263 238.536 128.479 237.052C129.695 235.568 130.272 233.661 130.083 231.751C129.893 229.842 128.953 228.086 127.469 226.869C125.984 225.653 124.078 225.076 122.168 225.266L99.6079 227.505Z" fill="#E6E6E6"/>
<path d="M79.9907 225.838C80.0235 230.748 81.9955 235.446 85.4772 238.909C88.9588 242.371 93.6677 244.317 98.578 244.323H102.287L104.988 221.817L82.6277 213.768L79.9907 225.838Z" fill="#57CECA"/>
<path d="M211.399 71.7796L210.692 71.0726L211.76 70.0046L218.141 62.5576L218.9 63.2076L212.493 70.6826L211.399 71.7796Z" fill="white"/>
<path d="M888 616.106H0V618.106H888V616.106Z" fill="#3F3D56"/>
<path d="M339 615.106H549V360.39C549 346.902 535.715 335.93 519.386 335.93H368.614C352.285 335.93 339 346.902 339 360.39V615.106Z" fill="#E6E6E6"/>
<path d="M355 604.573H533V388.671C533 377.238 521.739 367.938 507.898 367.938H380.102C366.26 367.938 355 377.238 355 388.671V604.573Z" fill="white"/>
<path d="M337.414 316.106C332.223 316.106 328 319.595 328 323.882V346.326C328 350.613 332.223 354.101 337.414 354.101H550.587C555.777 354.101 560 350.613 560 346.326V323.882C560 319.595 555.777 316.106 550.587 316.106H337.414Z" fill="#3F3D56"/>
<path d="M381.181 576.889C378.744 576.896 376.409 577.867 374.686 579.59C372.963 581.313 371.992 583.648 371.984 586.085C371.992 588.522 372.963 590.857 374.686 592.58C376.409 594.304 378.744 595.275 381.181 595.282H398.395V576.889H381.181Z" fill="#3F3D56"/>
<path d="M414.194 576.889H397.452V595.282H414.194C416.631 595.275 418.966 594.304 420.689 592.581C422.413 590.857 423.384 588.522 423.391 586.085C423.384 583.648 422.413 581.313 420.689 579.59C418.966 577.867 416.631 576.896 414.194 576.889Z" fill="#57CECA"/>
<path opacity="0.2" d="M420.195 579.141C421.646 580.804 422.446 582.935 422.448 585.142C422.441 587.579 421.469 589.914 419.746 591.637C418.023 593.36 415.688 594.331 413.251 594.338H397.452V595.282H414.194C416.631 595.275 418.966 594.303 420.689 592.58C422.413 590.857 423.384 588.522 423.391 586.085C423.389 584.766 423.102 583.463 422.551 582.264C421.999 581.066 421.196 580 420.195 579.141Z" fill="black"/>
<path d="M458.862 438.363C457.185 436.594 454.876 435.561 452.44 435.489C450.005 435.417 447.639 436.312 445.861 437.979C444.093 439.656 443.06 441.964 442.988 444.4C442.916 446.836 443.811 449.201 445.477 450.979L457.285 463.505L470.669 450.889L458.862 438.363Z" fill="#3F3D56"/>
<path d="M481.507 462.385L470.022 450.202L456.638 462.819L468.122 475.002C469.799 476.77 472.108 477.803 474.544 477.875C476.979 477.947 479.345 477.052 481.123 475.386C482.891 473.709 483.924 471.4 483.996 468.965C484.068 466.529 483.173 464.163 481.507 462.385Z" fill="#57CECA"/>
<path opacity="0.2" d="M483.984 468.297C483.769 470.493 482.767 472.537 481.162 474.052C479.384 475.719 477.019 476.614 474.583 476.542C472.147 476.47 469.839 475.437 468.162 473.668L457.325 462.172L456.638 462.819L468.122 475.002C469.799 476.77 472.108 477.803 474.544 477.875C476.979 477.947 479.345 477.052 481.123 475.386C482.081 474.479 482.833 473.377 483.327 472.154C483.821 470.93 484.045 469.615 483.984 468.297Z" fill="black"/>
<path d="M409.862 467.363C408.185 465.594 405.876 464.561 403.44 464.489C401.005 464.417 398.639 465.312 396.861 466.979C395.093 468.656 394.06 470.964 393.988 473.4C393.916 475.836 394.811 478.201 396.477 479.979L408.285 492.505L421.669 479.889L409.862 467.363Z" fill="#3F3D56"/>
<path d="M432.507 491.385L421.022 479.202L407.638 491.819L419.122 504.002C420.799 505.77 423.108 506.803 425.544 506.875C427.979 506.947 430.345 506.052 432.123 504.386C433.891 502.709 434.924 500.4 434.996 497.965C435.068 495.529 434.173 493.163 432.507 491.385Z" fill="#57CECA"/>
<path opacity="0.2" d="M434.984 497.297C434.769 499.493 433.767 501.537 432.162 503.052C430.384 504.719 428.019 505.614 425.583 505.542C423.147 505.47 420.839 504.437 419.162 502.668L408.325 491.172L407.638 491.819L419.122 504.002C420.799 505.77 423.108 506.803 425.544 506.875C427.979 506.947 430.345 506.052 432.123 504.386C433.081 503.479 433.833 502.377 434.327 501.154C434.821 499.93 435.045 498.615 434.984 497.297Z" fill="black"/>
<path d="M458.862 494.363C457.185 492.594 454.876 491.561 452.44 491.489C450.005 491.417 447.639 492.312 445.861 493.979C444.093 495.656 443.06 497.964 442.988 500.4C442.916 502.836 443.811 505.201 445.477 506.979L457.285 519.505L470.669 506.889L458.862 494.363Z" fill="#3F3D56"/>
<path d="M481.507 518.385L470.022 506.202L456.638 518.819L468.122 531.002C469.799 532.77 472.108 533.803 474.544 533.875C476.979 533.947 479.345 533.052 481.123 531.386C482.891 529.709 483.924 527.4 483.996 524.965C484.068 522.529 483.173 520.163 481.507 518.385Z" fill="#57CECA"/>
<path opacity="0.2" d="M483.984 524.297C483.769 526.493 482.767 528.537 481.162 530.052C479.384 531.719 477.019 532.614 474.583 532.542C472.147 532.47 469.839 531.437 468.162 529.668L457.325 518.172L456.638 518.819L468.122 531.002C469.799 532.77 472.108 533.803 474.544 533.875C476.979 533.947 479.345 533.052 481.123 531.386C482.081 530.479 482.833 529.377 483.327 528.154C483.821 526.93 484.045 525.615 483.984 524.297Z" fill="black"/>
<path d="M488.754 551.83C490.502 550.132 491.507 547.811 491.549 545.374C491.591 542.938 490.668 540.583 488.98 538.826C487.282 537.078 484.961 536.073 482.524 536.031C480.088 535.988 477.733 536.912 475.976 538.6L463.594 550.559L476.372 563.789L488.754 551.83Z" fill="#3F3D56"/>
<path d="M465.008 574.765L477.051 563.133L464.273 549.903L452.23 561.535C450.482 563.233 449.477 565.554 449.435 567.99C449.393 570.427 450.316 572.781 452.004 574.539C453.702 576.287 456.023 577.292 458.46 577.334C460.896 577.376 463.25 576.453 465.008 574.765Z" fill="#57CECA"/>
<path opacity="0.2" d="M459.127 577.314C456.929 577.125 454.872 576.148 453.338 574.562C451.65 572.804 450.726 570.45 450.769 568.013C450.811 565.577 451.816 563.256 453.564 561.558L464.928 550.582L464.273 549.903L452.23 561.535C450.482 563.233 449.477 565.554 449.435 567.99C449.393 570.427 450.316 572.781 452.004 574.539C452.922 575.486 454.034 576.225 455.263 576.703C456.492 577.182 457.81 577.39 459.127 577.314Z" fill="black"/>
<path d="M422.754 522.83C424.502 521.132 425.507 518.811 425.549 516.374C425.591 513.938 424.668 511.583 422.98 509.826C421.282 508.078 418.961 507.073 416.524 507.031C414.088 506.988 411.733 507.912 409.976 509.6L397.594 521.559L410.372 534.789L422.754 522.83Z" fill="#3F3D56"/>
<path d="M399.008 545.765L411.051 534.133L398.273 520.903L386.23 532.535C384.482 534.233 383.477 536.554 383.435 538.99C383.393 541.427 384.316 543.781 386.004 545.539C387.702 547.287 390.023 548.292 392.46 548.334C394.896 548.376 397.25 547.453 399.008 545.765Z" fill="#57CECA"/>
<path opacity="0.2" d="M393.127 548.314C390.929 548.125 388.872 547.148 387.338 545.562C385.65 543.804 384.726 541.45 384.769 539.013C384.811 536.577 385.816 534.256 387.564 532.558L398.928 521.582L398.273 520.903L386.23 532.535C384.482 534.233 383.477 536.554 383.435 538.99C383.393 541.427 384.316 543.781 386.004 545.539C386.922 546.486 388.034 547.225 389.263 547.703C390.492 548.182 391.81 548.39 393.127 548.314Z" fill="black"/>
<path d="M516.754 487.83C518.502 486.132 519.507 483.811 519.549 481.374C519.591 478.938 518.668 476.583 516.98 474.826C515.282 473.078 512.961 472.073 510.524 472.031C508.088 471.988 505.733 472.912 503.976 474.6L491.594 486.559L504.372 499.789L516.754 487.83Z" fill="#3F3D56"/>
<path d="M493.008 510.765L505.051 499.133L492.273 485.903L480.23 497.535C478.482 499.233 477.477 501.554 477.435 503.99C477.393 506.427 478.316 508.781 480.004 510.539C481.702 512.287 484.023 513.292 486.46 513.334C488.896 513.376 491.25 512.453 493.008 510.765Z" fill="#57CECA"/>
<path opacity="0.2" d="M487.127 513.314C484.929 513.125 482.872 512.148 481.338 510.562C479.65 508.804 478.726 506.45 478.769 504.013C478.811 501.577 479.816 499.256 481.564 497.558L492.928 486.582L492.273 485.903L480.23 497.535C478.482 499.233 477.477 501.554 477.435 503.99C477.393 506.427 478.316 508.781 480.004 510.539C480.922 511.486 482.034 512.225 483.263 512.703C484.492 513.182 485.81 513.39 487.127 513.314Z" fill="black"/>
<path d="M495.862 560.363C494.185 558.594 491.876 557.561 489.44 557.489C487.005 557.417 484.639 558.312 482.861 559.979C481.093 561.656 480.06 563.964 479.988 566.4C479.916 568.836 480.811 571.201 482.477 572.979L494.285 585.505L507.669 572.889L495.862 560.363Z" fill="#3F3D56"/>
<path d="M518.507 584.385L507.022 572.202L493.638 584.819L505.122 597.002C506.799 598.77 509.108 599.803 511.544 599.875C513.979 599.947 516.345 599.052 518.123 597.386C519.891 595.709 520.924 593.4 520.996 590.965C521.068 588.529 520.173 586.163 518.507 584.385Z" fill="#57CECA"/>
<path opacity="0.2" d="M520.984 590.297C520.769 592.493 519.767 594.537 518.162 596.052C516.384 597.719 514.019 598.614 511.583 598.542C509.147 598.47 506.839 597.437 505.162 595.668L494.325 584.172L493.638 584.819L505.122 597.002C506.799 598.77 509.108 599.803 511.544 599.875C513.979 599.947 516.345 599.052 518.123 597.386C519.081 596.479 519.833 595.377 520.327 594.154C520.821 592.93 521.045 591.615 520.984 590.297Z" fill="black"/>
<path d="M430.862 559.363C429.185 557.594 426.876 556.561 424.44 556.489C422.005 556.417 419.639 557.312 417.861 558.979C416.093 560.656 415.06 562.964 414.988 565.4C414.916 567.836 415.811 570.201 417.477 571.979L429.285 584.505L442.669 571.889L430.862 559.363Z" fill="#3F3D56"/>
<path d="M453.507 583.385L442.022 571.202L428.638 583.819L440.122 596.002C441.799 597.77 444.108 598.803 446.544 598.875C448.979 598.947 451.345 598.052 453.123 596.386C454.891 594.709 455.924 592.4 455.996 589.965C456.068 587.529 455.173 585.163 453.507 583.385Z" fill="#57CECA"/>
<path opacity="0.2" d="M455.984 589.297C455.769 591.493 454.767 593.537 453.162 595.052C451.384 596.719 449.019 597.614 446.583 597.542C444.147 597.47 441.839 596.437 440.162 594.668L429.325 583.172L428.638 583.819L440.122 596.002C441.799 597.77 444.108 598.803 446.544 598.875C448.979 598.947 451.345 598.052 453.123 596.386C454.081 595.479 454.833 594.377 455.327 593.154C455.821 591.93 456.045 590.615 455.984 589.297Z" fill="black"/>
<path d="M449.158 526.37C449.159 529.427 448.103 532.391 446.169 534.76C444.236 537.128 441.543 538.756 438.548 539.367C436.797 539.721 434.993 539.721 433.242 539.367C430.247 538.755 427.555 537.127 425.621 534.759C423.688 532.391 422.632 529.427 422.632 526.37C422.632 523.312 423.688 520.349 425.621 517.98C427.555 515.612 430.247 513.984 433.242 513.372C434.993 513.018 436.797 513.018 438.548 513.372C441.543 513.983 444.236 515.611 446.169 517.98C448.103 520.348 449.159 523.312 449.158 526.37Z" fill="#57CECA"/>
<path opacity="0.2" d="M438.547 513.372V539.367C436.797 539.721 434.993 539.721 433.242 539.367V513.372C434.993 513.018 436.797 513.018 438.547 513.372Z" fill="black"/>
<path d="M455.158 473.37C455.159 476.427 454.103 479.391 452.169 481.76C450.236 484.128 447.543 485.756 444.548 486.367C442.797 486.721 440.993 486.721 439.242 486.367C436.247 485.755 433.555 484.127 431.621 481.759C429.688 479.391 428.632 476.427 428.632 473.37C428.632 470.312 429.688 467.349 431.621 464.98C433.555 462.612 436.247 460.984 439.242 460.372C440.993 460.018 442.797 460.018 444.548 460.372C447.543 460.983 450.236 462.611 452.169 464.98C454.103 467.348 455.159 470.312 455.158 473.37Z" fill="#57CECA"/>
<path opacity="0.2" d="M444.547 460.372V486.367C442.797 486.721 440.993 486.721 439.242 486.367V460.372C440.993 460.018 442.797 460.018 444.547 460.372Z" fill="black"/>
<path d="M455.158 549.37C455.159 552.427 454.103 555.391 452.169 557.76C450.236 560.128 447.543 561.756 444.548 562.367C442.797 562.721 440.993 562.721 439.242 562.367C436.247 561.755 433.555 560.127 431.621 557.759C429.688 555.391 428.632 552.427 428.632 549.37C428.632 546.312 429.688 543.349 431.621 540.98C433.555 538.612 436.247 536.984 439.242 536.372C440.993 536.018 442.797 536.018 444.548 536.372C447.543 536.983 450.236 538.611 452.169 540.98C454.103 543.348 455.159 546.312 455.158 549.37Z" fill="#57CECA"/>
<path opacity="0.2" d="M444.547 536.372V562.367C442.797 562.721 440.993 562.721 439.242 562.367V536.372C440.993 536.018 442.797 536.018 444.547 536.372Z" fill="black"/>
<path d="M488.158 586.37C488.159 589.427 487.103 592.391 485.169 594.76C483.236 597.128 480.543 598.756 477.548 599.367C475.797 599.721 473.993 599.721 472.242 599.367C469.247 598.755 466.555 597.127 464.621 594.759C462.688 592.391 461.632 589.427 461.632 586.37C461.632 583.312 462.688 580.349 464.621 577.98C466.555 575.612 469.247 573.984 472.242 573.372C473.993 573.018 475.797 573.018 477.548 573.372C480.543 573.983 483.236 575.611 485.169 577.98C487.103 580.348 488.159 583.312 488.158 586.37Z" fill="#57CECA"/>
<path opacity="0.2" d="M477.547 573.372V599.367C475.797 599.721 473.993 599.721 472.242 599.367V573.372C473.993 573.018 475.797 573.018 477.547 573.372Z" fill="black"/>
<path d="M517.309 518.294C519.511 520.415 520.913 523.232 521.276 526.268C521.64 529.304 520.943 532.372 519.304 534.954C518.344 536.459 517.092 537.758 515.623 538.773C513.103 540.505 510.063 541.314 507.016 541.062C503.969 540.811 501.102 539.514 498.901 537.393C496.699 535.271 495.298 532.454 494.935 529.418C494.571 526.383 495.268 523.314 496.906 520.733C497.866 519.227 499.118 517.928 500.587 516.913C503.107 515.18 506.147 514.372 509.194 514.623C512.242 514.875 515.108 516.171 517.309 518.294Z" fill="#57CECA"/>
<path opacity="0.2" d="M500.588 516.913L519.305 534.953C518.344 536.459 517.092 537.758 515.623 538.773L496.906 520.733C497.866 519.227 499.118 517.928 500.588 516.913Z" fill="black"/>
<path d="M521.309 547.294C523.511 549.415 524.913 552.232 525.276 555.268C525.64 558.304 524.943 561.372 523.304 563.954C522.344 565.459 521.092 566.758 519.623 567.773C517.103 569.505 514.063 570.314 511.016 570.062C507.969 569.811 505.102 568.514 502.901 566.393C500.699 564.271 499.298 561.454 498.935 558.418C498.571 555.383 499.268 552.314 500.906 549.733C501.866 548.227 503.118 546.928 504.587 545.913C507.107 544.18 510.147 543.372 513.194 543.623C516.242 543.875 519.108 545.171 521.309 547.294Z" fill="#57CECA"/>
<path opacity="0.2" d="M504.588 545.913L523.305 563.953C522.344 565.459 521.092 566.758 519.623 567.773L500.906 549.733C501.866 548.227 503.118 546.928 504.588 545.913Z" fill="black"/>
<path d="M402.309 554.294C404.511 556.415 405.913 559.232 406.276 562.268C406.64 565.304 405.943 568.372 404.304 570.954C403.344 572.459 402.092 573.758 400.623 574.773C398.103 576.505 395.063 577.314 392.016 577.062C388.969 576.811 386.102 575.514 383.901 573.393C381.699 571.271 380.298 568.454 379.935 565.418C379.571 562.383 380.268 559.314 381.906 556.733C382.866 555.227 384.118 553.928 385.587 552.913C388.107 551.18 391.147 550.372 394.194 550.623C397.242 550.875 400.108 552.171 402.309 554.294Z" fill="#57CECA"/>
<path opacity="0.2" d="M385.588 552.913L404.305 570.953C403.344 572.459 402.092 573.758 400.623 574.773L381.906 556.733C382.866 555.227 384.118 553.928 385.588 552.913Z" fill="black"/>
<path opacity="0.2" d="M359.5 316.106H354.5V353.106H359.5V316.106Z" fill="black"/>
<path opacity="0.2" d="M388.5 316.106H383.5V353.106H388.5V316.106Z" fill="black"/>
<path opacity="0.2" d="M417.5 316.106H412.5V353.106H417.5V316.106Z" fill="black"/>
<path opacity="0.2" d="M446.5 316.106H441.5V353.106H446.5V316.106Z" fill="black"/>
<path opacity="0.2" d="M475.5 316.106H470.5V353.106H475.5V316.106Z" fill="black"/>
<path opacity="0.2" d="M504.5 316.106H499.5V353.106H504.5V316.106Z" fill="black"/>
<path opacity="0.2" d="M533.5 316.106H528.5V353.106H533.5V316.106Z" fill="black"/>
</g>
<rect x="0.5" y="0.5" width="887" height="617.106" stroke="black"/>
<defs>
<clipPath id="clip0">
</clipPath>
</defs>
</svg>
