<svg width="98" height="100" viewBox="0 0 98 100" fill="none" xmlns="http://www.w3.org/2000/svg">
<path opacity="0.1" d="M48.556 100C75.3727 100 97.1119 98.8236 97.1119 97.3722C97.1119 95.9208 75.3727 94.7441 48.556 94.7441C21.7392 94.7441 0 95.9208 0 97.3722C0 98.8236 21.7392 100 48.556 100Z" fill="#57CECA"/>
<path d="M88.8658 78.0469C88.8658 78.0469 89.63 79.0477 88.5122 80.5524C87.3945 82.0571 86.473 83.3363 86.8419 84.2787C86.8419 84.2787 88.5276 81.4739 89.9042 81.4349C91.2809 81.3959 90.3747 79.7339 88.8658 78.0469Z" fill="#57CECA"/>
<path opacity="0.1" d="M88.8658 78.0469C88.9317 78.1437 88.9842 78.2491 89.0217 78.3601C90.3608 79.9344 91.0734 81.4029 89.7873 81.4391C88.5874 81.4739 87.1495 83.6175 86.8057 84.159C86.8166 84.2011 86.8301 84.2424 86.846 84.2829C86.846 84.2829 88.5317 81.4781 89.9084 81.4391C91.285 81.4001 90.3747 79.7339 88.8658 78.0469Z" fill="black"/>
<path d="M90.2871 79.3221C90.2871 79.6743 90.2482 79.9596 90.1994 79.9596C90.1507 79.9596 90.1104 79.6743 90.1104 79.3221C90.1104 78.97 90.1605 79.1356 90.2092 79.1356C90.2579 79.1356 90.2871 78.97 90.2871 79.3221Z" fill="#FFD037"/>
<path d="M90.7744 79.743C90.4654 79.9114 90.1967 80.0131 90.173 79.9699C90.1494 79.9268 90.3818 79.7556 90.6909 79.5871C90.9999 79.4187 90.8774 79.5412 90.901 79.5871C90.9247 79.6331 91.0834 79.5746 90.7744 79.743Z" fill="#FFD037"/>
<path d="M84.8262 78.0469C84.8262 78.0469 84.062 79.0477 85.1797 80.5524C86.2975 82.0571 87.2176 83.3363 86.8501 84.2787C86.8501 84.2787 85.163 81.4739 83.7878 81.4349C82.4125 81.3959 83.3159 79.7339 84.8262 78.0469Z" fill="#57CECA"/>
<path opacity="0.1" d="M84.8263 78.0469C84.7597 78.1433 84.7072 78.2488 84.6704 78.3601C83.3313 79.9344 82.6172 81.4029 83.9048 81.4391C85.1033 81.4739 86.5495 83.6175 86.8864 84.159C86.8752 84.2008 86.8613 84.2411 86.846 84.2829C86.846 84.2829 85.159 81.4781 83.7837 81.4391C82.4084 81.4001 83.316 79.7339 84.8263 78.0469Z" fill="black"/>
<path d="M83.4053 79.3221C83.4053 79.6743 83.4442 79.9596 83.493 79.9596C83.5417 79.9596 83.5821 79.6743 83.5821 79.3221C83.5821 78.97 83.5319 79.1356 83.4832 79.1356C83.4345 79.1356 83.4053 78.97 83.4053 79.3221Z" fill="#FFD037"/>
<path d="M82.9167 79.743C83.2257 79.9114 83.4958 80.0131 83.5194 79.9699C83.5431 79.9268 83.3107 79.7556 83.0016 79.5871C82.6926 79.4187 82.8151 79.5412 82.7915 79.5871C82.7678 79.6331 82.6077 79.5746 82.9167 79.743Z" fill="#FFD037"/>
<path d="M83.6489 84.1528C83.6489 84.1528 85.787 84.086 86.4329 83.628C87.0787 83.1701 89.7221 82.6203 89.8822 83.3497C90.0422 84.079 93.0948 87.0091 90.6811 87.0286C88.2675 87.0481 85.0729 86.6528 84.4298 86.2616C83.7867 85.8705 83.6489 84.1528 83.6489 84.1528Z" fill="#A8A8A8"/>
<path opacity="0.2" d="M90.723 86.7788C88.3093 86.7983 85.1147 86.403 84.4717 86.0119C83.9817 85.7126 83.7868 84.6422 83.7214 84.1494H83.6504C83.6504 84.1494 83.7896 85.8727 84.4285 86.2652C85.0674 86.6577 88.2661 87.0517 90.6798 87.0322C91.3758 87.0322 91.618 86.7788 91.6041 86.4114C91.5066 86.6369 91.2408 86.7747 90.723 86.7788Z" fill="black"/>
<path d="M70.9176 26.3775C71.6651 25.5423 71.3728 24.2408 71.3728 24.2408C71.3728 24.2408 67.8456 15.2515 67.4544 15.1527C67.0633 15.0538 66.0819 12.7863 66.0819 12.7863C66.0819 12.7863 56.6764 3.84574 56.3382 3.84574C55.9999 3.84574 52.566 1.37639 52.1261 1.32767C51.6862 1.27896 50.9986 1.03119 50.2636 0.631691C49.5287 0.232197 42.0817 0.681801 41.788 1.02701C41.4943 1.37222 40.1176 1.61999 40.1176 1.61999C40.1176 1.61999 37.3253 1.76753 36.9328 2.26168C36.5403 2.75583 33.6519 3.01752 33.6519 3.01752C33.6519 3.01752 32.2307 3.54647 34.16 4.95096C33.542 5.0484 32.8195 5.12356 32.086 5.17646C31.9022 5.18899 31.7157 5.20151 31.5292 5.21126H31.4192C31.296 4.83879 31.0558 4.51607 30.7344 4.29117C30.5242 4.17705 30.3071 4.07616 30.0843 3.98911C29.7394 3.80568 29.4162 3.58388 29.1211 3.32793C27.693 2.19226 26.1691 1.18256 24.5666 0.310147C24.3192 0.155262 24.0432 0.0516016 23.755 0.00530665C23.1579 -0.0517639 22.6248 0.367218 22.0401 0.507806C21.0129 0.754184 19.9773 0.127799 18.9208 0.118056C17.6012 0.105528 16.3999 1.1328 15.9976 2.39949C15.8487 2.86858 15.7819 3.39057 15.4603 3.76222C15.0427 4.24802 14.337 4.31901 13.7649 4.60715C13.3504 4.82336 13.003 5.14904 12.7605 5.5488C12.5181 5.94856 12.3898 6.40712 12.3896 6.87466V6.88579C12.3896 6.95957 12.3896 7.03334 12.4022 7.10712C12.4676 7.70288 12.7432 8.2527 12.945 8.81784C13.1525 9.3969 13.2835 10.0005 13.3348 10.6135C13.3355 10.62 13.3355 10.6265 13.3348 10.633C13.3431 10.7346 13.3501 10.8362 13.3543 10.9392C13.3543 10.9601 13.3543 10.9823 13.3543 11.0046C13.3543 11.1021 13.3543 11.2009 13.3543 11.2997C13.3543 11.8314 13.3362 12.3674 13.3376 12.8991V12.9269V13.1677C13.3376 13.1872 13.3376 13.2067 13.3376 13.2262C13.3376 13.2972 13.3376 13.3654 13.3459 13.4406V13.5157C13.3459 13.5811 13.3557 13.648 13.3626 13.7134C13.3626 13.7412 13.3626 13.7705 13.3696 13.7983C13.3696 13.8623 13.3849 13.925 13.3933 13.9876L13.4058 14.0767C13.4155 14.1393 13.4267 14.202 13.4378 14.2646L13.4545 14.3509C13.4684 14.4177 13.4851 14.4901 13.5018 14.5513C13.5088 14.575 13.513 14.5973 13.5185 14.6209C13.5436 14.7137 13.5714 14.8028 13.602 14.8882C13.8105 15.4727 14.1546 15.9994 14.6061 16.425C15.0576 16.8506 15.6037 17.1631 16.1995 17.3367C16.4238 17.3985 16.6558 17.4276 16.8885 17.423C17.3061 17.4132 17.7056 17.2838 17.9533 16.9984C18.0146 17.068 18.0744 17.1376 18.1385 17.2072C19.0463 18.1946 20.1789 18.9484 21.4401 19.4049C22.7014 19.8614 24.0541 20.007 25.3836 19.8294C26.713 19.6519 27.9801 19.1563 29.0773 18.3848C30.1745 17.6133 31.0696 16.5887 31.6865 15.3977C31.8326 15.3656 31.9774 15.3364 32.1235 15.3086C32.3769 15.2613 32.6316 15.2167 32.8877 15.1694L33.1341 15.1304L33.2316 15.1137C34.4843 14.916 35.7009 14.7838 36.5723 14.6961L33.1285 15.1234C33.1285 15.1234 32.2934 19.1337 32.0526 19.5777C31.8117 20.0218 32.8877 20.7623 32.8877 20.7623C32.8877 20.7623 33.819 21.8981 33.819 22.2447C33.819 22.5913 34.8963 23.5782 35.19 24.1211C35.2274 24.19 35.2743 24.2532 35.3292 24.309C35.1118 24.3932 34.911 24.5152 34.7363 24.6695C34.0556 25.314 34.2825 26.4443 33.9707 27.3296C33.7758 27.8864 33.368 28.3374 32.9754 28.7758C32.8345 28.919 32.7162 29.0828 32.6247 29.2616C32.5736 29.3801 32.5421 29.5061 32.5314 29.6347C32.5244 29.7059 32.5216 29.7775 32.523 29.8491V29.8741C32.523 29.9298 32.523 29.9841 32.5342 30.0384C32.5342 30.062 32.5342 30.0857 32.5342 30.1094C32.6024 30.6912 32.8 31.2535 32.8599 31.8354C32.9198 32.4172 32.8474 33.0032 32.9671 33.5698C33.0086 33.7673 33.073 33.9593 33.1592 34.1419L31.1659 36.369C31.1659 36.369 31.1533 36.479 31.1492 36.6599C29.4872 38.0394 26.9176 40.6424 27.8349 42.9377C27.9351 43.1892 28.0279 43.43 28.1133 43.6601C27.4382 44.0903 27.2155 44.6011 28.2274 45.1106C28.3875 45.1913 28.542 45.2609 28.6937 45.3235C29.2129 46.8477 29.4162 47.2723 30.2862 46.149C30.3794 46.0265 30.488 45.8706 30.6063 45.7022C31.8312 45.6771 32.5397 45.1106 32.5397 45.1106C32.5397 45.1106 35.9682 44.9129 36.8548 45.4572C37.2989 45.7356 38.3429 45.7912 39.2671 45.7843C39.2547 46.78 39.3012 47.7756 39.4063 48.7659C39.4063 48.7659 39.2588 52.964 39.6513 53.8535C40.0438 54.743 40.261 56.2741 40.261 56.2741C40.261 56.2741 39.6026 57.7552 39.9937 58.5458C40.3849 59.3365 39.6513 60.4723 39.6513 60.4723V63.3857L39.9297 63.3662C39.9088 63.5625 39.8824 63.7685 39.8476 63.9647C39.7668 64.4199 39.6457 64.8278 39.4592 64.96C38.9692 65.3122 38.9205 67.1871 38.9205 67.1871C38.9205 67.1871 38.1368 69.4602 38.283 69.8555C38.4292 70.2509 37.3532 71.0401 37.5981 71.6331C37.8431 72.2261 38.3442 75.9788 38.7799 77.0617C39.2156 78.1447 37.8919 77.8524 37.8919 77.8524L38.283 80.6669C38.283 80.6669 38.6755 83.5316 38.3818 83.7293C38.0881 83.9269 36.3983 85.3593 37.5606 86.1986C37.651 86.264 37.7429 86.3239 37.839 86.381C37.8441 86.5109 37.8409 86.6411 37.8292 86.7707C37.8069 86.992 37.7513 87.1688 37.6274 87.1883C37.2822 87.2384 36.5959 87.5836 36.4512 87.4361C36.3064 87.2885 35.4768 87.8091 34.6416 87.9789L34.5261 87.997L33.4417 87.7186C31.8729 87.121 30.1507 87.0574 28.542 87.5377C28.542 87.5377 27.7556 87.6602 27.3742 88.2476C27.1807 88.5482 27.0958 88.9714 27.2684 89.5616C27.7918 91.3071 31.3594 91.9085 31.3594 91.9085C31.3594 91.9085 32.5954 92.1632 34.0806 92.5C34.0319 92.5 33.9818 92.5 33.9317 92.5C33.5218 92.4972 33.1257 92.6481 32.8216 92.9231C32.5176 93.198 32.3276 93.5769 32.2892 93.985C32.2509 94.3932 32.3669 94.8008 32.6144 95.1276C32.862 95.4544 33.223 95.6765 33.6262 95.7501C34.0295 95.8237 34.4457 95.7434 34.7927 95.5251C35.1397 95.3069 35.3923 94.9665 35.5005 94.5711C35.6088 94.1757 35.565 93.7541 35.3776 93.3895C35.1902 93.0249 34.873 92.7438 34.4885 92.6017C36.1589 92.9858 38.0088 93.4535 38.7604 93.7834C39.3201 93.9942 39.8935 94.1662 40.4767 94.2985C40.5055 94.6439 40.6437 94.9712 40.8714 95.2326C41.099 95.4941 41.4041 95.6761 41.7423 95.7522C42.0804 95.8283 42.4341 95.7945 42.7517 95.6557C43.0694 95.5169 43.3345 95.2804 43.5084 94.9805C45.7815 95.4552 47.9711 95.8575 47.9711 95.8575L51.6278 95.9173H51.6528C51.2219 95.9203 50.8097 96.0939 50.5065 96.4002C50.2033 96.7065 50.0339 97.1205 50.0354 97.5514C50.0368 97.9824 50.2091 98.3952 50.5143 98.6994C50.8196 99.0037 51.233 99.1745 51.664 99.1745C52.0949 99.1745 52.5083 99.0037 52.8136 98.6994C53.1188 98.3952 53.2911 97.9824 53.2925 97.5514C53.294 97.1205 53.1246 96.7065 52.8214 96.4002C52.5183 96.0939 52.1061 95.9203 51.6751 95.9173L57.2109 96.0078C57.1445 96.2331 57.1274 96.47 57.1608 96.7025C57.1942 96.935 57.2773 97.1576 57.4045 97.355C57.5317 97.5525 57.6999 97.7202 57.8978 97.8468C58.0957 97.9733 58.3185 98.0557 58.5511 98.0884C58.7837 98.1211 59.0206 98.1032 59.2457 98.036C59.4707 97.9689 59.6787 97.854 59.8553 97.6992C60.032 97.5444 60.1732 97.3534 60.2693 97.1391C60.3655 96.9248 60.4143 96.6923 60.4125 96.4574C60.4122 96.3231 60.3954 96.1894 60.3624 96.0593L65.2454 96.1386L66.2197 95.0668C66.2742 94.9627 66.3069 94.8485 66.3158 94.7314C66.345 94.3792 66.1627 93.8447 64.9155 93.6178C64.8236 93.6011 62.2791 93.6414 60.0311 93.679V92.7965C60.0311 92.7965 59.9684 92.3107 59.9295 91.7386C59.9183 91.5702 59.9086 91.3948 59.9044 91.2222C60.0316 91.3093 60.1728 91.3739 60.322 91.4129C61.2532 91.5619 62.5269 88.8447 62.5269 88.8447C62.5269 88.8447 62.5269 87.3136 62.8206 86.0789C63.1143 84.8442 63.6557 80.6948 63.6557 80.6948L64.8334 75.7074C64.8334 75.7074 65.3205 65.5321 65.0756 65.1368C64.8306 64.7415 65.3706 64.0497 65.3706 64.0497C65.3706 64.0497 65.7618 61.8768 65.1744 61.1363C64.587 60.3957 65.5168 59.6538 65.5168 59.6538C65.5168 59.6538 65.7618 57.0856 65.0756 56.0987C64.3893 55.1118 65.3971 54.42 65.3971 54.42L65.6421 50.4195C66.6707 49.3825 67.6006 43.2091 67.6507 41.8756C67.6636 41.125 67.8303 40.385 68.1407 39.7014C68.1407 39.7014 68.8255 38.6644 68.9243 37.9726C69.0232 37.2808 69.7595 35.8498 69.7595 35.8498L71.0332 31.1074C71.5468 29.1948 71.416 27.7806 71.0749 26.7728C71.0248 26.6308 70.9719 26.5014 70.9176 26.3775ZM47.907 26.6559C48.6907 27.15 48.4457 27.2976 48.6907 27.5941C48.9357 27.8906 48.7394 27.8404 48.5432 28.3346C48.3469 28.8287 48.4945 28.6812 48.5919 29.2241C48.6893 29.7669 48.642 29.7669 48.642 29.7669L48.887 29.8017L48.546 32.0943C47.9892 32.4576 47.7344 33.1536 47.6189 33.8718C47.2904 33.4431 46.9591 32.9977 46.6626 32.5829C46.7642 32.356 46.7448 32.0859 46.7475 31.8312C46.7587 30.996 47.0705 30.1984 47.2138 29.3758C47.3603 28.5389 47.3333 27.6809 47.1345 26.8549C47.0631 26.5441 46.9533 26.2435 46.8074 25.9599C47.1248 26.1715 47.527 26.422 47.907 26.6614V26.6559ZM48.7882 75.0587C48.7882 75.0587 49.4076 74.6411 50.0089 74.2611C50.2108 75.7269 50.4014 77.2511 50.5365 78.6291C50.3207 78.1503 50.1704 77.8245 50.1704 77.8245C49.9494 77.559 49.817 77.2309 49.7918 76.8864C49.7681 76.3491 48.7882 75.0643 48.7882 75.0643V75.0587ZM45.1148 24.2909C45.254 24.3104 45.4516 24.4872 45.6381 24.6988C45.4655 24.5596 45.2915 24.4204 45.1134 24.2895L45.1148 24.2909ZM36.1491 42.5647C35.584 42.7428 33.6686 42.7164 32.53 42.6496C32.9559 41.9216 33.3791 41.181 33.7549 40.5171C33.9766 40.5745 34.2023 40.6149 34.43 40.6382L38.1591 37.3629C39.5619 37.8549 41.0918 37.845 42.4881 37.335L42.5897 37.4937C42.6329 37.5633 42.6788 37.6329 42.7289 37.7109L42.6357 37.5592C42.6357 37.5592 41.1964 38.4166 41.3425 38.8119C41.4887 39.2072 41.1477 40.1941 40.609 41.252C40.4698 41.5165 40.3487 41.7782 40.2318 42.0413C39.0124 42.1554 36.7143 42.3865 36.1491 42.5647ZM43.2245 88.1989L43.2036 87.8077C43.4402 87.7562 43.5961 87.7089 43.5961 87.7089C43.5472 87.1285 43.4654 86.5512 43.3511 85.9801C43.2036 85.3871 43.2801 85.5847 43.8536 85.1449C44.4271 84.705 43.8536 79.7162 43.8536 79.7162C43.8536 79.7162 44.132 79.3696 44.5733 80.2591C45.0145 81.1486 45.4572 81.6914 45.6047 81.7402C45.7523 81.7889 45.0159 82.7785 45.6047 83.7167C45.9703 84.3236 46.2191 84.9935 46.3383 85.6919C46.3383 85.6919 45.9472 87.2607 46.5346 87.9581C46.6139 88.0393 46.7085 88.1041 46.813 88.1488C46.813 88.2782 46.813 88.416 46.813 88.5455C46.813 88.8058 46.813 89.0285 46.8004 89.0758C46.7947 89.1092 46.7805 89.1405 46.7591 89.1667C46.7378 89.193 46.71 89.2132 46.6785 89.2256C46.6469 89.2379 46.6128 89.2419 46.5793 89.2371C46.5458 89.2323 46.5141 89.2189 46.4872 89.1983C46.3355 89.0995 45.3737 89.3208 45.4391 89.9402C45.2116 90.209 44.9538 90.4505 44.6707 90.6599L43.3358 90.3147L43.2245 88.1989Z" fill="url(#paint0_linear)"/>
<path d="M31.2025 37.029C31.2025 37.029 30.7362 40.85 34.4346 41.2411L34.9914 38.5964L33.8264 37.029L32.1574 36.4639L31.2025 37.029Z" fill="#57CECA"/>
<path opacity="0.1" d="M32.1574 36.4639L31.2025 37.0276C31.2025 37.0276 30.7362 40.8486 34.4346 41.2397" fill="black"/>
<path d="M37.9128 15.4239C37.9128 15.4239 35.417 15.577 32.9142 15.9918C32.6581 16.0354 32.4034 16.0818 32.15 16.131C32.0025 16.1589 31.8577 16.1881 31.713 16.2201C30.4017 16.4901 29.2074 16.8409 28.5114 17.2891C27.6763 17.825 27.3979 16.3816 27.3714 14.3757C27.3603 13.67 27.3839 12.8961 27.4215 12.1138C27.4702 11.209 27.5412 10.2931 27.6164 9.46907C27.782 7.64281 27.9727 6.223 27.9727 6.223C27.9727 6.223 28.8469 6.223 30.0148 6.18264L30.3906 6.16872C30.7567 6.1548 31.145 6.13531 31.5362 6.11164C31.7213 6.1019 31.9078 6.09077 32.093 6.07685C32.8335 6.02395 33.5643 5.94879 34.1809 5.85135C34.8379 5.74556 35.371 5.61193 35.6606 5.43376C36.9829 4.64591 37.9128 15.4239 37.9128 15.4239Z" fill="#AE9284"/>
<path d="M49.0335 29.5329L48.5463 32.7664C48.5463 32.7664 47.4842 34.0888 47.6234 34.8238C47.7626 35.5587 48.9875 68.0388 48.9875 68.0388C48.9875 68.0388 51.3887 81.7553 50.5549 83.5189C49.7211 85.2825 50.5062 89.3986 50.5062 89.3986L55.5033 88.6149L57.1737 28.6504L49.0335 29.5329Z" fill="#474463"/>
<path opacity="0.1" d="M49.0335 29.5329L48.5463 32.7664C48.5463 32.7664 47.4842 34.0888 47.6234 34.8238C47.7626 35.5587 48.9875 68.0388 48.9875 68.0388C48.9875 68.0388 51.3887 81.7553 50.5549 83.5189C49.7211 85.2825 50.5062 89.3986 50.5062 89.3986L55.5033 88.6149L57.1737 28.6504L49.0335 29.5329Z" fill="black"/>
<path d="M60.0564 90.2312C59.8977 90.4943 59.9103 91.2682 59.9548 91.9266C59.9938 92.4932 60.0564 92.9748 60.0564 92.9748V96.3057C60.0564 96.3057 54.7168 94.4447 51.777 92.4848C50.5646 91.6761 50.2194 90.9244 50.2862 90.3231C50.3837 89.467 51.3163 88.9088 51.777 88.9088C52.2169 88.9088 53.6061 88.1419 54.7447 87.464C55.6397 86.9336 56.383 86.459 56.383 86.459C56.383 86.459 60.3501 89.7412 60.0564 90.2312Z" fill="#575988"/>
<path opacity="0.1" d="M60.0564 90.2312C59.8977 90.4943 59.9102 91.2682 59.9548 91.9266C58.7674 91.3698 55.0912 87.8036 54.7446 87.464C55.6397 86.9336 56.383 86.459 56.383 86.459C56.383 86.459 60.3501 89.7412 60.0564 90.2312Z" fill="black"/>
<path d="M71.0308 31.7869L69.7572 36.4904C69.7572 36.4904 69.0222 37.9102 68.922 38.5964C68.8218 39.2827 68.1383 40.3113 68.1383 40.3113C67.829 40.9884 67.6622 41.7218 67.6483 42.4661C67.5996 43.7898 66.674 49.9131 65.6397 50.9418L65.3947 54.9103C65.3947 54.9103 64.4204 55.5951 65.101 56.5806C65.7817 57.5661 65.5423 60.1079 65.5423 60.1079C65.5423 60.1079 64.6111 60.8428 65.1999 61.5778C65.7887 62.3127 65.3947 64.4689 65.3947 64.4689C65.3947 64.4689 64.856 65.1537 65.101 65.5463C65.346 65.9388 64.8588 76.0306 64.8588 76.0306L63.6812 80.9776C63.6812 80.9776 63.1411 85.0936 62.846 86.3186C62.551 87.5435 62.5523 89.0607 62.5523 89.0607C62.5523 89.0607 61.2787 91.7556 60.3475 91.6094C59.4162 91.4633 54.9104 87.0521 54.9104 87.0521L55.5466 72.1581C55.5466 72.1581 56.0853 65.8386 55.7428 64.6137C55.4004 63.3887 55.1554 57.2655 55.1554 57.2655L54.4692 47.615L47.6179 36.837C47.6179 36.837 47.121 33.7009 48.5408 32.771L48.7983 31.077L49.0308 29.5375L57.164 28.655L69.6068 25.4229C69.6068 25.4229 70.5659 26.0144 71.0684 27.4913C71.4122 28.4866 71.5444 29.8897 71.0308 31.7869Z" fill="#474463"/>
<path d="M49.3813 36.7419C49.3813 36.7419 43.6005 43.8409 43.8454 41.8573C43.9986 40.6115 43.2079 39.0901 42.5927 38.1283C42.2294 37.5562 41.9287 37.1817 41.9287 37.1817C41.9287 37.1817 45.456 30.7161 45.6522 31.5972C45.7149 31.8756 46.1227 32.5145 46.6475 33.2439C47.7541 34.7722 49.3813 36.7419 49.3813 36.7419Z" fill="#C2A494"/>
<path opacity="0.3" d="M60.0564 95.6129V96.3088C60.0564 96.3088 54.7168 94.4478 51.777 92.4879C50.5646 91.6792 50.2194 90.9275 50.2862 90.3262C51.9093 91.1474 54.9284 92.7134 55.8429 93.4191C56.6197 94.0177 58.6269 94.9656 60.0564 95.6129Z" fill="white"/>
<path d="M58.7993 98.2558C59.701 98.2558 60.4321 97.5248 60.4321 96.623C60.4321 95.7213 59.701 94.9902 58.7993 94.9902C57.8975 94.9902 57.1665 95.7213 57.1665 96.623C57.1665 97.5248 57.8975 98.2558 58.7993 98.2558Z" fill="#474463"/>
<path d="M42.1211 95.9628C43.0228 95.9628 43.7538 95.2318 43.7538 94.33C43.7538 93.4283 43.0228 92.6973 42.1211 92.6973C41.2193 92.6973 40.4883 93.4283 40.4883 94.33C40.4883 95.2318 41.2193 95.9628 42.1211 95.9628Z" fill="#474463"/>
<path d="M66.3413 94.9108C66.3321 95.027 66.2994 95.1402 66.2452 95.2435L65.2709 96.3055L51.6519 96.087L47.9896 96.0271C47.9896 96.0271 40.2809 94.624 38.779 93.9698C37.277 93.3156 31.3723 92.1185 31.3723 92.1185C31.3723 92.1185 27.8061 91.52 27.2827 89.7897C27.1059 89.2037 27.195 88.7847 27.3885 88.4869C27.7685 87.9036 28.5564 87.7811 28.5564 87.7811C30.1657 87.3058 31.8862 87.3693 33.4561 87.9621L56.2843 93.8348L56.6379 93.9253C56.6379 93.9253 64.7753 93.7735 64.9396 93.8028C66.1882 94.0311 66.3705 94.5614 66.3413 94.9108Z" fill="#57CECA"/>
<path opacity="0.3" d="M66.3413 94.9112C64.9716 94.7331 62.583 94.47 61.9677 94.7233C61.9677 94.7233 57.6234 94.186 51.6463 96.0874L47.9896 96.0276C47.9896 96.0276 40.2809 94.6245 38.779 93.9703C37.277 93.316 31.3723 92.1189 31.3723 92.1189C31.3723 92.1189 27.8061 91.5204 27.2827 89.7902C27.1059 89.2042 27.195 88.7852 27.3885 88.4873C27.6321 89.1972 28.1012 90.2259 28.8501 90.514C30.0263 90.9664 34.8606 91.8879 34.8606 91.8879L44.429 94.2306C44.429 94.2306 49.9537 95.429 52.1043 94.6481C52.9854 94.3308 54.639 94.0482 56.2802 93.8269L56.6337 93.9174C56.6337 93.9174 64.7712 93.7656 64.9354 93.7949C66.1882 94.0315 66.3705 94.5618 66.3413 94.9112Z" fill="white"/>
<path d="M53.1273 93.1471C53.1157 93.3523 53.0901 93.5565 53.0507 93.7582C53.0507 93.7582 47.6387 93.9517 44.8214 93.5341C44.0433 93.4186 43.6034 93.1694 43.3849 92.8715C43.2873 92.7308 43.2269 92.5677 43.2091 92.3974C43.1913 92.227 43.2169 92.055 43.2833 91.8971C43.3144 91.8064 43.354 91.7188 43.4016 91.6355C43.6118 91.268 43.9347 91.0077 44.1115 91.0425C44.6015 91.1413 45.4422 90.1363 45.4422 90.1363C45.3754 89.5225 46.34 89.3011 46.4904 89.4013C46.5172 89.422 46.5489 89.4354 46.5824 89.4401C46.6159 89.4449 46.6501 89.4409 46.6816 89.4286C46.7131 89.4163 46.7409 89.396 46.7623 89.3698C46.7836 89.3435 46.7979 89.3122 46.8036 89.2789C46.8133 89.2329 46.8161 89.0116 46.8161 88.7527C46.8161 88.3212 46.8036 87.7783 46.8036 87.7783L52.2434 88.4395L52.4591 89.4793C52.6568 90.4063 52.9324 91.68 53.0507 92.1157C53.133 92.4529 53.1588 92.8014 53.1273 93.1471Z" fill="#474463"/>
<path opacity="0.1" d="M53.1271 93.1477C53.1155 93.3529 53.09 93.5571 53.0506 93.7588C53.0506 93.7588 47.6386 93.9523 44.8213 93.5347C44.0432 93.4191 43.6033 93.17 43.3848 92.8721C44.1072 92.829 45.0468 92.8053 45.6286 92.9473C46.4582 93.1533 51.4206 93.1533 53.1271 93.1477Z" fill="black"/>
<path d="M43.396 91.6328C43.4019 91.6831 43.3941 91.734 43.3732 91.7801C43.3524 91.8262 43.3194 91.8658 43.2777 91.8945C42.5929 92.4235 39.3064 91.8486 39.3064 91.8486C39.3064 91.8486 32.5916 91.431 31.588 90.7462C31.4974 90.6866 31.4217 90.6071 31.3667 90.5137C30.9491 89.7593 32.4607 88.4926 32.5916 88.4926C32.7224 88.4926 34.5278 88.2462 34.6489 88.2225C35.4841 88.0541 36.3193 87.5363 36.4585 87.6838C36.5977 87.8314 37.2936 87.4876 37.6333 87.4389C37.7572 87.4208 37.8142 87.2454 37.8351 87.0213C37.8547 86.718 37.8444 86.4136 37.8045 86.1123L43.1677 87.5558L43.2151 88.4104L43.3696 91.2556L43.3891 91.605C43.3924 91.614 43.3948 91.6233 43.396 91.6328Z" fill="#474463"/>
<path opacity="0.1" d="M39.3118 91.8486C39.3118 91.8486 32.597 91.431 31.5934 90.7461C31.5028 90.6866 31.4271 90.6071 31.3721 90.5137C32.732 90.625 34.9995 90.8129 35.4088 90.9173C35.9976 91.0565 39.3063 91.2598 39.3063 91.2598H43.375L43.3945 91.6091C43.5713 92.5947 39.3118 91.8486 39.3118 91.8486Z" fill="black"/>
<path d="M33.9443 95.9628C34.8461 95.9628 35.5771 95.2318 35.5771 94.33C35.5771 93.4283 34.8461 92.6973 33.9443 92.6973C33.0425 92.6973 32.3115 93.4283 32.3115 94.33C32.3115 95.2318 33.0425 95.9628 33.9443 95.9628Z" fill="#474463"/>
<path d="M51.6782 99.3525C52.5799 99.3525 53.311 98.6214 53.311 97.7197C53.311 96.8179 52.5799 96.0869 51.6782 96.0869C50.7764 96.0869 50.0454 96.8179 50.0454 97.7197C50.0454 98.6214 50.7764 99.3525 51.6782 99.3525Z" fill="#474463"/>
<path d="M35.072 38.7922C35.072 38.7922 34.763 39.349 34.2981 40.1758C33.1845 42.1413 31.1814 45.6254 30.3198 46.7278C29.0949 48.2952 29.1937 46.8266 27.87 43.5444C26.8872 41.1029 29.912 38.3092 31.5294 37.0397C32.0862 36.5985 32.476 36.3438 32.476 36.3438L35.072 38.7922Z" fill="#AE9284"/>
<path d="M40.999 42.5645C40.999 42.5645 36.9331 42.9069 36.1494 43.1519C35.3657 43.3968 31.986 43.2493 31.6951 43.1519C31.4042 43.0544 25.6192 44.3768 28.2653 45.6992C30.9114 47.0215 32.5804 45.6992 32.5804 45.6992C32.5804 45.6992 36.0102 45.5029 36.8955 46.043C37.7808 46.5831 41.0102 46.288 41.0102 46.288L40.999 42.5645Z" fill="#C2A494"/>
<path opacity="0.1" d="M32.5524 12.5831C33.0535 13.8651 32.7403 14.9815 32.1501 16.127C30.6719 16.4054 29.2813 16.7882 28.5074 17.2852C26.3025 18.7064 27.9687 6.21347 27.9687 6.21347C27.9687 6.21347 29.0349 6.21347 30.3865 6.15918C29.9773 8.0272 31.5279 9.96621 32.5524 12.5831Z" fill="black"/>
<path d="M32.6777 12.3048C32.6751 14.3567 31.9173 16.3358 30.5487 17.8646C29.1802 19.3934 27.2968 20.3649 25.2577 20.5938C23.2187 20.8228 21.1667 20.2931 19.4933 19.1058C17.8198 17.9185 16.642 16.1567 16.1844 14.1565C15.7269 12.1563 16.0217 10.0577 17.0126 8.26095C18.0034 6.46421 19.621 5.09511 21.5568 4.4148C23.4926 3.73449 25.6111 3.7906 27.5082 4.57241C29.4053 5.35423 30.9482 6.80703 31.8425 8.6537C32.3938 9.79182 32.6793 11.0403 32.6777 12.3048Z" fill="#AE9284"/>
<path opacity="0.1" d="M71.0711 27.4874C70.8066 27.8722 70.4105 28.147 69.9575 28.2599C68.0463 28.7986 54.5735 32.0322 53.6924 31.8359C52.9143 31.6633 49.5749 31.1831 48.8052 31.0731L49.0376 29.5336L57.1709 28.6511L69.6137 25.4189C69.6137 25.4189 70.5686 26.0105 71.0711 27.4874Z" fill="black"/>
<path opacity="0.1" d="M37.9128 15.4239C36.3203 15.5193 34.7337 15.6959 33.1592 15.9528C33.1816 15.8812 33.1787 15.804 33.1509 15.7343L36.4081 15.332C36.4081 15.332 35.932 7.67618 34.1809 5.84157C34.8379 5.73578 35.3711 5.60215 35.6606 5.42398C36.983 4.64587 37.9128 15.4239 37.9128 15.4239Z" fill="black"/>
<path d="M33.652 3.92692C33.652 3.92692 36.5431 3.66663 36.9343 3.17665C37.3254 2.68668 40.1191 2.54052 40.1191 2.54052C40.1191 2.54052 41.4902 2.29554 41.7894 1.95172C42.0887 1.60791 49.5288 1.16805 50.2637 1.56058C50.9987 1.95312 51.6849 2.19671 52.1262 2.24682C52.5674 2.29693 55.9958 4.74401 56.3383 4.74401C56.6807 4.74401 66.082 13.6122 66.082 13.6122C66.082 13.6122 67.0564 15.8658 67.4545 15.9633C67.8526 16.0607 71.3743 24.9776 71.3743 24.9776C71.3743 24.9776 71.8642 27.1324 69.9545 27.6725C68.0447 28.2126 54.5705 31.4447 53.6894 31.2484C52.8082 31.0522 48.6435 30.4648 48.6435 30.4648C48.6435 30.4648 48.6922 30.4648 48.5947 29.9261C48.4973 29.3874 48.3498 29.5335 48.5446 29.0436C48.7395 28.5536 48.9372 28.6023 48.6922 28.3086C48.4472 28.0149 48.6922 27.8673 47.9085 27.3774C47.1248 26.8874 46.2381 26.3487 46.1936 26.2026C46.1491 26.0564 45.4587 25.0751 45.1162 25.0263C44.7738 24.9776 35.1706 22.2828 35.1706 22.2828L32.917 21.5478C32.917 21.5478 31.8397 20.8129 32.0819 20.373C32.3241 19.9331 33.1579 15.9535 33.1579 15.9535L36.603 15.529C36.603 15.529 36.0893 7.23284 34.1601 5.84088C32.2308 4.44891 33.652 3.92692 33.652 3.92692Z" fill="#57CECA"/>
<path opacity="0.1" d="M35.0719 38.7922C35.0719 38.7922 34.7628 39.349 34.2979 40.1758C34.2255 37.6202 32.4383 37.1246 31.5293 37.0397C32.0861 36.5985 32.4758 36.3438 32.4758 36.3438L35.0719 38.7922Z" fill="black"/>
<path d="M32.6776 20.2256L32.9142 21.548C32.9142 21.548 33.8454 22.6754 33.8454 23.0179C33.8454 23.3603 34.9228 24.3402 35.2179 24.8789C35.513 25.4176 36.5403 25.5164 36.1477 26.4477C35.7552 27.3789 33.503 34.4821 33.503 34.4821L31.2007 37.0294C31.2007 37.0294 35.0216 36.6856 34.4328 41.2415L39.3813 36.9264L43.2565 29.8761C43.2565 29.8761 39.4843 22.7242 39.3381 22.1368C39.192 21.5493 32.6776 20.2256 32.6776 20.2256Z" fill="#57CECA"/>
<path opacity="0.1" d="M44.1353 22.6746C44.1353 22.6746 47.27 20.4697 47.27 20.2247C47.27 19.9797 44.1353 22.6746 44.1353 22.6746Z" fill="black"/>
<path opacity="0.1" d="M49.3813 25.4189C49.3813 25.4189 51.0517 25.0264 51.1909 24.1453C51.3301 23.2641 49.3813 25.4189 49.3813 25.4189Z" fill="black"/>
<path opacity="0.1" d="M50.7485 27.672C50.7485 27.672 53.101 26.5069 53.0021 26.305C52.9033 26.1032 50.7485 27.672 50.7485 27.672Z" fill="black"/>
<path opacity="0.1" d="M63.3387 20.21C63.3387 20.21 62.3643 20.8461 62.6539 21.4418C62.9434 22.0376 63.3387 20.21 63.3387 20.21Z" fill="black"/>
<path opacity="0.1" d="M66.2241 20.4697C66.2241 20.4697 63.4485 23.1145 64.0763 23.1646C64.7041 23.2147 66.2241 20.4697 66.2241 20.4697Z" fill="black"/>
<path opacity="0.1" d="M59.9102 61.4746C59.9102 61.4746 63.4861 62.1608 63.5836 62.4058C63.681 62.6508 59.9102 61.4746 59.9102 61.4746Z" fill="black"/>
<path opacity="0.1" d="M61.1836 63.8252C61.1836 63.8252 63.0934 65.0014 63.1421 65.3438C63.1908 65.6862 61.1836 63.8252 61.1836 63.8252Z" fill="black"/>
<path opacity="0.1" d="M60.7427 66.4717C60.7427 66.4717 61.0364 67.794 61.5264 67.9903C62.0163 68.1866 60.7427 66.4717 60.7427 66.4717Z" fill="black"/>
<path opacity="0.1" d="M31.851 8.61004C31.851 8.62396 31.851 8.63928 31.844 8.6532C31.7772 9.08888 31.599 9.56076 31.1898 9.70552C30.9425 9.77508 30.6783 9.75078 30.4479 9.63731C29.7519 9.33247 29.1325 8.6003 28.3892 8.77708C28.0356 8.8606 27.7878 9.12925 27.6124 9.45914C27.4908 9.69661 27.3974 9.94747 27.3341 10.2066C27.1949 10.7523 27.0835 11.3453 27.2965 11.8645C27.3315 11.9494 27.3734 12.0313 27.4217 12.1094C27.6194 12.4254 27.8978 12.6941 28.0927 13.0128C28.3349 13.4109 28.3975 14.0081 28.0203 14.2809C27.9256 14.3431 27.8183 14.3835 27.7062 14.3992C27.594 14.4148 27.4797 14.4053 27.3716 14.3714C27.0953 14.2846 26.8296 14.1669 26.5796 14.0206C26.0869 13.7631 25.466 13.603 24.9983 13.9009C24.8369 14.0011 24.7074 14.1459 24.5529 14.2517C24.2318 14.4506 23.8508 14.5299 23.4769 14.4758C22.5916 14.3853 22.2603 13.8243 21.5838 13.3901C21.0883 13.0699 20.0527 12.9335 19.7576 13.5877C19.5683 14.0053 19.8495 14.5315 19.6643 14.9574C19.4792 15.3833 18.8904 15.5142 18.6176 15.9095C18.2584 16.4301 18.5925 17.1832 18.3294 17.7608C18.2891 17.8503 18.2351 17.933 18.1694 18.0058C16.6943 16.4164 15.893 14.3169 15.9341 12.1488C15.9752 9.98077 16.8554 7.91312 18.3896 6.38071C19.9238 4.84829 21.9925 3.97052 24.1606 3.93199C26.3287 3.89346 28.4273 4.69717 30.015 6.1741L30.3908 6.16018C30.7569 6.14627 31.1453 6.12678 31.5364 6.10311C31.6289 6.29895 31.7012 6.5037 31.7522 6.71419C31.9036 7.33436 31.9371 7.97748 31.851 8.61004Z" fill="black"/>
<path d="M19.5583 13.3928C19.3676 13.8104 19.6488 14.3366 19.4651 14.7611C19.2813 15.1857 18.6884 15.3179 18.4183 15.7132C18.0578 16.2352 18.3919 16.9882 18.1302 17.5645C17.8295 18.2229 16.9219 18.3259 16.226 18.1338C15.6314 17.964 15.0857 17.6552 14.6341 17.2329C14.1824 16.8105 13.8378 16.2867 13.6286 15.7049C13.1567 14.3616 13.4615 12.8833 13.339 11.4649C13.2869 10.8571 13.1559 10.2586 12.9493 9.6846C12.7474 9.12782 12.4718 8.57938 12.4064 7.9878C12.3596 7.48585 12.4643 6.98138 12.7069 6.53949C12.9496 6.0976 13.3191 5.73856 13.7678 5.50871C14.3412 5.23031 15.047 5.15097 15.4646 4.67353C15.7847 4.30326 15.8529 3.78684 16.0019 3.32054C16.4041 2.06777 17.6054 1.04606 18.925 1.05859C19.9801 1.06694 21.0129 1.68915 22.0444 1.44417C22.6276 1.30497 23.158 0.887381 23.7593 0.947236C24.0473 0.99253 24.3233 1.09525 24.5708 1.24929C26.1718 2.11403 27.6951 3.11532 29.1239 4.24202C29.4195 4.49655 29.7431 4.71651 30.0886 4.89763C30.311 4.98434 30.5281 5.08427 30.7386 5.19691C31.1882 5.4753 31.4234 6.00564 31.5515 6.52067C31.7052 7.14045 31.7402 7.78373 31.6545 8.41652C31.5933 8.86334 31.4179 9.36445 30.9933 9.51339C30.7453 9.58258 30.4805 9.55728 30.25 9.4424C29.554 9.14035 28.936 8.40817 28.1927 8.58356C27.5858 8.72276 27.2935 9.41039 27.1348 10.0131C26.9956 10.5588 26.8815 11.1517 27.0972 11.6723C27.2754 12.1038 27.654 12.4198 27.892 12.8193C28.1301 13.2188 28.1983 13.816 27.8197 14.0874C27.4021 14.3894 26.8355 14.0679 26.3776 13.8285C25.8876 13.571 25.264 13.4109 24.7977 13.7074C24.6376 13.8076 24.5082 13.9524 24.3523 14.0596C24.0309 14.2565 23.6509 14.3353 23.2777 14.2823C22.391 14.1918 22.0597 13.6308 21.3846 13.1965C20.8877 12.8736 19.8548 12.7372 19.5583 13.3928Z" fill="#474463"/>
<path opacity="0.1" d="M46.6489 33.2373C46.6114 33.4461 46.3246 33.4698 46.2662 33.673C45.7094 35.6371 44.4844 37.4035 42.5941 38.1273C42.2308 37.5552 41.9302 37.1808 41.9302 37.1808C41.9302 37.1808 45.4574 30.7151 45.6537 31.5962C45.7163 31.8704 46.1242 32.5079 46.6489 33.2373Z" fill="black"/>
<path d="M46.7535 31.8847C46.7538 33.1638 46.3747 34.4143 45.6643 35.478C44.9538 36.5417 43.9439 37.3708 42.7622 37.8605C41.5805 38.3502 40.2802 38.4784 39.0256 38.229C37.771 37.9797 36.6186 37.3638 35.714 36.4595C34.8094 35.5551 34.1934 34.4028 33.9437 33.1482C33.6941 31.8937 33.822 30.5933 34.3115 29.4115C34.8009 28.2298 35.6298 27.2197 36.6934 26.509C37.7569 25.7983 39.0073 25.419 40.2864 25.419C41.1364 25.4159 41.9787 25.581 42.7646 25.9048C43.5506 26.2286 44.2647 26.7047 44.8658 27.3057C45.4669 27.9067 45.9432 28.6207 46.2672 29.4066C46.5912 30.1924 46.7564 31.0346 46.7535 31.8847Z" fill="#C2A494"/>
<path opacity="0.1" d="M43.1787 87.5597L43.226 88.4143C42.6595 88.5396 41.5821 88.7039 40.9543 88.3197C40.1428 87.8228 38.9443 87.7017 37.8461 87.0252C37.8656 86.7219 37.8554 86.4175 37.8154 86.1162L43.1787 87.5597Z" fill="black"/>
<path opacity="0.1" d="M52.4589 89.4819C52.4213 89.6726 52.3865 89.7896 52.3865 89.7896C52.3865 89.7896 48.0645 89.3469 46.8187 88.7498C46.8187 88.3183 46.8062 87.7754 46.8062 87.7754L52.246 88.4366L52.4589 89.4819Z" fill="black"/>
<path d="M51.4833 70.0475C51.1896 70.8312 51.0421 70.9787 51.3372 71.3698C51.6323 71.761 51.4833 73.8197 51.0156 74.0146C50.5479 74.2095 48.7885 75.3857 48.7885 75.3857C48.7885 75.3857 49.7629 76.6593 49.7921 77.1952C49.8177 77.5376 49.9501 77.8633 50.1707 78.1264C50.1707 78.1264 51.6796 81.36 51.9803 82.3886C52.2809 83.4173 52.5565 85.0334 52.5565 85.0334C52.5565 85.0334 52.029 86.5033 52.3937 87.3371C52.7584 88.1709 52.3937 89.3944 52.3937 89.3944C52.3937 89.3944 47.1307 88.8557 46.5474 88.1639C45.9642 87.4721 46.3525 85.9159 46.3525 85.9159C46.2323 85.2224 45.983 84.5576 45.6176 83.956C45.0288 83.0248 45.7568 82.0462 45.6176 81.9961C45.4784 81.946 45.0288 81.4087 44.5861 80.5276C44.1435 79.6465 43.8679 79.9875 43.8679 79.9875C43.8679 79.9875 44.4414 84.9359 43.8679 85.3772C43.2944 85.8185 43.2164 85.6222 43.364 86.2124C43.4783 86.7789 43.5601 87.3514 43.609 87.9273C43.609 87.9273 41.8454 88.466 40.9642 87.9273C40.0831 87.3886 38.7566 87.2898 37.5915 86.4574C36.4264 85.625 38.1191 84.2038 38.4128 84.0075C38.7065 83.8112 38.3153 80.9702 38.3153 80.9702L37.9228 78.1779C37.9228 78.1779 39.2452 78.4716 38.8109 77.3943C38.3766 76.3169 37.8741 72.5934 37.6291 72.006C37.3841 71.4186 38.4643 70.6335 38.3153 70.2423C38.1664 69.8512 38.9515 67.5976 38.9515 67.5976C38.9515 67.5976 39.0016 65.7366 39.4902 65.3872C39.6767 65.2563 39.7978 64.8499 39.8785 64.4003C39.9642 63.8697 40.0149 63.334 40.0302 62.7967C40.0302 62.7967 51.2481 62.013 53.0604 63.0904C53.8761 63.5748 53.819 64.4671 53.478 65.3705C53.0604 66.4729 52.203 67.5976 51.9872 68.0055C51.5822 68.7571 51.777 69.2638 51.4833 70.0475Z" fill="#575988"/>
<path opacity="0.1" d="M53.464 65.3705C52.072 65.7616 50.2179 66.3365 49.9159 66.6664C49.4259 67.2065 47.7597 63.6291 47.7597 63.6291C47.7597 63.6291 47.8585 66.3184 45.6537 65.1937C43.7453 64.2193 40.6649 64.3474 39.8687 64.4003C39.9543 63.8697 40.005 63.334 40.0204 62.7967C40.0204 62.7967 51.2382 62.013 53.0506 63.0904C53.8663 63.5748 53.8092 64.4671 53.464 65.3705Z" fill="black"/>
<path d="M47.7597 35.7549C47.7597 35.7549 48.7341 34.5787 48.9359 35.0199C49.1378 35.4612 50.2875 36.3423 50.2875 36.3423C50.2875 36.3423 50.6174 37.371 51.1979 37.5185C51.7783 37.6661 56.138 43.5443 56.138 43.5443L54.5692 46.7278L53.2956 54.4685C53.2956 54.4685 53.3513 55.6934 53.0047 56.1388C52.6581 56.5843 51.3343 56.4813 51.9482 57.02C52.562 57.5586 53.4431 58.0486 53.9331 60.4999C54.4231 62.9511 55.0105 64.3695 55.0105 64.3695C55.0105 64.3695 50.4059 65.5457 49.9159 66.0844C49.4259 66.6231 47.7597 63.0472 47.7597 63.0472C47.7597 63.0472 47.8586 65.735 45.6537 64.6117C43.4488 63.4884 39.6766 63.8308 39.6766 63.8308V60.9356C39.6766 60.9356 40.4115 59.8081 40.0204 59.0244C39.6293 58.2407 40.2877 56.7708 40.2877 56.7708C40.2877 56.7708 40.0691 55.2522 39.6766 54.371C39.2841 53.4899 39.4316 49.3252 39.4316 49.3252C39.4316 49.3252 39.1337 46.6303 39.4052 45.2578C39.6355 44.0682 40.0423 42.9197 40.612 41.8503C41.1507 40.8008 41.4917 39.8208 41.3456 39.4283C41.1994 39.0358 42.6387 38.1867 42.6387 38.1867L43.4363 39.477L43.6395 40.2482C43.6395 40.2482 47.8586 37.2248 47.7597 35.7549Z" fill="#DCE6F2"/>
<path d="M54.8103 42.5645C54.8103 42.5645 57.5538 45.2579 57.8475 45.6992C58.1412 46.1404 59.1254 48.4344 57.8517 49.1304C56.5781 49.8263 51.5879 50.8995 51.0923 50.5293C50.5968 50.159 47.6124 50.9469 47.6124 50.9469C47.6124 50.9469 42.6208 52.1718 43.6982 50.1632C44.7756 48.1546 47.3243 48.4928 47.3243 48.4928C47.3243 48.4928 51.4417 48.4859 51.8816 48.0752C52.3214 47.6646 55.6399 46.7835 54.8882 44.9684C54.1366 43.1533 54.8103 42.5645 54.8103 42.5645Z" fill="#C2A494"/>
<path opacity="0.1" d="M46.7535 54.6162C46.7535 54.6162 40.363 60.1521 40.9991 60.1521C41.6352 60.1521 46.7535 54.6162 46.7535 54.6162Z" fill="black"/>
<path opacity="0.1" d="M51.0154 56.8701C51.0154 56.8701 48.9845 57.3587 49.377 57.6538C49.7696 57.9489 51.0154 56.8701 51.0154 56.8701Z" fill="black"/>
<path opacity="0.1" d="M43.854 43.4453C43.854 43.4453 46.3888 43.6722 45.942 44.4656C45.4951 45.259 43.854 43.4453 43.854 43.4453Z" fill="black"/>
<path opacity="0.1" d="M42.2739 67.2383C42.2739 67.2383 41.9301 68.2349 42.2739 68.7694C42.6177 69.304 42.2739 70.579 42.2739 70.579V75.0333C42.2739 75.0333 42.2266 78.2668 43.4 79.3929L42.2739 67.2383Z" fill="black"/>
<path opacity="0.1" d="M38.918 81.1191C38.918 81.1191 39.6028 82.1227 39.7016 82.4902C39.8005 82.8577 38.918 81.1191 38.918 81.1191Z" fill="black"/>
<path opacity="0.1" d="M39.0894 79.1107C39.0894 79.1107 40.6818 78.817 40.9268 78.9882C41.1717 79.1594 39.0894 79.1107 39.0894 79.1107Z" fill="black"/>
<path opacity="0.1" d="M38.6241 85.1113C38.6241 85.1113 38.1578 85.16 39.089 85.6681C40.0202 86.1762 41.8326 86.8193 41.8562 86.5993C41.8799 86.3794 38.6241 85.1113 38.6241 85.1113Z" fill="black"/>
<path opacity="0.1" d="M45.4409 80.237C45.6052 80.237 47.6555 80.1145 47.5372 80.4333C47.4189 80.752 45.4409 80.237 45.4409 80.237Z" fill="black"/>
<path opacity="0.1" d="M48.2261 77.3708C48.2261 77.3708 48.691 76.5635 48.8622 76.9059C49.0334 77.2483 48.2261 77.3708 48.2261 77.3708Z" fill="black"/>
<path opacity="0.1" d="M46.7531 31.8846C46.7538 32.4857 46.6704 33.084 46.5053 33.6621C46.2353 33.9071 45.7689 33.9099 45.4363 33.7275C45.0465 33.5132 44.7918 33.1234 44.5385 32.7531C44.2851 32.3829 43.997 32.0126 43.5822 31.8539C43.0574 31.6563 42.4589 31.8539 42.0023 32.1824C41.5457 32.5109 41.181 32.9452 40.7495 33.296C40.318 33.6468 39.7682 33.9307 39.2184 33.8444C38.8634 33.7902 38.5488 33.5897 38.244 33.3962C37.8264 33.1332 37.3782 32.7239 36.9202 32.5471C36.4623 32.3704 36.085 32.6863 35.6494 32.6863C35.3028 32.8116 34.9255 33.097 34.9951 33.4575C35.0324 33.5912 35.0927 33.7175 35.1733 33.8305C35.3132 34.1061 35.3684 34.4169 35.332 34.7238C35.2956 35.0307 35.1692 35.32 34.9687 35.5552C34.3917 34.721 34.019 33.7629 33.8807 32.7581C33.7424 31.7534 33.8424 30.7302 34.1725 29.7712C34.5027 28.8122 35.0537 27.9443 35.7812 27.2376C36.5087 26.5309 37.3922 26.0052 38.3604 25.703C39.3285 25.4007 40.3542 25.3305 41.3545 25.4978C42.3549 25.6652 43.3018 26.0655 44.1189 26.6664C44.9359 27.2673 45.6002 28.0519 46.0581 28.9569C46.5159 29.862 46.7545 30.862 46.7545 31.8762L46.7531 31.8846Z" fill="black"/>
<path d="M35.648 32.4983C35.3014 32.6236 34.9242 32.909 34.9924 33.2709C35.0311 33.4039 35.0918 33.5295 35.172 33.6425C35.5784 34.3677 35.2346 35.4089 34.476 35.7458C34.3571 35.8077 34.2213 35.8292 34.089 35.807C33.9842 35.7745 33.8887 35.7172 33.8107 35.64C33.4026 35.2753 33.1213 34.7902 33.0075 34.255C32.8878 33.6982 32.9616 33.108 32.9003 32.5359C32.8391 31.9638 32.6428 31.4001 32.5746 30.8238C32.5263 30.539 32.5566 30.2464 32.6623 29.9775C32.7541 29.8001 32.8724 29.6377 33.0131 29.4959C33.4042 29.0602 33.812 28.6147 34.0083 28.0621C34.3187 27.1824 34.0932 26.0619 34.7725 25.4174C35.0871 25.1223 35.5269 25.0123 35.9167 24.8258C36.2837 24.631 36.635 24.4081 36.9676 24.1591C38.2274 23.2933 39.7585 22.6279 41.2563 22.9341C41.8547 23.079 42.4277 23.3137 42.9559 23.6301C43.9369 24.1709 44.8685 24.7969 45.7398 25.5009C46.1166 25.7796 46.4457 26.1176 46.7142 26.5017C46.9142 26.8306 47.0582 27.1905 47.1401 27.5666C47.3401 28.3872 47.3676 29.2404 47.2208 30.0721C47.0816 30.8878 46.7657 31.6799 46.7531 32.5081C46.7531 32.7865 46.7754 33.0871 46.632 33.3265C46.4024 33.7079 45.8331 33.7441 45.4433 33.5326C45.0536 33.321 44.7988 32.9284 44.5469 32.5582C44.2949 32.1879 44.0054 31.8177 43.5906 31.6604C43.0658 31.4613 42.4673 31.6604 42.0107 31.9875C41.5542 32.3146 41.1909 32.7503 40.7579 33.1011C40.325 33.4518 39.7836 33.7358 39.2268 33.6495C38.8718 33.5952 38.5573 33.3961 38.2524 33.2027C37.8348 32.9382 37.3866 32.529 36.93 32.3536C36.4735 32.1782 36.0823 32.4983 35.648 32.4983Z" fill="#794F6A"/>
<path d="M50.5034 42.5645C50.5034 42.5645 43.3028 49.2264 44.7713 52.5574C46.2398 55.8884 52.7055 50.0101 52.7055 50.0101L55.0106 44.6761L50.5034 42.5645Z" fill="#AE9284"/>
<g opacity="0.1">
<path opacity="0.1" d="M34.4734 35.3495C34.355 35.4115 34.2196 35.433 34.0879 35.4108C33.9826 35.3785 33.8869 35.3207 33.8095 35.2423C33.4014 34.8781 33.1197 34.3935 33.0049 33.8587C32.8866 33.295 32.9604 32.7104 32.8991 32.1383C32.8379 31.5662 32.6402 31.0038 32.5734 30.4261C32.5734 30.3983 32.5734 30.3691 32.5664 30.3398C32.5514 30.4992 32.5537 30.6598 32.5734 30.8187C32.6402 31.395 32.8379 31.9517 32.8991 32.5308C32.9604 33.1099 32.8866 33.6875 33.0049 34.2499C33.1193 34.7852 33.4011 35.2703 33.8095 35.6349C33.8873 35.7123 33.9829 35.7697 34.0879 35.8019C34.2196 35.8241 34.355 35.8026 34.4734 35.7407C35.072 35.4748 35.4102 34.7746 35.3309 34.1343C35.3019 34.3927 35.208 34.6396 35.0581 34.852C34.9083 35.0644 34.7071 35.2356 34.4734 35.3495Z" fill="black"/>
<path opacity="0.1" d="M47.2114 29.6773C47.0722 30.493 46.7562 31.285 46.7451 32.1132C46.7451 32.3916 46.7673 32.6923 46.6226 32.9317C46.3943 33.3131 45.825 33.3493 45.4352 33.1377C45.0455 32.9262 44.7907 32.535 44.5374 32.1634C44.2841 31.7917 43.9973 31.4228 43.5811 31.2655C43.0577 31.0679 42.4592 31.2655 42.0026 31.594C41.5461 31.9225 41.1814 32.3554 40.7499 32.7076C40.3183 33.0598 39.7685 33.3424 39.2187 33.2574C38.8637 33.2018 38.5492 33.0027 38.2443 32.8092C37.8267 32.5448 37.3785 32.1369 36.922 31.9601C36.4654 31.7833 36.0868 32.0993 35.6511 32.0993C35.3045 32.226 34.9273 32.51 34.9941 32.8733C35.0026 32.9125 35.0152 32.9508 35.0317 32.9874C35.168 32.7498 35.3894 32.5728 35.6511 32.4919C36.0854 32.4919 36.4696 32.1801 36.922 32.3527C37.3743 32.5253 37.8309 32.9373 38.2443 33.2018C38.5464 33.3952 38.861 33.5943 39.2187 33.6486C39.7755 33.7349 40.3211 33.4551 40.7499 33.1001C41.1786 32.7452 41.5475 32.3067 42.0026 31.9866C42.4578 31.6664 43.0577 31.4604 43.5811 31.6595C43.9987 31.8168 44.2855 32.1912 44.5374 32.5573C44.7893 32.9234 45.0455 33.3117 45.4352 33.5317C45.825 33.7516 46.3943 33.707 46.6226 33.3256C46.7618 33.0862 46.7409 32.787 46.7451 32.5072C46.7562 31.679 47.068 30.8869 47.2114 30.0712C47.2848 29.6523 47.3147 29.2269 47.3004 28.8018C47.2916 29.0954 47.2618 29.3879 47.2114 29.6773Z" fill="black"/>
</g>
<path opacity="0.1" d="M41.8816 8.66341C41.8816 8.66341 39.2369 13.4643 42.856 15.9142C46.4751 18.364 46.8245 18.119 46.8245 18.119C46.8245 18.119 46.7744 18.7064 46.8245 18.854C46.8746 19.0015 47.7988 19.3426 47.7988 19.3426C47.7988 19.3426 48.9249 21.1521 50.541 21.94C52.1571 22.7278 52.4522 24.5847 52.4522 24.5847C52.4522 24.5847 52.4522 25.2222 53.2874 25.8096C54.1225 26.3971 54.7656 28.112 54.7656 28.112V29.6807C54.7656 29.9257 55.0593 30.6551 54.4232 30.733C53.7871 30.811 54.3244 32.2767 54.3244 32.2767C54.3244 32.2767 53.6395 33.1119 53.7857 33.5017C53.9318 33.8914 53.492 34.6765 53.492 34.6765C53.492 34.6765 52.9533 35.4601 53.002 35.6077C53.0507 35.7552 52.4146 36.2939 52.5608 36.6364C52.7069 36.9788 51.8272 37.42 51.9733 37.8126C52.1195 38.2051 51.347 38.4 51.347 38.4L49.2298 43.2997C49.2298 43.2997 53.6841 44.2741 54.8338 46.7281L60.449 36.4401C60.449 36.4401 63.5837 28.7495 63.6826 28.2595C63.7814 27.7695 62.9963 26.0059 62.9963 26.0059L59.1754 19.0461L53.4433 10.9629C53.4433 10.9629 48.8874 1.2665 41.8816 8.66341Z" fill="black"/>
<path opacity="0.1" d="M47.5369 10.6889C47.5369 10.6889 40.655 13.104 44.2797 15.5538C47.9044 18.0037 48.2482 17.7573 48.2482 17.7573C48.2482 17.7573 48.1995 18.3461 48.2482 18.4923C48.2969 18.6384 49.2226 18.9822 49.2226 18.9822C49.2226 18.9822 50.3501 20.7918 51.9662 21.5796C53.5822 22.3675 53.8773 24.2244 53.8773 24.2244C53.8773 24.2244 53.8773 24.8619 54.7125 25.4493C55.5477 26.0367 56.1824 27.7516 56.1824 27.7516V29.319C56.1824 29.564 56.4761 30.2933 55.8386 30.3727C55.2011 30.452 55.7412 31.9164 55.7412 31.9164C55.7412 31.9164 55.0549 32.7516 55.2025 33.1399C55.35 33.5283 54.9088 34.3161 54.9088 34.3161C54.9088 34.3161 54.3701 35.0998 54.4188 35.2474C54.4675 35.3949 53.83 35.9336 53.9775 36.276C54.1251 36.6184 53.2426 37.0597 53.3901 37.4522C53.5377 37.8448 52.7624 38.0396 52.7624 38.0396L50.6466 42.938C50.6466 42.938 54.3158 43.1273 55.4739 45.5827L61.8644 36.0853C61.8644 36.0853 65.0005 28.3947 65.098 27.9047C65.1954 27.4148 64.4145 25.6456 64.4145 25.6456L60.5936 18.6857L51.8771 13.658C51.8771 13.658 54.5427 3.29061 47.5369 10.6889Z" fill="black"/>
<path d="M42.2742 8.66289C42.2742 8.66289 39.6294 13.4638 43.2485 15.9136C46.8677 18.3635 47.217 18.1185 47.217 18.1185C47.217 18.1185 47.1683 18.7059 47.217 18.8535C47.2658 19.001 48.1914 19.3421 48.1914 19.3421C48.1914 19.3421 49.3189 21.1516 50.935 21.9395C52.551 22.7273 52.8462 24.5842 52.8462 24.5842C52.8462 24.5842 52.8462 25.2217 53.6813 25.8091C54.5165 26.3965 55.1582 28.1114 55.1582 28.1114V29.6802C55.1582 29.9252 55.4519 30.6546 54.8144 30.7325C54.1769 30.8105 54.717 32.2762 54.717 32.2762C54.717 32.2762 54.0307 33.1114 54.1783 33.5011C54.3258 33.8909 53.8846 34.676 53.8846 34.676C53.8846 34.676 53.3459 35.4596 53.3946 35.6072C53.4433 35.7547 52.8058 36.2934 52.9533 36.6358C53.1009 36.9783 52.2184 37.4195 52.3659 37.812C52.5135 38.2046 51.7381 38.3995 51.7381 38.3995L49.6224 43.2992C49.6224 43.2992 54.0683 44.2736 55.225 46.7276L60.8402 36.4396C60.8402 36.4396 63.9763 28.749 64.0737 28.259C64.1712 27.769 63.3875 26.0054 63.3875 26.0054L59.5666 19.0456L53.8358 10.9652C53.8358 10.9652 49.2785 1.26599 42.2742 8.66289Z" fill="#57CECA"/>
<g opacity="0.1">
<path opacity="0.1" d="M13.3391 11.0744C13.2876 10.466 13.1566 9.86699 12.9493 9.29267C12.7475 8.73588 12.4719 8.18745 12.4065 7.59586C12.4065 7.57777 12.4065 7.56106 12.4065 7.54297C12.3919 7.69109 12.3919 7.84028 12.4065 7.9884C12.4719 8.57998 12.7475 9.12424 12.9493 9.6852C13.1566 10.259 13.2876 10.8576 13.3391 11.4655C13.3586 11.6938 13.3669 11.9249 13.3697 12.1615C13.3739 11.7926 13.3697 11.4321 13.3391 11.0744Z" fill="black"/>
<path opacity="0.1" d="M18.1303 17.1733C17.8311 17.8303 16.9221 17.9347 16.2261 17.7412C15.632 17.571 15.0867 17.2621 14.6352 16.8401C14.1837 16.4181 13.8387 15.8949 13.6287 15.3136C13.4352 14.7155 13.3412 14.0896 13.3503 13.4609C13.342 14.2279 13.3712 14.9851 13.6287 15.7048C13.8386 16.2863 14.1835 16.8096 14.6351 17.2319C15.0866 17.6542 15.6319 17.9633 16.2261 18.1338C16.9221 18.3259 17.8311 18.2229 18.1303 17.5645C18.257 17.2861 18.2445 16.9631 18.2389 16.6458C18.2363 16.8269 18.1995 17.0059 18.1303 17.1733Z" fill="black"/>
<path opacity="0.1" d="M31.6545 8.02336C31.5946 8.46879 31.4178 8.9699 30.9933 9.11884C30.7459 9.18796 30.4816 9.16318 30.2514 9.04924C29.5554 8.74579 28.936 8.01362 28.1927 8.1904C27.5858 8.3296 27.2948 9.01583 27.1348 9.61995C27.0187 10.0017 26.9683 10.4003 26.9858 10.7989C27.0124 10.5325 27.0622 10.2689 27.1348 10.0111C27.2948 9.40837 27.5858 8.72631 28.1927 8.58154C28.936 8.40615 29.5498 9.13833 30.2514 9.44038C30.4813 9.5553 30.7457 9.5806 30.9933 9.51137C31.4178 9.36243 31.5946 8.86133 31.6545 8.41451C31.6927 8.12993 31.7067 7.84261 31.6962 7.55566C31.6893 7.71156 31.6754 7.86885 31.6545 8.02336Z" fill="black"/>
<path opacity="0.1" d="M27.82 13.6941C27.4025 13.9962 26.8359 13.6746 26.378 13.4338C25.888 13.1763 25.2644 13.0162 24.7981 13.3127C24.638 13.4129 24.5086 13.5577 24.3527 13.6649C24.0318 13.8633 23.6513 13.9422 23.2781 13.8876C22.3914 13.7971 22.0601 13.2361 21.385 12.8019C20.8894 12.4831 19.8538 12.3467 19.5587 13.0009C19.4879 13.1935 19.4683 13.4012 19.5017 13.6036C19.5108 13.5313 19.53 13.4605 19.5587 13.3934C19.8552 12.7378 20.8894 12.8742 21.385 13.1944C22.0601 13.6287 22.3914 14.1896 23.2781 14.2801C23.6514 14.3336 24.0318 14.2543 24.3527 14.056C24.5086 13.9502 24.638 13.8055 24.7981 13.7052C25.2686 13.4129 25.888 13.566 26.378 13.8263C26.8359 14.0658 27.3997 14.3831 27.82 14.0852C28.065 13.9099 28.1235 13.5981 28.0692 13.2904C28.0406 13.4518 27.9515 13.5962 27.82 13.6941Z" fill="black"/>
<path opacity="0.1" d="M19.4653 14.3708C19.2746 14.8079 18.6886 14.9276 18.4186 15.3215C18.2167 15.6138 18.2334 15.9785 18.2404 16.3446C18.2378 16.1216 18.2997 15.9027 18.4186 15.714C18.6886 15.3201 19.2746 15.199 19.4653 14.7619C19.532 14.5717 19.5502 14.3679 19.5182 14.1689C19.5096 14.2383 19.4919 14.3062 19.4653 14.3708Z" fill="black"/>
</g>
<defs>
<linearGradient id="paint0_linear" x1="41.9105" y1="99.226" x2="41.9105" y2="0.00669457" gradientUnits="userSpaceOnUse">
<stop stop-color="#808080" stop-opacity="0.25"/>
<stop offset="0.54" stop-color="#808080" stop-opacity="0.12"/>
<stop offset="1" stop-color="#808080" stop-opacity="0.1"/>
</linearGradient>
</defs>
</svg>
