<svg width="40" height="40" viewBox="0 0 40 40" fill="none" xmlns="http://www.w3.org/2000/svg">
<path d="M23.7776 10.4448C24.8208 10.4448 25.6664 9.59909 25.6664 8.55588C25.6664 7.51268 24.8208 6.66699 23.7776 6.66699C22.7344 6.66699 21.8887 7.51268 21.8887 8.55588C21.8887 9.59909 22.7344 10.4448 23.7776 10.4448Z" stroke="#57CECA" stroke-width="1.5" stroke-linecap="round" stroke-linejoin="round"/>
<path d="M20.0002 31.2227V23.6671L14.3335 19.8893L20.0002 14.2227L23.7779 18.0004L27.5557 19.8893" stroke="#57CECA" stroke-width="1.5" stroke-linecap="round" stroke-linejoin="round"/>
<path d="M8.66667 35.0003C11.7963 35.0003 14.3333 32.4633 14.3333 29.3337C14.3333 26.204 11.7963 23.667 8.66667 23.667C5.53705 23.667 3 26.204 3 29.3337C3 32.4633 5.53705 35.0003 8.66667 35.0003Z" stroke="#57CECA" stroke-width="1.5" stroke-linecap="round" stroke-linejoin="round"/>
<path d="M31.3332 35.0003C34.4628 35.0003 36.9998 32.4633 36.9998 29.3337C36.9998 26.204 34.4628 23.667 31.3332 23.667C28.2036 23.667 25.6665 26.204 25.6665 29.3337C25.6665 32.4633 28.2036 35.0003 31.3332 35.0003Z" stroke="#57CECA" stroke-width="1.5" stroke-linecap="round" stroke-linejoin="round"/>
</svg>
