<svg width="18" height="22" viewBox="0 0 18 22" fill="none" xmlns="http://www.w3.org/2000/svg">
<path fill-rule="evenodd" clip-rule="evenodd" d="M9.5665 0.17596L9 1L8.4335 0.17596C8.7747 -0.0586533 9.2253 -0.0586533 9.5665 0.17596ZM9 2.2433C8.8263 2.37709 8.6187 2.54115 8.3854 2.7331C7.6614 3.32893 6.69815 4.18714 5.73803 5.23727C3.78212 7.37655 2 10.1373 2 13C2 16.866 5.13398 20 9 20C12.866 20 16 16.8659 16 13C16 10.1373 14.2179 7.37655 12.262 5.23727C11.3019 4.18714 10.3386 3.32893 9.6146 2.7331C9.3813 2.54115 9.1737 2.37709 9 2.2433ZM8.4335 0.17596C8.4338 0.17576 8.4335 0.17596 9 1C9.5665 0.17596 9.5662 0.17576 9.5665 0.17596L9.5698 0.17819L9.5759 0.18245L9.5967 0.19698C9.6144 0.20932 9.6394 0.22695 9.6712 0.24974C9.735 0.2953 9.8264 0.36153 9.9415 0.44731C10.1715 0.6188 10.4967 0.86888 10.8854 1.18878C11.6614 1.82732 12.6981 2.75036 13.738 3.88773C15.7821 6.12345 18 9.3627 18 13C18 17.9704 13.9706 22 9 22C4.02942 22 0 17.9706 0 13C0 9.3627 2.21788 6.12345 4.26197 3.88773C5.30185 2.75036 6.33862 1.82732 7.1146 1.18878C7.5033 0.86888 7.8285 0.6188 8.0585 0.44731C8.1736 0.36153 8.265 0.2953 8.3288 0.24974C8.3606 0.22695 8.3856 0.20932 8.4033 0.19698L8.4241 0.18245L8.4302 0.17819L8.4335 0.17596ZM9.4472 8.10557C9.9412 8.35256 10.1414 8.95324 9.8944 9.4472L8.618 12H11C11.3466 12 11.6684 12.1795 11.8507 12.4743C12.0329 12.7691 12.0494 13.1372 11.8944 13.4472L9.8944 17.4472C9.6474 17.9412 9.0468 18.1414 8.5528 17.8944C8.0588 17.6474 7.8586 17.0468 8.1056 16.5528L9.382 14H7C6.65342 14 6.33156 13.8205 6.14935 13.5257C5.96714 13.2309 5.95058 12.8628 6.10557 12.5528L8.1056 8.55279C8.3526 8.05881 8.9532 7.85858 9.4472 8.10557Z" fill="#AE9284" fill-opacity="0.65"/>
</svg>
