<svg width="25" height="24" viewBox="0 0 25 24" fill="none" xmlns="http://www.w3.org/2000/svg">
<path opacity="0.4" fill-rule="evenodd" clip-rule="evenodd" d="M19.03 19C18.202 19 17.5291 19.673 17.5291 20.501C17.5291 21.329 18.202 22 19.03 22C19.858 22 20.5291 21.329 20.5291 20.501C20.5291 19.673 19.858 19 19.03 19Z" stroke="white" stroke-width="1.5" stroke-linecap="round" stroke-linejoin="round"/>
<path opacity="0.4" fill-rule="evenodd" clip-rule="evenodd" d="M5.58984 18.8203C4.76239 18.8203 4.08984 19.4929 4.08984 20.3203C4.08984 21.1478 4.76239 21.8184 5.58984 21.8184C6.41729 21.8184 7.08984 21.1478 7.08984 20.3203C7.08984 19.4929 6.41729 18.8203 5.58984 18.8203Z" stroke="white" stroke-width="1.5" stroke-linecap="round" stroke-linejoin="round"/>
<path d="M1.5 12.8877L6.164 12.8871M6.164 12.8871L6.793 4.90309C6.871 3.96809 7.652 3.25009 8.59 3.25009L19.502 3.25009C20.398 3.25009 21.158 3.90809 21.287 4.79609L22.236 11.3541C22.353 12.1631 21.726 12.8871 20.909 12.8871L6.164 12.8871Z" stroke="white" stroke-width="1.5" stroke-linecap="round" stroke-linejoin="round"/>
<path opacity="0.4" d="M20 10.5H17" stroke="white" stroke-width="1.5" stroke-linecap="round" stroke-linejoin="round"/>
<path d="M12 7.5H9" stroke="white" stroke-width="1.5" stroke-linecap="round" stroke-linejoin="round"/>
<path d="M10.5 6V9" stroke="white" stroke-width="1.5" stroke-linecap="round" stroke-linejoin="round"/>
</svg>
