<svg width="22" height="25" viewBox="0 0 22 25" fill="none" xmlns="http://www.w3.org/2000/svg">
<g filter="url(#filter0_d)">
<path fill-rule="evenodd" clip-rule="evenodd" d="M4.25 12.6526V6.94287H17.75V12.6984C17.75 15.0526 16.2681 16.5001 13.8971 16.5001H8.0955C5.74671 16.5001 4.25 15.0226 4.25 12.6526ZM7.96953 10.8076C7.62869 10.8233 7.34713 10.5526 7.33231 10.2083C7.33231 9.86333 7.59905 9.57833 7.93989 9.56258C8.27331 9.56258 8.54746 9.82583 8.55487 10.1626C8.56969 10.5083 8.30295 10.7933 7.96953 10.8076ZM11.0148 10.8076C10.674 10.8233 10.3924 10.5526 10.3776 10.2083C10.3776 9.86333 10.6443 9.57833 10.9852 9.56258C11.3186 9.56258 11.5927 9.82583 11.6002 10.1626C11.615 10.5083 11.3482 10.7933 11.0148 10.8076ZM14.0379 13.5677C13.6971 13.5602 13.4229 13.2752 13.4229 12.9302C13.4155 12.5852 13.6896 12.3009 14.0305 12.2934H14.0379C14.3861 12.2934 14.6677 12.5784 14.6677 12.9302C14.6677 13.2827 14.3861 13.5677 14.0379 13.5677ZM10.3776 12.9301C10.3924 13.2751 10.674 13.5459 11.0148 13.5301C11.3482 13.5159 11.615 13.2309 11.6002 12.8859C11.5927 12.5484 11.3186 12.2851 10.9852 12.2851C10.6443 12.3009 10.3776 12.5851 10.3776 12.9301ZM7.32493 12.9301C7.33975 13.2751 7.62131 13.5459 7.96214 13.5301C8.29556 13.5159 8.5623 13.2309 8.54749 12.8859C8.54008 12.5484 8.26593 12.2851 7.9325 12.2851C7.59167 12.3009 7.32493 12.5851 7.32493 12.9301ZM13.4303 10.2009C13.4303 9.85589 13.697 9.57839 14.0379 9.57089C14.3713 9.57089 14.638 9.84014 14.6528 10.1709C14.6602 10.5159 14.3935 10.8009 14.0601 10.8076C13.7192 10.8151 13.4377 10.5526 13.4303 10.2084V10.2009Z" fill="white"/>
<path opacity="0.4" d="M4.25244 6.94244C4.26207 6.50219 4.29912 5.62844 4.36877 5.34719C4.72442 3.76544 5.93216 2.76044 7.65856 2.61719H14.3419C16.0535 2.76794 17.276 3.77969 17.6317 5.34719C17.7006 5.62094 17.7376 6.50144 17.7473 6.94244H4.25244Z" fill="white"/>
<path d="M8.22873 4.9425C8.55475 4.9425 8.79926 4.69575 8.79926 4.365V2.07825C8.79926 1.7475 8.55475 1.5 8.22873 1.5C7.90271 1.5 7.6582 1.7475 7.6582 2.07825V4.365C7.6582 4.69575 7.90271 4.9425 8.22873 4.9425Z" fill="white"/>
<path d="M13.7712 4.9425C14.0898 4.9425 14.3417 4.69575 14.3417 4.365V2.07825C14.3417 1.7475 14.0898 1.5 13.7712 1.5C13.4452 1.5 13.2007 1.7475 13.2007 2.07825V4.365C13.2007 4.69575 13.4452 4.9425 13.7712 4.9425Z" fill="white"/>
</g>
<defs>
<filter id="filter0_d" x="-2" y="0" width="26" height="26" filterUnits="userSpaceOnUse" color-interpolation-filters="sRGB">
<feFlood flood-opacity="0" result="BackgroundImageFix"/>
<feColorMatrix in="SourceAlpha" type="matrix" values="0 0 0 0 0 0 0 0 0 0 0 0 0 0 0 0 0 0 127 0"/>
<feOffset dy="4"/>
<feGaussianBlur stdDeviation="2"/>
<feColorMatrix type="matrix" values="0 0 0 0 0 0 0 0 0 0 0 0 0 0 0 0 0 0 0.25 0"/>
<feBlend mode="normal" in2="BackgroundImageFix" result="effect1_dropShadow"/>
<feBlend mode="normal" in="SourceGraphic" in2="effect1_dropShadow" result="shape"/>
</filter>
</defs>
</svg>
