<svg width="20" height="20" viewBox="0 0 20 20" fill="none" xmlns="http://www.w3.org/2000/svg">
<g id="Iconly/Two-tone/Chat">
<g id="Chat">
<path id="Stroke 4" fill-rule="evenodd" clip-rule="evenodd" d="M15.8931 15.8916C13.3463 18.4387 9.57514 18.989 6.48901 17.5618C6.03341 17.3783 5.6599 17.2301 5.3048 17.2301C4.31573 17.2359 3.08463 18.195 2.44479 17.5559C1.80495 16.916 2.76471 15.6839 2.76471 14.6889C2.76471 14.3337 2.62234 13.9669 2.43893 13.5104C1.01102 10.4248 1.56208 6.65232 4.10887 4.10609C7.35999 0.853775 12.642 0.853775 15.8931 4.10525C19.1501 7.36259 19.1442 12.6402 15.8931 15.8916Z" stroke="#57CECA" stroke-width="1.5" stroke-linecap="round" stroke-linejoin="round"/>
<path id="Stroke 11" opacity="0.4" d="M13.283 10.3442H13.2905" stroke="#57CECA" stroke-width="2" stroke-linecap="round" stroke-linejoin="round"/>
<path id="Stroke 13" opacity="0.4" d="M9.94221 10.3442H9.94971" stroke="#57CECA" stroke-width="2" stroke-linecap="round" stroke-linejoin="round"/>
<path id="Stroke 15" opacity="0.4" d="M6.60139 10.3442H6.60889" stroke="#57CECA" stroke-width="2" stroke-linecap="round" stroke-linejoin="round"/>
</g>
</g>
</svg>
