<svg width="60" height="60" viewBox="0 0 60 60" fill="none" xmlns="http://www.w3.org/2000/svg">
<g id="Iconly/Bulk/Danger">
<g id="Group">
<path id="Fill 5" opacity="0.4" d="M11.807 52.9182C11.7745 52.9182 11.7445 52.9182 11.7095 52.9157C10.922 52.8757 10.1495 52.7057 9.41452 52.4082C5.79702 50.9382 4.05202 46.8057 5.51952 43.1907L23.822 11.1257C24.452 9.98574 25.407 9.03074 26.572 8.38574C29.9845 6.49574 34.2995 7.73824 36.187 11.1482L54.3695 42.9682C54.7745 43.9207 54.947 44.6957 54.9895 45.4857C55.087 47.3757 54.442 49.1882 53.177 50.5907C51.912 51.9932 50.1745 52.8207 48.287 52.9157L11.987 52.9182H11.807Z" fill="#FAD427"/>
<path id="Combined Shape" fill-rule="evenodd" clip-rule="evenodd" d="M27.8115 25.0518C27.8115 23.8468 28.794 22.8643 29.999 22.8643C31.204 22.8643 32.1865 23.8468 32.1865 25.0518V32.1218C32.1865 33.3293 31.204 34.3093 29.999 34.3093C28.794 34.3093 27.8115 33.3293 27.8115 32.1218V25.0518ZM27.8115 40.6746C27.8115 39.4621 28.794 38.4746 29.999 38.4746C31.204 38.4746 32.1865 39.4496 32.1865 40.6471C32.1865 41.8796 31.204 42.8621 29.999 42.8621C28.794 42.8621 27.8115 41.8796 27.8115 40.6746Z" fill="#FAD427"/>
</g>
</g>
</svg>
