<svg width="14" height="14" viewBox="0 0 14 14" fill="none" xmlns="http://www.w3.org/2000/svg">
<path opacity="0.4" d="M11.4958 10.9111H8.29275C7.98025 10.9111 7.72607 11.1693 7.72607 11.4868C7.72607 11.8048 7.98025 12.0624 8.29275 12.0624H11.4958C11.8083 12.0624 12.0625 11.8048 12.0625 11.4868C12.0625 11.1693 11.8083 10.9111 11.4958 10.9111Z" fill="#57CECA"/>
<path d="M6.04883 4.13322L9.084 6.58577C9.15721 6.64442 9.16971 6.75205 9.11257 6.82703L5.51429 11.5157C5.2881 11.8053 4.95476 11.9692 4.59761 11.9752L2.63329 11.9994C2.52853 12.0006 2.43686 11.928 2.41305 11.824L1.96661 9.88305C1.88923 9.52629 1.96661 9.15744 2.19281 8.87324L5.80894 4.16224C5.86727 4.08666 5.97501 4.07336 6.04883 4.13322Z" fill="#57CECA"/>
<path opacity="0.4" d="M10.443 5.12431L9.85784 5.85475C9.79891 5.92913 9.69296 5.94122 9.61974 5.88196C8.90842 5.30632 7.08696 3.8291 6.58159 3.41974C6.50778 3.35927 6.49766 3.25164 6.55719 3.17666L7.12148 2.47584C7.6334 1.81675 8.52627 1.75628 9.24652 2.33072L10.0739 2.98982C10.4132 3.25587 10.6394 3.60658 10.7168 3.97543C10.8061 4.38117 10.7108 4.77965 10.443 5.12431Z" fill="#57CECA"/>
</svg>
