<svg width="18" height="18" viewBox="0 0 18 18" fill="none" xmlns="http://www.w3.org/2000/svg">
<path d="M6.9075 7.905C7.04803 8.04469 7.23811 8.12309 7.43625 8.12309C7.63439 8.12309 7.82448 8.04469 7.965 7.905C8.10469 7.76448 8.1831 7.57439 8.1831 7.37625C8.1831 7.17811 8.10469 6.98802 7.965 6.8475C7.53579 6.44024 6.96668 6.21321 6.375 6.21321C5.78333 6.21321 5.21421 6.44024 4.785 6.8475C4.70649 6.91474 4.64273 6.99747 4.59771 7.09052C4.55269 7.18357 4.52739 7.28492 4.5234 7.38821C4.51941 7.4915 4.53682 7.5945 4.57452 7.69074C4.61223 7.78699 4.66942 7.8744 4.74252 7.94749C4.81561 8.02058 4.90302 8.07777 4.99926 8.11548C5.0955 8.15318 5.1985 8.17059 5.30179 8.1666C5.40508 8.16261 5.50643 8.13731 5.59948 8.09229C5.69253 8.04728 5.77527 7.98351 5.8425 7.905C5.91223 7.8347 5.99518 7.77891 6.08657 7.74083C6.17797 7.70275 6.27599 7.68315 6.375 7.68315C6.47401 7.68315 6.57204 7.70275 6.66344 7.74083C6.75483 7.77891 6.83778 7.8347 6.9075 7.905ZM9 1.5C7.51664 1.5 6.0666 1.93987 4.83323 2.76398C3.59986 3.58809 2.63856 4.75943 2.07091 6.12987C1.50325 7.50032 1.35472 9.00832 1.64411 10.4632C1.9335 11.918 2.64781 13.2544 3.6967 14.3033C4.7456 15.3522 6.08197 16.0665 7.53683 16.3559C8.99168 16.6453 10.4997 16.4968 11.8701 15.9291C13.2406 15.3614 14.4119 14.4001 15.236 13.1668C16.0601 11.9334 16.5 10.4834 16.5 9C16.5 8.01509 16.306 7.03982 15.9291 6.12987C15.5522 5.21993 14.9997 4.39314 14.3033 3.6967C13.6069 3.00026 12.7801 2.44781 11.8701 2.0709C10.9602 1.69399 9.98492 1.5 9 1.5ZM9 15C7.81332 15 6.65328 14.6481 5.66658 13.9888C4.67989 13.3295 3.91085 12.3925 3.45673 11.2961C3.0026 10.1997 2.88378 8.99334 3.11529 7.82946C3.3468 6.66557 3.91825 5.59647 4.75736 4.75736C5.59648 3.91824 6.66558 3.3468 7.82946 3.11529C8.99335 2.88378 10.1997 3.0026 11.2961 3.45672C12.3925 3.91085 13.3295 4.67988 13.9888 5.66658C14.6481 6.65327 15 7.81331 15 9C15 10.5913 14.3679 12.1174 13.2426 13.2426C12.1174 14.3679 10.5913 15 9 15ZM11.25 6.75C11.1017 6.75 10.9567 6.79399 10.8333 6.8764C10.71 6.95881 10.6139 7.07594 10.5571 7.21299C10.5003 7.35003 10.4855 7.50083 10.5144 7.64632C10.5434 7.7918 10.6148 7.92544 10.7197 8.03033C10.8246 8.13522 10.9582 8.20665 11.1037 8.23559C11.2492 8.26453 11.4 8.24968 11.537 8.19291C11.6741 8.13614 11.7912 8.04001 11.8736 7.91668C11.956 7.79334 12 7.64834 12 7.5C12 7.30109 11.921 7.11032 11.7803 6.96967C11.6397 6.82902 11.4489 6.75 11.25 6.75ZM11.25 9.75H6.75C6.55109 9.75 6.36033 9.82902 6.21967 9.96967C6.07902 10.1103 6 10.3011 6 10.5C6 10.6989 6.07902 10.8897 6.21967 11.0303C6.36033 11.171 6.55109 11.25 6.75 11.25C6.75 11.8467 6.98706 12.419 7.40901 12.841C7.83097 13.2629 8.40327 13.5 9 13.5C9.59674 13.5 10.169 13.2629 10.591 12.841C11.013 12.419 11.25 11.8467 11.25 11.25C11.4489 11.25 11.6397 11.171 11.7803 11.0303C11.921 10.8897 12 10.6989 12 10.5C12 10.3011 11.921 10.1103 11.7803 9.96967C11.6397 9.82902 11.4489 9.75 11.25 9.75ZM9 12C8.80109 12 8.61033 11.921 8.46967 11.7803C8.32902 11.6397 8.25 11.4489 8.25 11.25H9.75C9.75 11.4489 9.67099 11.6397 9.53033 11.7803C9.38968 11.921 9.19892 12 9 12Z" fill="white"/>
</svg>
