<svg width="32" height="32" viewBox="0 0 32 32" fill="none" xmlns="http://www.w3.org/2000/svg">
<path fill-rule="evenodd" clip-rule="evenodd" d="M11.4438 5.62517C15.6094 1.45958 22.3632 1.45958 26.5288 5.62517C30.6944 9.79076 30.6944 16.5445 26.5288 20.7101C22.656 24.5828 16.5463 24.8551 12.359 21.5269L10.4242 23.4617L13.724 26.7616C14.2447 27.2823 14.2447 28.1265 13.724 28.6472C13.2033 29.1679 12.3591 29.1679 11.8384 28.6472L8.53859 25.3473L4.76735 29.1186C4.24665 29.6393 3.40243 29.6393 2.88174 29.1186C2.36104 28.5979 2.36104 27.7537 2.88174 27.233L6.65297 23.4617L3.35314 20.1619C2.83244 19.6412 2.83244 18.797 3.35314 18.2763C3.87384 17.7556 4.71806 17.7556 5.23876 18.2763L8.53859 21.5761L10.4926 19.6221C9.04411 17.7205 8.31964 15.4425 8.31964 13.1676C8.31964 10.4399 9.3613 7.70771 11.4438 5.62517ZM24.6432 7.51079C21.519 4.38659 16.4536 4.38659 13.3295 7.51079C11.7671 9.07315 10.9863 11.1182 10.9863 13.1676C10.9863 15.2171 11.7671 17.2621 13.3295 18.8245C16.4536 21.9487 21.519 21.9487 24.6432 18.8245C27.7674 15.7003 27.7674 10.635 24.6432 7.51079Z" fill="white"/>
<path d="M13.329 7.51111C16.4532 4.38692 21.5185 4.38692 24.6427 7.51111C27.7669 10.6353 27.7669 15.7006 24.6427 18.8248C21.5185 21.949 16.4532 21.949 13.329 18.8248C11.7666 17.2625 10.9858 15.2174 10.9858 13.168C10.9858 11.1185 11.7666 9.07347 13.329 7.51111Z" fill="white" fill-opacity="0.6"/>
</svg>
