<svg width="14" height="14" viewBox="0 0 14 14" fill="none" xmlns="http://www.w3.org/2000/svg">
<path fill-rule="evenodd" clip-rule="evenodd" d="M11.7396 1.74992C11.4577 1.74992 11.2292 1.97844 11.2292 2.26034V8.16655C11.2292 8.51624 11.1198 8.85701 10.8355 9.09492C10.5721 9.31533 10.2508 9.3678 9.99579 9.3703C9.49595 9.3752 8.91442 9.18727 8.4884 9.03351C8.09856 8.8928 7.72096 8.82104 7.43862 8.78497C7.29843 8.76705 7.18425 8.75826 7.10704 8.75395C7.0685 8.75181 7.03936 8.75079 7.02102 8.75031L7.00183 8.74992L7 8.74989C5.34288 8.74989 4.06434 9.40968 3.1976 10.2601C2.5396 10.9057 2.14055 11.6377 1.97905 12.2501H12.25V2.26034C12.25 1.97844 12.0215 1.74992 11.7396 1.74992ZM13.4167 12.2501V2.26034C13.4167 1.33411 12.6658 0.583252 11.7396 0.583252C10.8133 0.583252 10.0625 1.33411 10.0625 2.26034V2.83256C9.6547 1.52919 8.4378 0.583395 7 0.583395C5.22809 0.583395 3.79167 2.01981 3.79167 3.79173C3.79167 5.56364 5.22809 7.00006 7 7.00006C8.4378 7.00006 9.6547 6.05427 10.0625 4.7509V8.16655C10.0625 8.17896 10.0621 8.18955 10.0616 8.19851C10.0433 8.20112 10.0181 8.20336 9.98436 8.20369C9.72047 8.20628 9.32231 8.09416 8.88449 7.93613C8.39254 7.75857 7.92691 7.6712 7.58648 7.62771C7.41528 7.60583 7.27319 7.59474 7.17197 7.5891C7.1213 7.58627 7.08068 7.5848 7.05158 7.58404C7.03702 7.58366 7.02532 7.58345 7.01667 7.58334L7.00599 7.58324L7.0024 7.58322L7.00105 7.58322L7.00023 7.58322C7.00012 7.58322 7 7.58322 7 8.16655L7.00023 7.58322C5.01152 7.58322 3.44608 8.38185 2.38053 9.42732C1.51738 10.2742 0.955126 11.3121 0.784229 12.2501H0.583333C0.261167 12.2501 0 12.5112 0 12.8334C0 13.1556 0.261167 13.4167 0.583333 13.4167H13.4167C13.7388 13.4167 14 13.1556 14 12.8334C14 12.5112 13.7388 12.2501 13.4167 12.2501ZM7 1.75006C5.87242 1.75006 4.95833 2.66415 4.95833 3.79173C4.95833 4.91931 5.87242 5.83339 7 5.83339C8.12758 5.83339 9.04167 4.91931 9.04167 3.79173C9.04167 2.66415 8.12758 1.75006 7 1.75006Z" fill="#BDBDBD"/>
</svg>
