<svg width="32" height="32" viewBox="0 0 32 32" fill="none" xmlns="http://www.w3.org/2000/svg">
<path fill-rule="evenodd" clip-rule="evenodd" d="M8.64398 3.7534C3.74853 5.32951 1.56499 10.6739 3.20626 15.7724C4.03913 18.1732 5.39363 20.331 7.17322 22.1013C9.61452 24.4723 12.2966 26.5589 15.1797 28.3318L15.5071 28.5279C15.8206 28.7155 16.2129 28.7122 16.5233 28.5193L16.8289 28.3294C19.7081 26.5589 22.3901 24.4723 24.8231 22.1095C26.611 20.331 27.9655 18.1732 28.7914 15.7932C30.4387 10.677 28.2461 5.33007 23.3491 3.75347L22.9949 3.64798C20.7497 3.03046 18.3638 3.33474 16.3525 4.47347L15.995 4.6854L15.6438 4.47465C13.5224 3.27093 10.987 2.99972 8.64398 3.7534ZM15.166 6.47192L15.4283 6.66006C15.7741 6.90771 16.2407 6.90278 16.5812 6.64789C18.3545 5.32031 20.6495 4.93398 22.752 5.60847C26.5461 6.83001 28.2728 11.0408 26.9417 15.1755C26.2198 17.2552 25.0247 19.159 23.4554 20.7202L22.7513 21.389C20.8545 23.1518 18.8032 24.7475 16.6253 26.1537L16.0015 26.546L16.1919 26.666C13.4405 24.974 10.8715 22.9754 8.54093 20.712C6.97991 19.159 5.78487 17.2552 5.05594 15.1547C3.73061 11.0369 5.44979 6.82905 9.24189 5.60816C11.2443 4.96407 13.4273 5.28341 15.166 6.47192ZM21.1602 8.64471C20.6472 8.48096 20.0984 8.76377 19.9345 9.27638C19.7707 9.78898 20.0537 10.3373 20.5667 10.501C21.5751 10.8229 22.2939 11.7304 22.384 12.801C22.4291 13.3372 22.9008 13.7354 23.4374 13.6903C23.9741 13.6452 24.3726 13.174 24.3275 12.6378C24.1716 10.7845 22.9221 9.20707 21.1602 8.64471Z" fill="white"/>
</svg>
