<svg width="24" height="24" viewBox="0 0 24 24" fill="none" xmlns="http://www.w3.org/2000/svg">
<g id="Iconly/Two-tone/Home">
<g id="Home">
<path id="Home_2" d="M9.15722 20.7714V17.7047C9.1572 16.9246 9.79312 16.2908 10.581 16.2856H13.4671C14.2587 16.2856 14.9005 16.9209 14.9005 17.7047V17.7047V20.7809C14.9003 21.4432 15.4343 21.9845 16.103 22H18.0271C19.9451 22 21.5 20.4607 21.5 18.5618V18.5618V9.83784C21.4898 9.09083 21.1355 8.38935 20.538 7.93303L13.9577 2.6853C12.8049 1.77157 11.1662 1.77157 10.0134 2.6853L3.46203 7.94256C2.86226 8.39702 2.50739 9.09967 2.5 9.84736V18.5618C2.5 20.4607 4.05488 22 5.97291 22H7.89696C8.58235 22 9.13797 21.4499 9.13797 20.7714V20.7714" stroke="white" stroke-width="1.5" stroke-linecap="round" stroke-linejoin="round"/>
</g>
<path id="Union" opacity="0.4" fill-rule="evenodd" clip-rule="evenodd" d="M13.1667 4.75C13.1667 4.33579 12.8309 4 12.4167 4C12.0025 4 11.6667 4.33579 11.6667 4.75V7.66324H8.75C8.33579 7.66324 8 7.99902 8 8.41324C8 8.82745 8.33579 9.16324 8.75 9.16324H11.6667V12.0764C11.6667 12.4906 12.0025 12.8264 12.4167 12.8264C12.8309 12.8264 13.1667 12.4906 13.1667 12.0764V9.16324H16.0833C16.4975 9.16324 16.8333 8.82745 16.8333 8.41324C16.8333 7.99902 16.4975 7.66324 16.0833 7.66324H13.1667V4.75Z" fill="white"/>
</g>
</svg>
