<svg width="18" height="20" viewBox="0 0 18 20" fill="none" xmlns="http://www.w3.org/2000/svg">
<path d="M17.1101 15.49L12.0001 6.73V2H13.0001C13.2654 2 13.5197 1.89464 13.7073 1.70711C13.8948 1.51957 14.0001 1.26522 14.0001 1C14.0001 0.734784 13.8948 0.48043 13.7073 0.292893C13.5197 0.105357 13.2654 0 13.0001 0H5.00015C4.73493 0 4.48058 0.105357 4.29304 0.292893C4.1055 0.48043 4.00015 0.734784 4.00015 1C4.00015 1.26522 4.1055 1.51957 4.29304 1.70711C4.48058 1.89464 4.73493 2 5.00015 2H6.00015V6.73L0.890145 15.49C0.624689 15.9457 0.48406 16.4634 0.482436 16.9908C0.480812 17.5182 0.618249 18.0367 0.880893 18.494C1.14354 18.9514 1.52211 19.3314 1.97844 19.5958C2.43478 19.8602 2.95275 19.9996 3.48015 20H14.4801C15.0075 19.9996 15.5255 19.8602 15.9818 19.5958C16.4382 19.3314 16.8168 18.9514 17.0794 18.494C17.342 18.0367 17.4795 17.5182 17.4779 16.9908C17.4762 16.4634 17.3356 15.9457 17.0701 15.49H17.1101ZM7.86015 7.49C7.94834 7.3415 7.99658 7.17268 8.00015 7V2H10.0001V7C10.002 7.17609 10.0503 7.34857 10.1401 7.5L11.0001 9H7.00015L7.86015 7.49ZM15.3801 17.49C15.2929 17.6411 15.1676 17.7668 15.0167 17.8545C14.8659 17.9422 14.6947 17.9889 14.5201 17.99H3.52015C3.34563 17.9889 3.17443 17.9422 3.02356 17.8545C2.87269 17.7668 2.7474 17.6411 2.66015 17.49C2.57238 17.338 2.52617 17.1655 2.52617 16.99C2.52617 16.8145 2.57238 16.642 2.66015 16.49L5.83015 11H12.1801L15.3801 16.5C15.4679 16.652 15.5141 16.8245 15.5141 17C15.5141 17.1755 15.4679 17.348 15.3801 17.5V17.49ZM7.00015 13C6.80236 13 6.60902 13.0586 6.44457 13.1685C6.28013 13.2784 6.15195 13.4346 6.07627 13.6173C6.00058 13.8 5.98077 14.0011 6.01936 14.1951C6.05795 14.3891 6.15319 14.5673 6.29304 14.7071C6.43289 14.847 6.61107 14.9422 6.80506 14.9808C6.99904 15.0194 7.2001 14.9996 7.38283 14.9239C7.56556 14.8482 7.72173 14.72 7.83161 14.5556C7.9415 14.3911 8.00015 14.1978 8.00015 14C8.00015 13.7348 7.89479 13.4804 7.70725 13.2929C7.51972 13.1054 7.26536 13 7.00015 13ZM11.0001 14C10.8024 14 10.609 14.0586 10.4446 14.1685C10.2801 14.2784 10.152 14.4346 10.0763 14.6173C10.0006 14.8 9.98077 15.0011 10.0194 15.1951C10.0579 15.3891 10.1532 15.5673 10.293 15.7071C10.4329 15.847 10.6111 15.9422 10.8051 15.9808C10.999 16.0194 11.2001 15.9996 11.3828 15.9239C11.5656 15.8482 11.7217 15.72 11.8316 15.5556C11.9415 15.3911 12.0001 15.1978 12.0001 15C12.0001 14.7348 11.8948 14.4804 11.7073 14.2929C11.5197 14.1054 11.2654 14 11.0001 14Z" fill="white"/>
</svg>
