<svg width="32" height="32" viewBox="0 0 32 32" fill="none" xmlns="http://www.w3.org/2000/svg">
<path fill-rule="evenodd" clip-rule="evenodd" d="M11.3753 3.91553C14.2885 2.22287 17.8692 2.25245 20.755 3.99303C23.6125 5.76906 25.3491 8.93874 25.3329 12.3484C25.2664 15.7358 23.4042 18.9198 21.0765 21.3813C19.733 22.8084 18.23 24.0703 16.5983 25.1412C16.4302 25.2384 16.2462 25.3034 16.0552 25.3332C15.8713 25.3253 15.6923 25.271 15.5342 25.1751C13.0431 23.5659 10.8576 21.5119 9.08295 19.1118C7.59796 17.1083 6.75428 14.6878 6.66651 12.1791C6.66458 8.76283 8.46219 5.6082 11.3753 3.91553ZM13.0588 13.5928C13.5488 14.8009 14.7055 15.5889 15.9887 15.5889C16.8293 15.5949 17.6375 15.2582 18.233 14.6537C18.8285 14.0493 19.1619 13.2273 19.1589 12.3709C19.1634 11.0638 18.3938 9.88284 17.2096 9.37945C16.0253 8.87607 14.6599 9.14955 13.751 10.0722C12.842 10.9949 12.5687 12.3847 13.0588 13.5928Z" fill="#FAD427"/>
<ellipse opacity="0.4" cx="15.9997" cy="27.9998" rx="6.66667" ry="1.33333" fill="#FAD427"/>
</svg>
