<svg width="32" height="32" viewBox="0 0 32 32" fill="none" xmlns="http://www.w3.org/2000/svg">
<path fill-rule="evenodd" clip-rule="evenodd" d="M20.4258 4.00008C20.4258 3.2637 21.0227 2.66675 21.7591 2.66675H27.7591C28.4955 2.66675 29.0924 3.2637 29.0924 4.00008V10.0001C29.0924 10.7365 28.4955 11.3334 27.7591 11.3334C27.0227 11.3334 26.4258 10.7365 26.4258 10.0001V7.21915L21.638 12.0068C23.2124 13.9553 23.9998 16.3303 23.9998 18.7019C23.9998 21.4297 22.9582 24.1619 20.8756 26.2444C16.7101 30.41 9.95626 30.41 5.79069 26.2444C1.62512 22.0788 1.6251 15.325 5.79068 11.1595C9.5893 7.3608 15.5403 7.02616 19.7181 10.1556L24.5403 5.33341H21.7591C21.0227 5.33341 20.4258 4.73646 20.4258 4.00008ZM18.8118 12.8722C15.6761 9.92195 10.7418 9.97956 7.67632 13.0451C4.55214 16.1692 4.55211 21.2346 7.67631 24.3588C10.8005 27.483 15.8659 27.483 18.99 24.3588C20.5524 22.7964 21.3332 20.7514 21.3332 18.7019C21.3332 16.6525 20.5524 14.6075 18.99 13.0451C18.9696 13.0247 18.9491 13.0044 18.9286 12.9843C18.9012 12.961 18.8745 12.9364 18.8487 12.9106C18.8361 12.898 18.8238 12.8852 18.8118 12.8722Z" fill="white"/>
<path d="M7.88465 13.0775C10.9501 10.012 15.8845 9.95442 19.0202 12.9047C19.0322 12.9177 19.0444 12.9304 19.057 12.943C19.0829 12.9689 19.1095 12.9934 19.1369 13.0167C19.1575 13.0369 19.178 13.0571 19.1984 13.0776C20.7607 14.6399 21.5415 16.685 21.5415 18.7344C21.5415 20.7838 20.7607 22.8289 19.1984 24.3913C16.0742 27.5154 11.0088 27.5154 7.88465 24.3913C4.76044 21.267 4.76047 16.2017 7.88465 13.0775Z" fill="white" fill-opacity="0.6"/>
</svg>
