<svg width="26" height="40" viewBox="0 0 26 40" fill="none" xmlns="http://www.w3.org/2000/svg">
<path fill-rule="evenodd" clip-rule="evenodd" d="M18.1235 12.5199C19.2878 11.2698 20.0002 9.59307 20.0002 7.75C20.0002 3.884 16.8661 0.75 13.0002 0.75C9.13411 0.75 6.00009 3.884 6.00009 7.75C6.00009 9.59307 6.71239 11.2698 7.87674 12.5199C7.7128 12.5959 7.55533 12.6721 7.40497 12.7472C6.68109 13.1092 6.07902 13.4704 5.65534 13.7428C5.4428 13.8794 5.2733 13.9949 5.15377 14.0785C5.09396 14.1204 5.04651 14.1544 5.01232 14.1792L4.971 14.2095L4.95797 14.2191L4.95338 14.2225L4.95009 14.225C4.66533 14.4386 4.45246 14.7339 4.3399 15.0716L0.8399 25.5716C0.608042 26.2671 0.83437 27.0334 1.40688 27.4916L5.12509 30.4661V37.5C5.12509 38.4665 5.9086 39.25 6.87509 39.25C7.8416 39.25 8.62509 38.4665 8.62509 37.5V29.625C8.62509 29.0933 8.38343 28.5906 7.96832 28.2584L4.54617 25.5207L7.47506 16.7341C7.49849 16.7187 7.52282 16.703 7.54798 16.6869C7.88993 16.4671 8.38161 16.1721 8.97023 15.8778C10.1837 15.271 11.6466 14.75 13.0002 14.75C14.3536 14.75 15.8165 15.271 17.0299 15.8778C17.6186 16.1721 18.1104 16.4671 18.4521 16.6869L18.5067 16.7221L21.4243 26.2046L18.2248 28.1244C17.6977 28.4406 17.3752 29.0102 17.3752 29.625V37.5C17.3752 38.4665 18.1587 39.25 19.1252 39.25C20.0915 39.25 20.8752 38.4665 20.8752 37.5V30.6159L24.4004 28.5006C25.0908 28.0864 25.4094 27.2548 25.1727 26.4853L21.6727 15.1103C21.564 14.7569 21.3452 14.4464 21.0495 14.2245L21.0469 14.2225L21.0423 14.2191L21.0292 14.2095L20.9879 14.1792C20.9538 14.1544 20.9062 14.1204 20.8465 14.0785C20.727 13.9949 20.5574 13.8794 20.3449 13.7428C19.9213 13.4704 19.3191 13.1092 18.5953 12.7472C18.4448 12.6721 18.2875 12.5959 18.1235 12.5199ZM9.50018 7.75C9.50018 5.817 11.0671 4.25 13.0002 4.25C14.9331 4.25 16.5002 5.817 16.5002 7.75C16.5002 9.683 14.9331 11.25 13.0002 11.25C11.0671 11.25 9.50018 9.683 9.50018 7.75ZM20.0002 15.625L21.0495 14.2245C21.0495 14.2245 21.0502 14.225 20.0002 15.625ZM6.00009 15.625C4.95534 14.232 4.95009 14.225 4.95009 14.225L6.00009 15.625Z" fill="#57CFC9"/>
</svg>
