<svg width="29" height="24" viewBox="0 0 29 24" fill="none" xmlns="http://www.w3.org/2000/svg">
<path fill-rule="evenodd" clip-rule="evenodd" d="M19.9385 0.0670756L13.4745 2.59169L8.08162 0.485287C7.87147 0.403206 7.63169 0.396167 7.41545 0.46573L0.561946 2.67045C0.223854 2.77921 0 3.05566 0 3.36442V18.3367C0 18.8548 0.605811 19.2132 1.17312 19.0307L7.69251 16.9335L12.8564 18.9088C13.2937 19.076 13.8069 18.9086 14.0026 18.5348C14.1984 18.1611 14.0025 17.7224 13.5652 17.5551L8.07542 15.4552C7.86668 15.3754 7.62949 15.3692 7.41545 15.4381L1.73507 17.2654V3.87762L7.68878 1.96236L13.1139 4.08135C13.3429 4.17079 13.6061 4.17079 13.8351 4.08136L20.4181 1.51027L26.5002 2.37881V15.8308L25.2122 15.6255C24.7411 15.5505 24.2881 15.816 24.2003 16.2186C24.1125 16.6212 24.4232 17.0084 24.8942 17.0834L27.2088 17.4522C27.7424 17.5372 28.2353 17.1872 28.2353 16.7232V1.75092C28.2353 1.38856 27.9289 1.07928 27.5107 1.01956L20.4421 0.010138C20.2713 -0.0142425 20.096 0.00558677 19.9385 0.0670756ZM7.723 3.29785C7.24388 3.29785 6.85547 3.62983 6.85547 4.03935V13.5414C6.85547 13.9509 7.24388 14.2829 7.723 14.2829C8.20213 14.2829 8.59053 13.9509 8.59053 13.5414V4.03935C8.59053 3.62983 8.20213 3.29785 7.723 3.29785ZM12.6074 5.87822C12.6074 5.4687 12.9958 5.13672 13.475 5.13672C13.9541 5.13672 14.3425 5.4687 14.3425 5.87822V9.50266C14.3425 9.91218 13.9541 10.2442 13.475 10.2442C12.9958 10.2442 12.6074 9.91218 12.6074 9.50266V5.87822ZM20.4232 2.62305C19.9441 2.62305 19.5557 2.95503 19.5557 3.36454V8.16648C19.5557 8.576 19.9441 8.90798 20.4232 8.90798C20.9023 8.90798 21.2907 8.576 21.2907 8.16648V3.36454C21.2907 2.95503 20.9023 2.62305 20.4232 2.62305ZM18.7099 21.8517C19.2712 21.0826 19.8324 20.2786 20.3554 19.4803C20.6347 19.0539 20.8957 18.6401 21.1351 18.2426C22.1102 16.6235 22.6687 15.3591 22.6687 14.7201C22.6687 12.8545 20.888 11.3408 18.6884 11.3408C16.4885 11.3408 14.707 12.8547 14.707 14.7201C14.707 15.3591 15.2657 16.6235 16.2409 18.2426C16.4804 18.6401 16.7415 19.0539 17.0209 19.4803C17.5439 20.2785 18.1053 21.0826 18.6668 21.8516L18.6883 21.8811L18.7099 21.8517ZM22.677 18.9219C23.7799 17.0906 24.403 15.68 24.403 14.7206C24.403 12.0342 21.8434 9.8584 18.6877 9.8584C15.5318 9.8584 12.9712 12.0343 12.9712 14.7206C12.9712 15.68 13.5944 17.0907 14.6975 18.922C14.9467 19.3357 15.2174 19.7646 15.5063 20.2055C16.0439 21.026 16.619 21.8497 17.194 22.6373C17.3953 22.9129 17.5823 23.1646 17.7503 23.3872C17.8516 23.5214 17.9245 23.6167 17.9642 23.668C18.3073 24.111 19.0681 24.111 19.4111 23.6679C19.4508 23.6166 19.5237 23.5214 19.625 23.3871C19.793 23.1645 19.9799 22.9129 20.1812 22.6372C20.756 21.8496 21.331 21.026 21.8685 20.2054C22.1573 19.7645 22.4279 19.3356 22.677 18.9219ZM19.0209 14.4224C19.0209 14.5743 18.8738 14.6992 18.6889 14.6992C18.504 14.6992 18.3569 14.5743 18.3569 14.4224C18.3569 14.269 18.5044 14.1436 18.6889 14.1436C18.8734 14.1436 19.0209 14.269 19.0209 14.4224ZM18.6881 16.1818C17.5476 16.1818 16.6211 15.3952 16.6211 14.422C16.6211 13.448 17.5472 12.6602 18.6881 12.6602C19.8291 12.6602 20.7552 13.448 20.7552 14.422C20.7552 15.3952 19.8287 16.1818 18.6881 16.1818Z" fill="black"/>
<mask id="mask0" mask-type="alpha" maskUnits="userSpaceOnUse" x="0" y="0" width="29" height="25">
<path fill-rule="evenodd" clip-rule="evenodd" d="M19.9385 0.0670756L13.4745 2.59169L8.08162 0.485287C7.87147 0.403206 7.63169 0.396167 7.41545 0.46573L0.561946 2.67045C0.223854 2.77921 0 3.05566 0 3.36442V18.3367C0 18.8548 0.605811 19.2132 1.17312 19.0307L7.69251 16.9335L12.8564 18.9088C13.2937 19.076 13.8069 18.9086 14.0026 18.5348C14.1984 18.1611 14.0025 17.7224 13.5652 17.5551L8.07542 15.4552C7.86668 15.3754 7.62949 15.3692 7.41545 15.4381L1.73507 17.2654V3.87762L7.68878 1.96236L13.1139 4.08135C13.3429 4.17079 13.6061 4.17079 13.8351 4.08136L20.4181 1.51027L26.5002 2.37881V15.8308L25.2122 15.6255C24.7411 15.5505 24.2881 15.816 24.2003 16.2186C24.1125 16.6212 24.4232 17.0084 24.8942 17.0834L27.2088 17.4522C27.7424 17.5372 28.2353 17.1872 28.2353 16.7232V1.75092C28.2353 1.38856 27.9289 1.07928 27.5107 1.01956L20.4421 0.010138C20.2713 -0.0142425 20.096 0.00558677 19.9385 0.0670756ZM7.723 3.29785C7.24388 3.29785 6.85547 3.62983 6.85547 4.03935V13.5414C6.85547 13.9509 7.24388 14.2829 7.723 14.2829C8.20213 14.2829 8.59053 13.9509 8.59053 13.5414V4.03935C8.59053 3.62983 8.20213 3.29785 7.723 3.29785ZM12.6074 5.87822C12.6074 5.4687 12.9958 5.13672 13.475 5.13672C13.9541 5.13672 14.3425 5.4687 14.3425 5.87822V9.50266C14.3425 9.91218 13.9541 10.2442 13.475 10.2442C12.9958 10.2442 12.6074 9.91218 12.6074 9.50266V5.87822ZM20.4232 2.62305C19.9441 2.62305 19.5557 2.95503 19.5557 3.36454V8.16648C19.5557 8.576 19.9441 8.90798 20.4232 8.90798C20.9023 8.90798 21.2907 8.576 21.2907 8.16648V3.36454C21.2907 2.95503 20.9023 2.62305 20.4232 2.62305ZM18.7099 21.8517C19.2712 21.0826 19.8324 20.2786 20.3554 19.4803C20.6347 19.0539 20.8957 18.6401 21.1351 18.2426C22.1102 16.6235 22.6687 15.3591 22.6687 14.7201C22.6687 12.8545 20.888 11.3408 18.6884 11.3408C16.4885 11.3408 14.707 12.8547 14.707 14.7201C14.707 15.3591 15.2657 16.6235 16.2409 18.2426C16.4804 18.6401 16.7415 19.0539 17.0209 19.4803C17.5439 20.2785 18.1053 21.0826 18.6668 21.8516L18.6883 21.8811L18.7099 21.8517ZM22.677 18.9219C23.7799 17.0906 24.403 15.68 24.403 14.7206C24.403 12.0342 21.8434 9.8584 18.6877 9.8584C15.5318 9.8584 12.9712 12.0343 12.9712 14.7206C12.9712 15.68 13.5944 17.0907 14.6975 18.922C14.9467 19.3357 15.2174 19.7646 15.5063 20.2055C16.0439 21.026 16.619 21.8497 17.194 22.6373C17.3953 22.9129 17.5823 23.1646 17.7503 23.3872C17.8516 23.5214 17.9245 23.6167 17.9642 23.668C18.3073 24.111 19.0681 24.111 19.4111 23.6679C19.4508 23.6166 19.5237 23.5214 19.625 23.3871C19.793 23.1645 19.9799 22.9129 20.1812 22.6372C20.756 21.8496 21.331 21.026 21.8685 20.2054C22.1573 19.7645 22.4279 19.3356 22.677 18.9219ZM19.0209 14.4224C19.0209 14.5743 18.8738 14.6992 18.6889 14.6992C18.504 14.6992 18.3569 14.5743 18.3569 14.4224C18.3569 14.269 18.5044 14.1436 18.6889 14.1436C18.8734 14.1436 19.0209 14.269 19.0209 14.4224ZM18.6881 16.1818C17.5476 16.1818 16.6211 15.3952 16.6211 14.422C16.6211 13.448 17.5472 12.6602 18.6881 12.6602C19.8291 12.6602 20.7552 13.448 20.7552 14.422C20.7552 15.3952 19.8287 16.1818 18.6881 16.1818Z" fill="white"/>
</mask>
<g mask="url(#mask0)">
<path fill-rule="evenodd" clip-rule="evenodd" d="M70.5615 -36.8276H-42.2177V61.7916H70.5615V-36.8276Z" fill="#57CECA"/>
</g>
</svg>
