<svg width="18" height="18" viewBox="0 0 18 18" fill="none" xmlns="http://www.w3.org/2000/svg">
<path fill-rule="evenodd" clip-rule="evenodd" d="M12.251 2.06274H5.74924C3.48349 2.06274 2.06299 3.66699 2.06299 5.93724V12.0632C2.06299 14.3335 3.47599 15.9377 5.74924 15.9377H12.2502C14.5235 15.9377 15.938 14.3335 15.938 12.0632V5.93724C15.938 3.66699 14.5235 2.06274 12.251 2.06274Z" stroke="white" stroke-width="1.5" stroke-linecap="round" stroke-linejoin="round"/>
<path opacity="0.4" d="M5.64069 9.89806C5.14494 9.89806 4.74219 9.49531 4.74219 9.00031C4.74219 8.50531 5.14494 8.10181 5.64069 8.10181C6.13644 8.10181 6.53919 8.50531 6.53919 9.00031C6.53919 9.49531 6.13644 9.89806 5.64069 9.89806Z" fill="white"/>
<path opacity="0.4" d="M9.00006 9.89806C8.50431 9.89806 8.10156 9.49531 8.10156 9.00031C8.10156 8.50531 8.50431 8.10181 9.00006 8.10181C9.49581 8.10181 9.89856 8.50531 9.89856 9.00031C9.89856 9.49531 9.49581 9.89806 9.00006 9.89806Z" fill="white"/>
<path opacity="0.4" d="M12.3594 9.89806C11.8637 9.89806 11.4609 9.49531 11.4609 9.00031C11.4609 8.50531 11.8637 8.10181 12.3594 8.10181C12.8552 8.10181 13.2579 8.50531 13.2579 9.00031C13.2579 9.49531 12.8552 9.89806 12.3594 9.89806Z" fill="white"/>
</svg>
