<svg width="24" height="24" viewBox="0 0 24 24" fill="none" xmlns="http://www.w3.org/2000/svg">
<path d="M18.4998 5.49982H14.4998C14.2346 5.49982 13.9802 5.60517 13.7927 5.79271C13.6052 5.98025 13.4998 6.2346 13.4998 6.49982C13.4998 6.76503 13.6052 7.01939 13.7927 7.20692C13.9802 7.39446 14.2346 7.49982 14.4998 7.49982H18.4998C18.765 7.49982 19.0194 7.60517 19.2069 7.79271C19.3945 7.98025 19.4998 8.2346 19.4998 8.49982V18.2198L17.9298 16.7698C17.7454 16.5972 17.5025 16.5007 17.2498 16.4998H8.49982C8.2346 16.4998 7.98025 16.3945 7.79271 16.2069C7.60517 16.0194 7.49982 15.765 7.49982 15.4998V14.4998C7.49982 14.2346 7.39446 13.9802 7.20692 13.7927C7.01939 13.6052 6.76503 13.4998 6.49982 13.4998C6.2346 13.4998 5.98025 13.6052 5.79271 13.7927C5.60517 13.9802 5.49982 14.2346 5.49982 14.4998V15.4998C5.49982 16.2955 5.81589 17.0585 6.3785 17.6211C6.9411 18.1837 7.70417 18.4998 8.49982 18.4998H16.8598L19.8598 21.2298C20.0442 21.4025 20.2872 21.4989 20.5398 21.4998C20.677 21.4983 20.8126 21.4712 20.9398 21.4198C21.1187 21.3417 21.2708 21.213 21.3774 21.0496C21.484 20.8861 21.5405 20.695 21.5398 20.4998V8.49982C21.5399 8.10246 21.4609 7.70906 21.3077 7.34245C21.1544 6.97584 20.9299 6.64333 20.647 6.36423C20.3642 6.08512 20.0288 5.86498 19.6602 5.71659C19.2915 5.5682 18.8971 5.49452 18.4998 5.49982ZM9.07982 12.4998H11.4998C11.765 12.4998 12.0194 12.3945 12.2069 12.2069C12.3945 12.0194 12.4998 11.765 12.4998 11.4998V9.07982C12.5006 8.94821 12.4754 8.81775 12.4256 8.69591C12.3758 8.57407 12.3025 8.46326 12.2098 8.36982L6.62982 2.78982C6.44245 2.60357 6.189 2.49902 5.92482 2.49902C5.66063 2.49902 5.40718 2.60357 5.21982 2.78982L2.78982 5.21982C2.60357 5.40718 2.49902 5.66063 2.49902 5.92482C2.49902 6.189 2.60357 6.44245 2.78982 6.62982L8.36982 12.2098C8.46326 12.3025 8.57407 12.3758 8.69591 12.4256C8.81775 12.4754 8.94821 12.5006 9.07982 12.4998ZM5.91982 4.90982L10.4998 9.48982V10.4898H9.49982L4.90982 5.91982L5.91982 4.90982Z" fill="#008778"/>
</svg>
