<svg width="24" height="24" viewBox="0 0 24 24" fill="none" xmlns="http://www.w3.org/2000/svg">
<path d="M19.5002 4.5002C18.54 3.54025 17.2379 3.00098 15.8802 3.00098C14.5225 3.00098 13.2203 3.54025 12.2602 4.5002L4.50018 12.2602C4.01333 12.733 3.62534 13.2979 3.35877 13.922C3.09219 14.5462 2.95236 15.2171 2.9474 15.8957C2.94244 16.5743 3.07245 17.2472 3.32987 17.8752C3.5873 18.5031 3.96699 19.0736 4.44688 19.5535C4.92677 20.0334 5.49727 20.4131 6.12522 20.6705C6.75317 20.9279 7.42604 21.0579 8.10468 21.053C8.78333 21.048 9.45422 20.9082 10.0783 20.6416C10.7025 20.375 11.2674 19.9871 11.7402 19.5002L19.5002 11.7402C20.4601 10.78 20.9994 9.47792 20.9994 8.1202C20.9994 6.76248 20.4601 5.46036 19.5002 4.5002V4.5002ZM10.3202 18.0902C9.72421 18.6535 8.93524 18.9674 8.11518 18.9674C7.29512 18.9674 6.50615 18.6535 5.91018 18.0902C5.32822 17.5039 5.00164 16.7113 5.00164 15.8852C5.00164 15.0591 5.32822 14.2665 5.91018 13.6802L9.09018 10.5002L13.5002 14.9102L10.3202 18.0902ZM18.0902 10.3202L14.9102 13.5002L10.5002 9.0902L13.6802 5.9102C14.2712 5.35652 15.0544 5.05435 15.8641 5.06756C16.6739 5.08076 17.4468 5.40831 18.0194 5.98097C18.5921 6.55362 18.9196 7.32651 18.9328 8.13627C18.946 8.94602 18.6439 9.72918 18.0902 10.3202V10.3202Z" fill="white"/>
</svg>
