<svg width="18" height="18" viewBox="0 0 18 18" fill="none" xmlns="http://www.w3.org/2000/svg">
<path d="M12.75 8.25H12C11.8011 8.25 11.6103 8.32902 11.4697 8.46967C11.329 8.61032 11.25 8.80109 11.25 9C11.25 9.19891 11.329 9.38968 11.4697 9.53033C11.6103 9.67098 11.8011 9.75 12 9.75H12.75C12.9489 9.75 13.1397 9.67098 13.2803 9.53033C13.421 9.38968 13.5 9.19891 13.5 9C13.5 8.80109 13.421 8.61032 13.2803 8.46967C13.1397 8.32902 12.9489 8.25 12.75 8.25ZM12.75 11.25H12C11.8011 11.25 11.6103 11.329 11.4697 11.4697C11.329 11.6103 11.25 11.8011 11.25 12C11.25 12.1989 11.329 12.3897 11.4697 12.5303C11.6103 12.671 11.8011 12.75 12 12.75H12.75C12.9489 12.75 13.1397 12.671 13.2803 12.5303C13.421 12.3897 13.5 12.1989 13.5 12C13.5 11.8011 13.421 11.6103 13.2803 11.4697C13.1397 11.329 12.9489 11.25 12.75 11.25ZM8.25 6.75H12.75C12.9489 6.75 13.1397 6.67098 13.2803 6.53033C13.421 6.38968 13.5 6.19891 13.5 6C13.5 5.80109 13.421 5.61032 13.2803 5.46967C13.1397 5.32902 12.9489 5.25 12.75 5.25H8.25C8.05109 5.25 7.86032 5.32902 7.71967 5.46967C7.57902 5.61032 7.5 5.80109 7.5 6C7.5 6.19891 7.57902 6.38968 7.71967 6.53033C7.86032 6.67098 8.05109 6.75 8.25 6.75ZM15.75 2.25H5.25C5.05109 2.25 4.86032 2.32902 4.71967 2.46967C4.57902 2.61032 4.5 2.80109 4.5 3V5.25H2.25C2.05109 5.25 1.86032 5.32902 1.71967 5.46967C1.57902 5.61032 1.5 5.80109 1.5 6V13.5C1.5 14.0967 1.73705 14.669 2.15901 15.091C2.58097 15.5129 3.15326 15.75 3.75 15.75H13.5C14.2956 15.75 15.0587 15.4339 15.6213 14.8713C16.1839 14.3087 16.5 13.5456 16.5 12.75V3C16.5 2.80109 16.421 2.61032 16.2803 2.46967C16.1397 2.32902 15.9489 2.25 15.75 2.25ZM4.5 13.5C4.5 13.6989 4.42098 13.8897 4.28033 14.0303C4.13968 14.171 3.94891 14.25 3.75 14.25C3.55109 14.25 3.36032 14.171 3.21967 14.0303C3.07902 13.8897 3 13.6989 3 13.5V6.75H4.5V13.5ZM15 12.75C15 13.1478 14.842 13.5294 14.5607 13.8107C14.2794 14.092 13.8978 14.25 13.5 14.25H5.865C5.95232 14.0095 5.99797 13.7559 6 13.5V3.75H15V12.75ZM8.25 9.75H9C9.19891 9.75 9.38968 9.67098 9.53033 9.53033C9.67098 9.38968 9.75 9.19891 9.75 9C9.75 8.80109 9.67098 8.61032 9.53033 8.46967C9.38968 8.32902 9.19891 8.25 9 8.25H8.25C8.05109 8.25 7.86032 8.32902 7.71967 8.46967C7.57902 8.61032 7.5 8.80109 7.5 9C7.5 9.19891 7.57902 9.38968 7.71967 9.53033C7.86032 9.67098 8.05109 9.75 8.25 9.75ZM8.25 12.75H9C9.19891 12.75 9.38968 12.671 9.53033 12.5303C9.67098 12.3897 9.75 12.1989 9.75 12C9.75 11.8011 9.67098 11.6103 9.53033 11.4697C9.38968 11.329 9.19891 11.25 9 11.25H8.25C8.05109 11.25 7.86032 11.329 7.71967 11.4697C7.57902 11.6103 7.5 11.8011 7.5 12C7.5 12.1989 7.57902 12.3897 7.71967 12.5303C7.86032 12.671 8.05109 12.75 8.25 12.75Z" fill="white"/>
</svg>
