<svg width="42" height="52" viewBox="0 0 42 52" fill="none" xmlns="http://www.w3.org/2000/svg">
<path d="M20.9814 14.625C23.5185 14.625 25.5752 12.0786 25.5752 8.9375C25.5752 5.79638 23.5185 3.25 20.9814 3.25C18.4444 3.25 16.3877 5.79638 16.3877 8.9375C16.3877 12.0786 18.4444 14.625 20.9814 14.625Z" stroke="#57CECA" stroke-width="2" stroke-linecap="round" stroke-linejoin="round"/>
<path d="M25.2511 27.364L30.9518 32.8535C31.321 33.3106 31.8217 33.5674 32.3439 33.5674C32.866 33.5674 33.3668 33.3106 33.736 32.8535C34.1052 32.3963 34.3126 31.7764 34.3126 31.1299C34.3126 30.4834 34.1052 29.8634 33.736 29.4063L27.2394 19.0649C26.9351 18.6871 26.5734 18.3875 26.1753 18.1833C25.7771 17.9791 25.3502 17.8743 24.9193 17.875H17.0443C16.6133 17.8743 16.1864 17.9791 15.7882 18.1833C15.3901 18.3875 15.0284 18.6871 14.7241 19.0649L8.22751 29.4063C8.0447 29.6327 7.89968 29.9014 7.80074 30.1971C7.7018 30.4928 7.65088 30.8098 7.65088 31.1299C7.65088 31.45 7.7018 31.767 7.80074 32.0627C7.89968 32.3584 8.0447 32.6271 8.22751 32.8535C8.41033 33.0798 8.62736 33.2594 8.86622 33.3819C9.10508 33.5043 9.36109 33.5674 9.61963 33.5674C9.87817 33.5674 10.1342 33.5043 10.373 33.3819C10.6119 33.2594 10.8289 33.0798 11.0117 32.8535L16.7124 27.364L12.1623 45.1565C11.9416 45.7424 11.918 46.4128 12.0966 47.0203C12.2752 47.6278 12.6414 48.1226 13.1146 48.3958C13.5878 48.669 14.1293 48.6982 14.62 48.4771C15.1106 48.256 15.5102 47.8027 15.7309 47.2168L20.9818 36.9851L26.2326 47.2168C26.4539 47.8013 26.8536 48.2533 27.3437 48.4734C27.8339 48.6936 28.3746 48.6641 28.8472 48.3912C29.3198 48.1184 29.6857 47.6246 29.8645 47.0181C30.0434 46.4117 30.0206 45.7422 29.8012 45.1565L25.2511 27.364Z" stroke="#57CECA" stroke-width="2" stroke-linecap="round" stroke-linejoin="round"/>
</svg>
