<svg width="14" height="14" viewBox="0 0 14 14" fill="none" xmlns="http://www.w3.org/2000/svg">
<path fill-rule="evenodd" clip-rule="evenodd" d="M8.55452 6.57312C8.85821 6.21672 9.0415 5.75461 9.0415 5.24967C9.0415 4.12209 8.12742 3.20801 6.99984 3.20801C5.87226 3.20801 4.95817 4.12209 4.95817 5.24967C4.95817 5.75461 5.14147 6.21672 5.44515 6.57312C4.62677 7.08969 4.08317 8.00203 4.08317 9.04134C4.08317 9.36351 4.34434 9.62467 4.6665 9.62467C4.98867 9.62467 5.24984 9.36351 5.24984 9.04134C5.24984 8.07484 6.03333 7.29134 6.99984 7.29134C7.96634 7.29134 8.74984 8.07484 8.74984 9.04134C8.74984 9.36351 9.01101 9.62467 9.33317 9.62467C9.65534 9.62467 9.9165 9.36351 9.9165 9.04134C9.9165 8.00203 9.37291 7.08969 8.55452 6.57312ZM6.99984 4.37467C6.51659 4.37467 6.12484 4.76643 6.12484 5.24967C6.12484 5.73292 6.51659 6.12467 6.99984 6.12467C7.48309 6.12467 7.87484 5.73292 7.87484 5.24967C7.87484 4.76643 7.48309 4.37467 6.99984 4.37467Z" fill="#BDBDBD"/>
<path fill-rule="evenodd" clip-rule="evenodd" d="M6.83892 0.606367C6.94569 0.575207 7.05915 0.575222 7.16591 0.606409L12.4134 2.1393C12.6622 2.21198 12.8332 2.44007 12.8332 2.69924V5.84284C12.8332 9.42454 10.5319 12.2714 7.185 13.3866C7.06531 13.4265 6.93593 13.4265 6.81625 13.3866C3.46851 12.2715 1.1665 9.42391 1.1665 5.84138V2.69924C1.1665 2.44001 1.33757 2.21189 1.58641 2.13926L6.83892 0.606367ZM2.33317 3.13666V5.84138C2.33317 8.80466 4.18074 11.2024 7.00057 12.2159C9.81957 11.2024 11.6665 8.80531 11.6665 5.84284V3.13655L7.00227 1.77403L2.33317 3.13666Z" fill="#BDBDBD"/>
</svg>
