<svg width="14" height="14" viewBox="0 0 14 14" fill="none" xmlns="http://www.w3.org/2000/svg">
<path fill-rule="evenodd" clip-rule="evenodd" d="M4.37516 3.20801C4.37516 1.75826 5.55042 0.583008 7.00016 0.583008C8.44991 0.583008 9.62516 1.75826 9.62516 3.20801C9.62516 4.65776 8.44991 5.83301 7.00016 5.83301C5.55042 5.83301 4.37516 4.65776 4.37516 3.20801ZM7.00016 1.74967C6.19475 1.74967 5.54183 2.40259 5.54183 3.20801C5.54183 4.01342 6.19475 4.66634 7.00016 4.66634C7.80558 4.66634 8.4585 4.01342 8.4585 3.20801C8.4585 2.40259 7.80558 1.74967 7.00016 1.74967Z" fill="#BDBDBD"/>
<path d="M6.41683 7.87467C3.77302 7.87467 1.75016 9.76553 1.75016 11.958C1.75016 12.2802 1.489 12.5413 1.16683 12.5413C0.844663 12.5413 0.583496 12.2802 0.583496 11.958C0.583496 8.9958 3.26167 6.70801 6.41683 6.70801C6.739 6.70801 7.00016 6.96917 7.00016 7.29134C7.00016 7.61351 6.739 7.87467 6.41683 7.87467Z" fill="#BDBDBD"/>
<path fill-rule="evenodd" clip-rule="evenodd" d="M10.0384 7.02501C10.1493 6.99123 10.2677 6.99123 10.3785 7.02501L10.3857 7.02719L10.4041 7.03287C10.4199 7.03779 10.4429 7.04493 10.4718 7.05407C10.5297 7.07234 10.6119 7.09865 10.7104 7.13117C10.9066 7.19595 11.1707 7.28646 11.437 7.38789C11.6988 7.48762 11.9813 7.60491 12.2057 7.72455C12.3151 7.78289 12.4358 7.8549 12.5371 7.93983C12.5878 7.9823 12.6519 8.04301 12.7072 8.12305C12.7609 8.20086 12.8335 8.33661 12.8335 8.51634C12.8335 9.93104 12.2508 10.9908 11.6803 11.6863C11.3954 12.0336 11.1107 12.2941 10.8954 12.469C10.7875 12.5568 10.6961 12.6237 10.6297 12.67C10.5964 12.6932 10.5693 12.7112 10.5494 12.7241C10.5394 12.7306 10.5313 12.7358 10.525 12.7398L10.5171 12.7447L10.5142 12.7465L10.5131 12.7472L10.5126 12.7475C10.3261 12.8611 10.0909 12.8611 9.90444 12.7475L9.90393 12.7472L9.90278 12.7465L9.89992 12.7447L9.89199 12.7398C9.88573 12.7358 9.87756 12.7306 9.8676 12.7241C9.84769 12.7112 9.82059 12.6932 9.78734 12.67C9.7209 12.6237 9.62953 12.5568 9.52159 12.469C9.3063 12.2941 9.02154 12.0336 8.73666 11.6863C8.16616 10.9908 7.5835 9.93104 7.5835 8.51634C7.5835 8.33661 7.65605 8.20086 7.7098 8.12305C7.76509 8.04301 7.82919 7.9823 7.87986 7.93983C7.98119 7.8549 8.10193 7.78289 8.21133 7.72455C8.43564 7.60491 8.71819 7.48762 8.98 7.38789C9.24625 7.28646 9.51038 7.19595 9.70661 7.13117C9.80508 7.09865 9.8873 7.07234 9.94518 7.05407C9.97414 7.04493 9.99706 7.03779 10.0129 7.03287L10.0313 7.02719L10.0384 7.02501ZM10.2085 11.5233C10.0473 11.388 9.84293 11.1954 9.63867 10.9464C9.22239 10.4389 8.81651 9.7111 8.7575 8.75548L8.76035 8.75396C8.91885 8.66943 9.14672 8.57283 9.39533 8.47812C9.63949 8.38511 9.88578 8.30062 10.0724 8.23901C10.1228 8.22238 10.1686 8.20749 10.2085 8.19464C10.2484 8.20749 10.2942 8.22238 10.3446 8.23901C10.5312 8.30062 10.7775 8.38511 11.0217 8.47812C11.2703 8.57283 11.4981 8.66943 11.6566 8.75396L11.6595 8.75548C11.6005 9.71109 11.1946 10.4389 10.7783 10.9464C10.5741 11.1954 10.3697 11.388 10.2085 11.5233Z" fill="#BDBDBD"/>
</svg>
