<svg width="24" height="24" viewBox="0 0 24 24" fill="none" xmlns="http://www.w3.org/2000/svg">
<path fill-rule="evenodd" clip-rule="evenodd" d="M4.29289 2.79289C4.68342 2.40237 5.31658 2.40237 5.70711 2.79289L8.70711 5.79289C9.09763 6.18342 9.09763 6.81658 8.70711 7.20711C8.31658 7.59763 7.68342 7.59763 7.29289 7.20711L6 5.91421V18.0858L7.29289 16.7929C7.68342 16.4024 8.31658 16.4024 8.70711 16.7929C9.09763 17.1834 9.09763 17.8166 8.70711 18.2071L5.70711 21.2071C5.31658 21.5976 4.68342 21.5976 4.29289 21.2071L1.29289 18.2071C0.902369 17.8166 0.902369 17.1834 1.29289 16.7929C1.68342 16.4024 2.31658 16.4024 2.70711 16.7929L4 18.0858V5.91421L2.70711 7.20711C2.31658 7.59763 1.68342 7.59763 1.29289 7.20711C0.902369 6.81658 0.902369 6.18342 1.29289 5.79289L4.29289 2.79289ZM10 4.5C10 3.94772 10.4477 3.5 11 3.5H22C22.5523 3.5 23 3.94772 23 4.5C23 5.05228 22.5523 5.5 22 5.5H11C10.4477 5.5 10 5.05228 10 4.5ZM10 9.5C10 8.94772 10.4477 8.5 11 8.5H18C18.5523 8.5 19 8.94772 19 9.5C19 10.0523 18.5523 10.5 18 10.5H11C10.4477 10.5 10 10.0523 10 9.5ZM10 14.5C10 13.9477 10.4477 13.5 11 13.5H22C22.5523 13.5 23 13.9477 23 14.5C23 15.0523 22.5523 15.5 22 15.5H11C10.4477 15.5 10 15.0523 10 14.5ZM10 19.5C10 18.9477 10.4477 18.5 11 18.5H18C18.5523 18.5 19 18.9477 19 19.5C19 20.0523 18.5523 20.5 18 20.5H11C10.4477 20.5 10 20.0523 10 19.5Z" fill="#B09086" fill-opacity="0.65"/>
</svg>
