<svg width="60" height="60" viewBox="0 0 60 60" fill="none" xmlns="http://www.w3.org/2000/svg">
<g id="Iconly/Bulk/Scan">
<g id="Scan">
<path id="Combined Shape" opacity="0.4" fill-rule="evenodd" clip-rule="evenodd" d="M22.9716 9.36804C22.9716 8.33596 22.1191 7.5 21.0691 7.5H21.0666L16.9941 7.50245C11.5166 7.50735 7.05908 11.8833 7.05908 17.257V21.905C7.05908 22.9346 7.91158 23.7731 8.96158 23.7731C10.0116 23.7731 10.8666 22.9346 10.8666 21.905V17.257C10.8666 13.9401 13.6166 11.241 16.9966 11.2361L21.0691 11.2336C22.1216 11.2336 22.9716 10.3977 22.9716 9.36804ZM42.9838 7.50029H39.0013C37.9513 7.50029 37.0988 8.33626 37.0988 9.36834C37.0988 10.398 37.9513 11.2315 39.0013 11.2315H42.9838C46.3763 11.2315 49.1363 13.9379 49.1363 17.2646V21.9053C49.1363 22.9349 49.9888 23.7734 51.0388 23.7734C52.0913 23.7734 52.9413 22.9349 52.9413 21.9053V17.2646C52.9413 11.8787 48.4763 7.50029 42.9838 7.50029ZM23.0961 16.8559H36.9061C38.4186 16.8559 39.8711 17.4517 40.9286 18.5132C41.9936 19.5845 42.5836 21.0235 42.5811 22.5214V25.6348C42.5686 26 42.2711 26.2967 41.8986 26.3065H18.0986C17.7286 26.2942 17.4311 25.9976 17.4236 25.6348V22.5214C17.3961 19.4202 19.9361 16.8878 23.0961 16.8559Z" fill="#57CECA"/>
<path id="Fill 7" d="M55.5975 30.1025H4.405C3.355 30.1025 2.5 30.9385 2.5 31.9706C2.5 33.0002 3.355 33.8337 4.405 33.8337H7.0575V42.7425C7.0575 48.1162 11.5175 52.4921 16.995 52.497L21.0675 52.4995C22.12 52.4995 22.97 51.6635 22.9725 50.6314C22.9725 49.6018 22.12 48.7658 21.07 48.7658L17 48.7634C13.6175 48.7585 10.865 46.0594 10.865 42.7425V33.8337H17.4225V36.3122C17.3975 39.4133 19.935 41.9482 23.095 41.9776H36.905C40.0675 41.9482 42.605 39.4133 42.58 36.3122V33.8337H49.1375V42.7327C49.1375 46.0618 46.3775 48.7658 42.985 48.7658H39.0025C37.95 48.7658 37.0975 49.6018 37.0975 50.6314C37.0975 51.6635 37.95 52.4995 39.0025 52.4995H42.985C48.475 52.4995 52.9425 48.1211 52.9425 42.7327V33.8337H55.5975C56.6475 33.8337 57.5 33.0002 57.5 31.9706C57.5 30.9385 56.6475 30.1025 55.5975 30.1025Z" fill="#57CECA"/>
</g>
</g>
</svg>
