<svg width="14" height="14" viewBox="0 0 14 14" fill="none" xmlns="http://www.w3.org/2000/svg">
<g id="Iconly/Bulk/Shield Done">
<g id="Shield Done">
<path id="Fill 1" opacity="0.4" d="M7.05054 12.8337C6.9783 12.8337 6.90607 12.8171 6.84088 12.7833L4.74024 11.6959C4.14417 11.387 3.67788 11.0404 3.31378 10.6366C2.51687 9.75338 2.07348 8.61966 2.06644 7.44361L2.04177 3.57281C2.03883 3.12607 2.32718 2.72509 2.75823 2.57408L6.61537 1.22929C6.84441 1.14749 7.09987 1.14634 7.33301 1.22528L11.2048 2.52432C11.6382 2.66904 11.9313 3.06715 11.9336 3.51332L11.9583 7.38698C11.9659 8.56131 11.5378 9.69962 10.7532 10.5925C10.3932 11.0021 9.93106 11.3539 9.34086 11.6685L7.25901 12.7805C7.19442 12.8154 7.12277 12.8331 7.05054 12.8337Z" fill="#AE9284"/>
<path id="Fill 4" d="M6.60292 8.35436C6.49017 8.35493 6.37741 8.31431 6.2905 8.2308L5.17235 7.15542C4.99969 6.98839 4.99793 6.71726 5.16882 6.54909C5.33972 6.38035 5.61867 6.37863 5.79191 6.54509L6.59646 7.31844L8.56086 5.38162C8.73234 5.21287 9.01129 5.21116 9.18394 5.37761C9.35718 5.54464 9.35895 5.81634 9.18805 5.98394L6.91358 8.2268C6.82784 8.31145 6.71568 8.35378 6.60292 8.35436Z" fill="#AE9284"/>
</g>
</g>
</svg>
