<svg width="20" height="21" viewBox="0 0 20 21" fill="none" xmlns="http://www.w3.org/2000/svg">
<path d="M6.82011 10.29C6.72638 10.3829 6.65198 10.4935 6.60121 10.6154C6.55045 10.7372 6.52431 10.8679 6.52431 11C6.52431 11.132 6.55045 11.2627 6.60121 11.3845C6.65198 11.5064 6.72638 11.617 6.82011 11.71C7.00747 11.8962 7.26092 12.0007 7.5251 12.0007C7.78929 12.0007 8.04274 11.8962 8.23011 11.71C8.32383 11.617 8.39823 11.5064 8.449 11.3845C8.49977 11.2627 8.5259 11.132 8.5259 11C8.5259 10.8679 8.49977 10.7372 8.449 10.6154C8.39823 10.4935 8.32383 10.3829 8.23011 10.29C8.04274 10.1037 7.78929 9.99916 7.5251 9.99916C7.26092 9.99916 7.00747 10.1037 6.82011 10.29ZM9.29011 12.77C9.10386 12.9573 8.99931 13.2108 8.99931 13.475C8.99931 13.7391 9.10386 13.9926 9.29011 14.18C9.38307 14.2737 9.49367 14.3481 9.61553 14.3988C9.73739 14.4496 9.86809 14.4758 10.0001 14.4758C10.1321 14.4758 10.2628 14.4496 10.3847 14.3988C10.5065 14.3481 10.6171 14.2737 10.7101 14.18C10.8964 13.9926 11.0009 13.7391 11.0009 13.475C11.0009 13.2108 10.8964 12.9573 10.7101 12.77C10.6171 12.6762 10.5065 12.6018 10.3847 12.5511C10.2628 12.5003 10.1321 12.4742 10.0001 12.4742C9.86809 12.4742 9.73739 12.5003 9.61553 12.5511C9.49367 12.6018 9.38307 12.6762 9.29011 12.77ZM18.2901 2.76996C17.2023 1.67318 15.7334 1.03821 14.1892 0.997231C12.645 0.956251 11.1445 1.51242 10.0001 2.54996C8.86096 1.52454 7.37257 0.973937 5.84033 1.01113C4.30808 1.04832 2.84817 1.67048 1.76011 2.74996C0.679123 3.8398 0.0569543 5.3025 0.0216118 6.83711C-0.0137308 8.37172 0.540441 9.86151 1.57011 11C0.800278 11.8606 0.295144 12.9251 0.115317 14.0657C-0.0645102 15.2063 0.0886103 16.3746 0.556304 17.4303C1.024 18.4861 1.78639 19.3844 2.75201 20.0176C3.71762 20.6508 4.84544 20.9919 6.00011 21C7.48033 21.0015 8.90744 20.4485 10.0001 19.45C11.1398 20.4783 12.6303 21.0307 14.165 20.9935C15.6996 20.9563 17.1616 20.3323 18.2501 19.25C19.3297 18.1588 19.9501 16.6954 19.9835 15.1608C20.017 13.6262 19.4611 12.1371 18.4301 11C19.4611 9.86277 20.017 8.3737 19.9835 6.8391C19.9501 5.3045 19.3297 3.84109 18.2501 2.74996L18.2901 2.76996ZM16.8301 4.16996C17.5255 4.88534 17.9285 5.8348 17.96 6.832C17.9914 7.82921 17.6491 8.80217 17.0001 9.55996L11.4401 3.99996C12.2045 3.36569 13.1745 3.03286 14.1673 3.06418C15.1601 3.09549 16.1072 3.48878 16.8301 4.16996ZM3.17011 17.83C2.47467 17.1146 2.07169 16.1651 2.04024 15.1679C2.00879 14.1707 2.35114 13.1977 3.00011 12.44L8.60011 18.04C7.82721 18.678 6.84652 19.0092 5.84506 18.9705C4.84359 18.9317 3.89141 18.5258 3.17011 17.83ZM16.8301 17.83C16.0708 18.5561 15.0607 18.9614 14.0101 18.9614C12.9595 18.9614 11.9494 18.5561 11.1901 17.83L3.19011 9.82996C2.4451 9.08051 2.02693 8.0667 2.02693 7.00996C2.02693 5.95321 2.4451 4.93941 3.19011 4.18996C3.93956 3.44495 4.95336 3.02679 6.01011 3.02679C7.06685 3.02679 8.08066 3.44495 8.83011 4.18996L16.8301 12.19C17.5751 12.9394 17.9933 13.9532 17.9933 15.01C17.9933 16.0667 17.5751 17.0805 16.8301 17.83ZM11.7701 10.29C11.6764 10.3829 11.602 10.4935 11.5512 10.6154C11.5004 10.7372 11.4743 10.8679 11.4743 11C11.4743 11.132 11.5004 11.2627 11.5512 11.3845C11.602 11.5064 11.6764 11.617 11.7701 11.71C11.9575 11.8962 12.2109 12.0007 12.4751 12.0007C12.7393 12.0007 12.9927 11.8962 13.1801 11.71C13.2738 11.617 13.3482 11.5064 13.399 11.3845C13.4498 11.2627 13.4759 11.132 13.4759 11C13.4759 10.8679 13.4498 10.7372 13.399 10.6154C13.3482 10.4935 13.2738 10.3829 13.1801 10.29C12.9927 10.1037 12.7393 9.99916 12.4751 9.99916C12.2109 9.99916 11.9575 10.1037 11.7701 10.29ZM9.29011 7.81996C9.10386 8.00732 8.99931 8.26077 8.99931 8.52496C8.99931 8.78914 9.10386 9.04259 9.29011 9.22996C9.38307 9.32368 9.49367 9.39808 9.61553 9.44885C9.73739 9.49962 9.86809 9.52575 10.0001 9.52575C10.1321 9.52575 10.2628 9.49962 10.3847 9.44885C10.5065 9.39808 10.6171 9.32368 10.7101 9.22996C10.8964 9.04259 11.0009 8.78914 11.0009 8.52496C11.0009 8.26077 10.8964 8.00732 10.7101 7.81996C10.6171 7.72623 10.5065 7.65183 10.3847 7.60106C10.2628 7.5503 10.1321 7.52416 10.0001 7.52416C9.86809 7.52416 9.73739 7.5503 9.61553 7.60106C9.49367 7.65183 9.38307 7.72623 9.29011 7.81996Z" fill="white"/>
</svg>
