<svg width="14" height="14" viewBox="0 0 14 14" fill="none" xmlns="http://www.w3.org/2000/svg">
<g clip-path="url(#clip0)">
<path d="M10.2097 0.666504H8.70581V1.59674H9.74457V3.67426C9.74457 5.23876 8.47169 6.51148 6.90736 6.51148H6.6903C5.1258 6.51148 3.85309 5.2386 3.85309 3.67426V1.59674H4.89185V0.666504H3.38797C3.13107 0.666504 2.92285 0.874727 2.92285 1.13162V3.67426C2.92285 5.75162 4.61294 7.44171 6.6903 7.44171H6.90736C8.98471 7.44171 10.6748 5.75162 10.6748 3.67426V1.13162C10.6748 0.874727 10.4666 0.666504 10.2097 0.666504Z" fill="#BDBDBD"/>
<path d="M8.65945 0C8.40256 0 8.19434 0.208223 8.19434 0.465117V1.76745C8.19434 2.02434 8.40256 2.23256 8.65945 2.23256C8.91635 2.23256 9.12457 2.02434 9.12457 1.76745V0.465117C9.12457 0.208223 8.91635 0 8.65945 0Z" fill="#BDBDBD"/>
<path d="M4.98465 0C4.72775 0 4.51953 0.208223 4.51953 0.465117V1.76745C4.51953 2.02434 4.72775 2.23256 4.98465 2.23256C5.24154 2.23256 5.44976 2.02434 5.44976 1.76745V0.465117C5.44976 0.208223 5.24154 0 4.98465 0Z" fill="#BDBDBD"/>
<path d="M7.29485 9.59709V6.96143H6.36461V9.59709H4.86073C3.64678 9.59709 2.65918 10.5847 2.65918 11.7985C2.65918 13.0124 3.65375 14 4.87624 14H5.09329C6.30725 14 7.29485 13.0124 7.29485 11.7985V10.5273H8.87625V9.59709H7.29485ZM6.36461 11.7983C6.36461 12.4992 5.79422 13.0696 5.09329 13.0696H4.87624C4.15469 13.0696 3.58941 12.5113 3.58941 11.7983C3.58941 11.0974 4.1598 10.5272 4.86073 10.5272H6.36461V11.7983Z" fill="#BDBDBD"/>
<path d="M9.88396 8.60498C9.08055 8.60498 8.42676 9.25863 8.42676 10.0623C8.42676 10.8658 9.08041 11.5196 9.88396 11.5196C10.6875 11.5196 11.3413 10.8658 11.3413 10.0623C11.3413 9.25877 10.6877 8.60498 9.88396 8.60498ZM9.88396 10.5892C9.59341 10.5892 9.35699 10.3527 9.35699 10.0622C9.35699 9.77152 9.59343 9.53508 9.88396 9.53508C10.1747 9.53508 10.4111 9.77152 10.4111 10.0622C10.4111 10.3527 10.1747 10.5892 9.88396 10.5892Z" fill="#BDBDBD"/>
</g>
<defs>
<clipPath id="clip0">
<rect width="14" height="14" fill="white"/>
</clipPath>
</defs>
</svg>
