<svg width="24" height="24" viewBox="0 0 24 24" fill="none" xmlns="http://www.w3.org/2000/svg">
<g clip-path="url(#clip0)">
<path d="M17.5015 1.14307H14.9234V2.73775H16.7041V6.29922C16.7041 8.98123 14.5221 11.163 11.8403 11.163H11.4683C8.78625 11.163 6.60445 8.98094 6.60445 6.29922V2.73775H8.38519V1.14307H5.80711C5.36672 1.14307 5.00977 1.50002 5.00977 1.94041V6.29922C5.00977 9.86041 7.90706 12.7577 11.4683 12.7577H11.8403C15.4015 12.7577 18.2988 9.86041 18.2988 6.29922V1.94041C18.2988 1.50002 17.9419 1.14307 17.5015 1.14307Z" fill="#57CECA"/>
<path d="M14.8437 0C14.4033 0 14.0464 0.356953 14.0464 0.797344V3.02991C14.0464 3.4703 14.4033 3.82725 14.8437 3.82725C15.2841 3.82725 15.6411 3.4703 15.6411 3.02991V0.797344C15.6411 0.356953 15.2841 0 14.8437 0Z" fill="#BCEBEA"/>
<path d="M8.5449 0C8.10451 0 7.74756 0.356953 7.74756 0.797344V3.02991C7.74756 3.4703 8.10451 3.82725 8.5449 3.82725C8.98529 3.82725 9.34224 3.4703 9.34224 3.02991V0.797344C9.34224 0.356953 8.98529 0 8.5449 0Z" fill="#BCEBEA"/>
<path d="M12.505 16.4524V11.9341H10.9103V16.4524H8.3322C6.25114 16.4524 4.55811 18.1454 4.55811 20.2262C4.55811 22.3072 6.26309 24.0003 8.35878 24.0003H8.73087C10.8119 24.0003 12.505 22.3072 12.505 20.2262V18.047H15.2159V16.4524H12.505ZM10.9103 20.2259C10.9103 21.4275 9.93246 22.4053 8.73087 22.4053H8.35878C7.12184 22.4053 6.15279 21.4482 6.15279 20.2259C6.15279 19.0243 7.13061 18.0468 8.3322 18.0468H10.9103V20.2259Z" fill="#57CECA"/>
<path d="M16.9434 14.751C15.5661 14.751 14.4453 15.8715 14.4453 17.2493C14.4453 18.6266 15.5659 19.7474 16.9434 19.7474C18.3209 19.7474 19.4417 18.6266 19.4417 17.2493C19.4417 15.8718 18.3212 14.751 16.9434 14.751ZM16.9434 18.1525C16.4453 18.1525 16.04 17.7471 16.04 17.2491C16.04 16.7508 16.4453 16.3454 16.9434 16.3454C17.4417 16.3454 17.847 16.7508 17.847 17.2491C17.847 17.7471 17.4417 18.1525 16.9434 18.1525Z" fill="#BCEBEA"/>
</g>
<defs>
<clipPath id="clip0">
<rect width="24" height="24" fill="white"/>
</clipPath>
</defs>
</svg>
