<svg width="14" height="14" viewBox="0 0 14 14" fill="none" xmlns="http://www.w3.org/2000/svg">
<g id="Iconly/Bulk/Ticket Star">
<g id="Ticket Star">
<path id="Fill 1" opacity="0.4" d="M12.3959 7.86122C11.917 7.86122 11.5273 7.47512 11.5273 7.00058C11.5273 6.52546 11.917 6.13935 12.3959 6.13935C12.512 6.13935 12.6234 6.09369 12.7051 6.01277C12.7873 5.93127 12.8334 5.82087 12.8334 5.70585L12.8328 4.14409C12.8328 2.82393 11.7484 1.75 10.4161 1.75H3.58408C2.25175 1.75 1.16733 2.82393 1.16733 4.14409L1.16675 5.75614C1.16675 5.87116 1.21283 5.98156 1.29508 6.06306C1.37675 6.14398 1.48816 6.18964 1.60425 6.18964C2.0995 6.18964 2.47283 6.53818 2.47283 7.00058C2.47283 7.47512 2.08316 7.86122 1.60425 7.86122C1.36275 7.86122 1.16675 8.05543 1.16675 8.29473V9.85533C1.16675 11.1755 2.25058 12.25 3.5835 12.25H10.4167C11.7496 12.25 12.8334 11.1755 12.8334 9.85533V8.29473C12.8334 8.05543 12.6374 7.86122 12.3959 7.86122Z" fill="#058479"/>
<path id="Fill 4" d="M9.00123 6.75954L8.31348 7.4292L8.47623 8.37595C8.50423 8.53987 8.43832 8.70145 8.30357 8.79829C8.16998 8.89629 7.99557 8.90854 7.84857 8.83037L6.99982 8.38412L6.14932 8.83095C6.08632 8.8642 6.01748 8.8817 5.94923 8.8817C5.85998 8.8817 5.7719 8.8537 5.69607 8.79887C5.5619 8.70145 5.49598 8.53987 5.52398 8.37595L5.68615 7.4292L4.9984 6.75954C4.8794 6.64404 4.83798 6.47429 4.88932 6.3162C4.94123 6.1587 5.0754 6.0467 5.23932 6.02337L6.18782 5.88512L6.61307 5.02354C6.68715 4.87537 6.83532 4.7832 6.99982 4.7832H7.00098C7.16607 4.78379 7.31423 4.87595 7.38715 5.02412L7.8124 5.88512L8.76265 6.02395C8.92482 6.0467 9.05898 6.1587 9.11032 6.3162C9.16223 6.47429 9.12082 6.64404 9.00123 6.75954Z" fill="#058479"/>
</g>
</g>
</svg>
