<svg width="14" height="14" viewBox="0 0 14 14" fill="none" xmlns="http://www.w3.org/2000/svg">
<path fill-rule="evenodd" clip-rule="evenodd" d="M4.33333 0C4.70153 0 5 0.29848 5 0.666667V1H9V0.666667C9 0.29848 9.29847 0 9.66667 0C10.0349 0 10.3333 0.29848 10.3333 0.666667V1H12.6667C13.4031 1 14 1.59696 14 2.33333V12.6667C14 13.4031 13.4031 14 12.6667 14H1.33333C0.596933 14 0 13.4031 0 12.6667V2.33333C0 1.59695 0.596933 1 1.33333 1H3.66667V0.666667C3.66667 0.29848 3.96513 0 4.33333 0ZM3.66667 2.33333H1.33333V5H12.6667V2.33333H10.3333V3.33333C10.3333 3.70152 10.0349 4 9.66667 4C9.29847 4 9 3.70152 9 3.33333V2.33333H5V3.33333C5 3.70152 4.70153 4 4.33333 4C3.96513 4 3.66667 3.70152 3.66667 3.33333V2.33333ZM12.6667 6.33333H1.33333V12.6667H12.6667V6.33333ZM3 8C3 7.6318 3.29847 7.33333 3.66667 7.33333H5.66667C6.03487 7.33333 6.33333 7.6318 6.33333 8C6.33333 8.3682 6.03487 8.66667 5.66667 8.66667H3.66667C3.29847 8.66667 3 8.3682 3 8ZM7.66667 8C7.66667 7.6318 7.96513 7.33333 8.33333 7.33333H10.3333C10.7015 7.33333 11 7.6318 11 8C11 8.3682 10.7015 8.66667 10.3333 8.66667H8.33333C7.96513 8.66667 7.66667 8.3682 7.66667 8ZM3 10.6667C3 10.2985 3.29847 10 3.66667 10H5.66667C6.03487 10 6.33333 10.2985 6.33333 10.6667C6.33333 11.0349 6.03487 11.3333 5.66667 11.3333H3.66667C3.29847 11.3333 3 11.0349 3 10.6667ZM7.66667 10.6667C7.66667 10.2985 7.96513 10 8.33333 10H10.3333C10.7015 10 11 10.2985 11 10.6667C11 11.0349 10.7015 11.3333 10.3333 11.3333H8.33333C7.96513 11.3333 7.66667 11.0349 7.66667 10.6667Z" fill="#BDBDBD"/>
</svg>
