<svg width="32" height="32" viewBox="0 0 32 32" fill="none" xmlns="http://www.w3.org/2000/svg">
<path opacity="0.4" d="M28.4409 9.9235C27.8822 9.57156 27.1956 9.54042 26.6102 9.83822L24.6342 10.8359C23.9035 11.204 23.4502 11.9485 23.4502 12.777V20.555C23.4502 21.3834 23.9035 22.1265 24.6342 22.4974L26.6089 23.4937C26.8769 23.6318 27.1636 23.6981 27.4502 23.6981C27.7942 23.6981 28.1356 23.6007 28.4409 23.4098C28.9996 23.0592 29.3329 22.4514 29.3329 21.7854V11.5492C29.3329 10.8832 28.9996 10.2754 28.4409 9.9235Z" fill="#57CECA"/>
<path d="M15.8733 26.6667H8.15056C4.92119 26.6667 2.6665 24.44 2.6665 21.2522V12.0813C2.6665 8.89213 4.92119 6.66675 8.15056 6.66675H15.8733C19.1027 6.66675 21.3574 8.89213 21.3574 12.0813V21.2522C21.3574 24.44 19.1027 26.6667 15.8733 26.6667Z" fill="#57CECA"/>
</svg>
