<svg width="18" height="18" viewBox="0 0 18 18" fill="none" xmlns="http://www.w3.org/2000/svg">
<g id="Iconly/Bulk/Video">
<g id="Video">
<path id="Fill 1" opacity="0.4" d="M15.9982 5.58206C15.6839 5.38409 15.2977 5.36658 14.9684 5.53409L13.8569 6.09526C13.4459 6.30237 13.1909 6.72115 13.1909 7.18714V11.5623C13.1909 12.0283 13.4459 12.4463 13.8569 12.6549L14.9677 13.2153C15.1184 13.293 15.2797 13.3303 15.4409 13.3303C15.6344 13.3303 15.8264 13.2755 15.9982 13.1681C16.3124 12.9709 16.5 12.629 16.5 12.2544V6.49653C16.5 6.12191 16.3124 5.78003 15.9982 5.58206Z" fill="white"/>
<path id="Fill 3" d="M8.92882 15H4.58478C2.76826 15 1.5 13.7475 1.5 11.9543V6.79569C1.5 5.00178 2.76826 3.75 4.58478 3.75H8.92882C10.7453 3.75 12.0136 5.00178 12.0136 6.79569V11.9543C12.0136 13.7475 10.7453 15 8.92882 15Z" fill="white"/>
</g>
</g>
</svg>
