<svg width="32" height="32" viewBox="0 0 32 32" fill="none" xmlns="http://www.w3.org/2000/svg">
<path d="M17.1576 7.12963C18.0218 7.12963 18.7224 6.42904 18.7224 5.56481C18.7224 4.70059 18.0218 4 17.1576 4C16.2934 4 15.5928 4.70059 15.5928 5.56481C15.5928 6.42904 16.2934 7.12963 17.1576 7.12963Z" stroke="#57CECA" stroke-width="1.5" stroke-linecap="round" stroke-linejoin="round"/>
<path d="M20.2872 29.0372L18.8976 24.8684C18.7824 24.5227 18.5882 24.2086 18.3306 23.9509L14.0279 19.6483M14.0279 19.6483L15.5928 11.8242M14.0279 19.6483L9.3335 29.0372M15.5928 11.8242L20.0179 16.2493C20.1963 16.4277 20.4022 16.5762 20.6279 16.689L23.4168 18.0835M15.5928 11.8242L11.5684 14.5071C11.1341 14.7967 10.8087 15.2227 10.6436 15.7179L9.3335 19.6483" stroke="#57CECA" stroke-width="1.5" stroke-linecap="round" stroke-linejoin="round"/>
</svg>
