<svg width="24" height="24" viewBox="0 0 24 24" fill="none" xmlns="http://www.w3.org/2000/svg">
<path d="M6.76902 10.1661C8.26564 8.36559 9.99549 7.52686 12 7.52686C14.0045 7.52686 15.7344 8.36559 17.231 10.1661C17.584 10.5908 18.2145 10.6489 18.6392 10.2959C19.0639 9.94284 19.1221 9.31235 18.769 8.88763C16.9407 6.68812 14.6706 5.52686 12 5.52686C9.32941 5.52686 7.05926 6.68812 5.23098 8.88763C4.87795 9.31235 4.93606 9.94284 5.36077 10.2959C5.78549 10.6489 6.41598 10.5908 6.76902 10.1661Z" fill="#B09086" fill-opacity="0.65"/>
<path d="M12 15.5C12.8285 15.5 13.5 14.8285 13.5 14C13.5 13.228 12.9169 12.5923 12.1671 12.5092L10.3133 9.91812C9.99192 9.46896 9.36728 9.36536 8.91812 9.68672C8.46896 10.0081 8.36536 10.6327 8.68672 11.0819L10.5369 13.6678C10.5127 13.7747 10.5 13.8859 10.5 14C10.5 14.8285 11.1715 15.5 12 15.5Z" fill="#B09086" fill-opacity="0.65"/>
<path fill-rule="evenodd" clip-rule="evenodd" d="M3.5 1C2.11929 1 1 2.11929 1 3.5V20.5C1 21.8807 2.1193 23 3.5 23H20.5C21.8807 23 23 21.8807 23 20.5V3.5C23 2.1193 21.8807 1 20.5 1H3.5ZM3 3.5C3 3.22386 3.22386 3 3.5 3H20.5C20.7762 3 21 3.22385 21 3.5V20.5C21 20.7762 20.7762 21 20.5 21H3.5C3.22385 21 3 20.7762 3 20.5V3.5Z" fill="#B09086" fill-opacity="0.65"/>
</svg>
