<svg width="28" height="40" viewBox="0 0 28 40" fill="none" xmlns="http://www.w3.org/2000/svg">
<path fill-rule="evenodd" clip-rule="evenodd" d="M18.7542 12.8879C20.1353 11.6093 21 9.78061 21 7.75C21 3.884 17.8659 0.75 14 0.75C10.134 0.75 7 3.884 7 7.75C7 9.78061 7.86464 11.6093 9.24582 12.8879L0.209176 29.6703C-0.0828468 30.2127 -0.0682523 30.8686 0.247588 31.3974C0.563445 31.9263 1.13405 32.25 1.75 32.25H8.75V37.5C8.75 38.4665 9.53351 39.25 10.5 39.25C11.4665 39.25 12.25 38.4665 12.25 37.5V30.5C12.25 29.5335 11.4665 28.75 10.5 28.75H4.67988L12.2183 14.75H15.7817L23.3201 28.75H17.5C16.5335 28.75 15.75 29.5335 15.75 30.5V37.5C15.75 38.4665 16.5335 39.25 17.5 39.25C18.4665 39.25 19.25 38.4665 19.25 37.5V32.25H26.25C26.866 32.25 27.4365 31.9263 27.7524 31.3974C28.0682 30.8686 28.0828 30.2127 27.7909 29.6703L18.7542 12.8879ZM10.5 7.75C10.5 5.817 12.0669 4.25 14 4.25C15.933 4.25 17.5 5.817 17.5 7.75C17.5 9.683 15.933 11.25 14 11.25C12.0669 11.25 10.5 9.683 10.5 7.75Z" fill="#57CFC9"/>
</svg>
