<svg width="24" height="24" viewBox="0 0 24 24" fill="none" xmlns="http://www.w3.org/2000/svg">
<g id="Iconly/Two-tone/2 User">
<g id="2 User">
<path id="Stroke 1" fill-rule="evenodd" clip-rule="evenodd" d="M9.59151 15.207C13.2805 15.207 16.4335 15.766 16.4335 17.999C16.4335 20.232 13.3015 20.807 9.59151 20.807C5.90151 20.807 2.74951 20.253 2.74951 18.019C2.74951 15.785 5.88051 15.207 9.59151 15.207Z" stroke="#FAD427" stroke-width="1.5" stroke-linecap="round" stroke-linejoin="round"/>
<path id="Stroke 3" opacity="0.4" fill-rule="evenodd" clip-rule="evenodd" d="M9.59157 12.02C7.16957 12.02 5.20557 10.057 5.20557 7.635C5.20557 5.213 7.16957 3.25 9.59157 3.25C12.0126 3.25 13.9766 5.213 13.9766 7.635C13.9856 10.048 12.0356 12.011 9.62257 12.02H9.59157Z" stroke="#FAD427" stroke-width="1.5" stroke-linecap="round" stroke-linejoin="round"/>
<path id="Stroke 5" opacity="0.4" d="M16.4829 10.8823C18.0839 10.6573 19.3169 9.28326 19.3199 7.62026C19.3199 5.98126 18.1249 4.62126 16.5579 4.36426" stroke="#FAD427" stroke-width="1.5" stroke-linecap="round" stroke-linejoin="round"/>
<path id="Stroke 7" d="M18.5952 14.7324C20.1462 14.9634 21.2292 15.5074 21.2292 16.6274C21.2292 17.3984 20.7192 17.8984 19.8952 18.2114" stroke="#FAD427" stroke-width="1.5" stroke-linecap="round" stroke-linejoin="round"/>
</g>
</g>
</svg>
