<svg height="512" viewBox="0 0 128 128" width="512" xmlns="http://www.w3.org/2000/svg"><g><path d="m122.846 32.262a1.746 1.746 0 0 0 -1.273-.63c-2.728-.114-9.249-2.038-16.154-4.076-7.945-2.345-16.951-5-22.5-5.547-6.46-.646-9.134 4.162-11.284 8.013-.454.815-.9 1.61-1.364 2.344l.333-10.715a9.75 9.75 0 1 0 -13.21 0l.333 10.715c-.464-.734-.91-1.529-1.364-2.344-2.15-3.852-4.822-8.642-11.285-8.013-5.538.544-14.53 3.2-22.462 5.535-6.916 2.041-13.455 3.969-16.186 4.077a1.751 1.751 0 0 0 -1.662 2c.871 6.143 8.068 7.945 10.746 8.405 2.013 3.388 7 5.259 11.3 5.268 2.564 3.787 8.669 3.746 11.186 3.553 2.462 3.071 6.661 4.307 11.035 4.307a26.015 26.015 0 0 0 9.35-1.784l.715 23.094c-9.607-3.506-13.143-7.564-13.229-10.011a2.5 2.5 0 0 1 .475-1.539 4.542 4.542 0 0 0 1.877 1.786 5.838 5.838 0 0 0 2.7.637 6.433 6.433 0 0 0 1.143-.1c2.959-.526 5.006-2.987 4.562-5.485a4.317 4.317 0 0 0 -2.334-3.04 6.269 6.269 0 0 0 -7.262 1.288c-.047.052-.086.107-.131.16-2.967 1.445-4.621 3.756-4.527 6.419.173 4.929 6 9.8 16 13.353.288.1.562.2.842.308l.015.462c-3.921 2.242-6.256 4.615-7.172 7.245-.893 2.562-.416 5.265 1.456 8.262 1.174 1.882 3.561 3.363 6.347 4.785v.183c-4.89 2.582-9.075 5.738-7.726 10.734a11.678 11.678 0 0 0 8.324 8.482l.036 1.165a1.75 1.75 0 0 0 1.749 1.695h3.5a1.75 1.75 0 0 0 1.749-1.695l.036-1.165a11.678 11.678 0 0 0 8.324-8.484c1.349-5-2.835-8.15-7.726-10.732l.005-.183c2.786-1.422 5.173-2.9 6.346-4.783 1.873-3 2.35-5.7 1.457-8.264-.916-2.63-3.251-5-7.172-7.245l.015-.461c.28-.1.554-.207.843-.309 10-3.557 15.826-8.424 16-13.353.094-2.663-1.56-4.974-4.527-6.419-.045-.053-.084-.108-.131-.16a6.269 6.269 0 0 0 -7.258-1.289 4.317 4.317 0 0 0 -2.334 3.04c-.444 2.5 1.6 4.959 4.563 5.485a6.422 6.422 0 0 0 1.142.1 5.841 5.841 0 0 0 2.7-.637 4.542 4.542 0 0 0 1.877-1.784 2.5 2.5 0 0 1 .475 1.539c-.086 2.443-3.622 6.5-13.228 10.011l.718-23.094a25.968 25.968 0 0 0 9.35 1.784c4.374 0 8.573-1.236 11.035-4.307 2.509.192 8.618.233 11.182-3.558 4.295-.009 9.288-1.88 11.3-5.268 2.676-.46 9.865-2.26 10.746-8.392a1.748 1.748 0 0 0 -.386-1.368zm-71.782 29.356a3.094 3.094 0 0 1 .529-.047 2.346 2.346 0 0 1 1.079.241c.135.07.455.265.506.549.078.443-.556 1.218-1.729 1.427a2.6 2.6 0 0 1 -1.609-.188c-.135-.072-.455-.266-.506-.55a.93.93 0 0 1 .286-.69 2.582 2.582 0 0 1 1.444-.742zm27.6 1.427c-.051.284-.371.478-.506.55a2.6 2.6 0 0 1 -1.608.193c-1.174-.209-1.808-.984-1.73-1.427.051-.284.371-.479.506-.549a2.342 2.342 0 0 1 1.078-.241 3.117 3.117 0 0 1 .531.047 2.582 2.582 0 0 1 1.443.736.93.93 0 0 1 .286.69zm-14.664-54.795a6.25 6.25 0 1 1 -6.25 6.25 6.257 6.257 0 0 1 6.25-6.25zm0 16a9.7 9.7 0 0 0 3.038-.491l-.4 13.013-1.28 41.028c-.466.187-.917.375-1.358.563-.441-.188-.892-.376-1.358-.563l-1.276-41.025-.4-13.013a9.7 9.7 0 0 0 3.034.488zm.072 93.122c-.032 0-.063 0-.1 0-.014 0-.027 0-.04 0h-.065l-.437-14.08c.187-.093.373-.186.565-.28.192.094.378.187.565.28l-.437 14.079zm-.072-18.246-.706-.341-.5-16.02q.581-.288 1.2-.575.624.287 1.2.575l-.5 16.02zm-23.682-51.047a1.752 1.752 0 0 0 -1.744-.81c-1.986.294-7.921.474-9.127-2.439a1.752 1.752 0 0 0 -1.758-1.074c-3.573.3-8.356-1.35-9.391-3.978a1.747 1.747 0 0 0 -1.456-1.1c-.068-.007-5.93-.683-7.966-3.843 3.5-.624 8.8-2.185 14.731-3.935 7.784-2.3 16.606-4.9 21.813-5.41 3.973-.387 5.588 2.117 7.887 6.237 1.261 2.259 2.563 4.583 4.591 6.11l.366 11.76c-5.586 2.713-14.971 3.293-17.946-1.518zm16.166 46.274c-1.293-2.07-1.649-3.74-1.12-5.257.508-1.459 1.851-2.915 3.992-4.357l.38 12.211a9.475 9.475 0 0 1 -3.252-2.597zm-.964 16.641c-.6-2.2 1.251-4 4.47-5.88l.359 11.541a8.1 8.1 0 0 1 -4.829-5.661zm16.961 0a8.087 8.087 0 0 1 -4.829 5.654l.358-11.532c3.219 1.873 5.066 3.674 4.471 5.876zm.155-21.9c.529 1.517.173 3.187-1.121 5.258a9.448 9.448 0 0 1 -3.251 2.6l.38-12.211c2.141 1.441 3.484 2.896 3.992 4.359zm38.522-50.417a1.747 1.747 0 0 0 -1.456 1.1c-1.035 2.628-5.807 4.276-9.391 3.978a1.751 1.751 0 0 0 -1.758 1.074c-1.2 2.9-7.144 2.726-9.127 2.439a1.75 1.75 0 0 0 -1.744.81c-2.975 4.81-12.36 4.23-17.946 1.519l.366-11.76c2.028-1.527 3.33-3.851 4.591-6.11 2.3-4.121 3.909-6.626 7.886-6.237 5.216.514 14.053 3.121 21.85 5.422 5.923 1.748 11.2 3.306 14.7 3.931-2.038 3.188-7.905 3.829-7.971 3.836z"/><path d="m93.932 30.493c-2.446-.668-4.5-1.187-6.3-1.59a1.75 1.75 0 0 0 -.765 3.416c1.737.39 3.745.9 6.138 1.551a1.75 1.75 0 0 0 .923-3.377z"/></g></svg>