<svg width="94" height="93" viewBox="0 0 94 93" fill="none" xmlns="http://www.w3.org/2000/svg">
<path fill-rule="evenodd" clip-rule="evenodd" d="M92.1978 37.3486C92.8765 40.7144 93.1809 44.1083 93.1161 47.4877L89.1169 47.4111C89.1669 44.8005 88.9758 42.1798 88.5406 39.5715L88.2528 38.144C83.6083 15.1103 61.1738 0.204302 38.1409 4.8484C32.1344 6.05927 26.5617 8.51497 21.6784 12.0385L19.3378 8.79475C24.6803 4.93993 30.7807 2.2517 37.3504 0.927292C61.893 -4.0212 85.8147 11.3198 91.7379 35.4041L92.1978 37.3486ZM15.9397 39.5722L12.0405 38.6802C15.1241 25.2008 25.7746 14.6121 39.5496 11.8345C43.6715 11.0034 47.8717 10.9394 52.0417 11.5953L51.4201 15.5467C47.7109 14.9632 43.9884 15.02 40.3402 15.7556C28.1224 18.2192 18.6761 27.6107 15.9397 39.5722ZM57.8155 17.2542C67.7867 21.1003 75.1996 29.6988 77.3456 40.3423L77.5391 41.3021C79.8378 53.4368 79.3563 65.7118 76.2368 77.4147L80.1018 78.445C83.4611 65.8428 83.9048 52.6058 81.2726 39.5525L80.9544 38.1491C78.1863 26.7988 70.046 17.6845 59.255 13.5222L57.8155 17.2542ZM71.7884 58.7478L67.7902 58.6278C67.952 53.2383 67.506 47.8566 66.4348 42.544L66.3579 42.163C63.9763 31.3942 53.3973 24.4738 42.5398 26.6628C31.8993 28.8083 24.8955 38.9153 26.4805 49.5307L26.6874 50.5569C28.8978 61.5185 24.8113 72.6302 16.3127 79.5922L13.7779 76.4979C20.8427 70.7105 24.3868 61.6193 22.973 52.5063L22.7404 51.3528C20.0884 38.2026 28.599 25.3933 41.7492 22.7417C54.899 20.0905 67.7076 28.6008 70.359 41.7509L70.6086 42.9887C71.5541 48.2079 71.9466 53.4756 71.7884 58.7478ZM37.6495 48.6164C37.6329 48.5079 37.6225 48.4454 37.6055 48.3601L37.441 47.5347C36.932 42.8751 40.0551 38.5144 44.739 37.57C49.5364 36.6027 54.2134 39.5739 55.4198 44.2578L55.518 44.7448C58.7245 60.6464 55.3061 76.8173 46.3223 89.9464L49.6235 92.2053C58.8983 78.6507 62.617 62.0476 59.7845 45.6014L59.4514 43.9493C58.0147 36.8237 51.074 32.2122 43.9484 33.6489C36.8226 35.0856 32.2112 42.0266 33.6484 49.1524L34.032 51.0547L35.9802 50.7226L35.7015 49.0877C35.7015 49.0877 37.6611 48.6916 37.6495 48.6164ZM48.5214 46.1553L44.6004 46.9459C47.61 61.8722 43.4107 77.045 33.5468 88.2718L36.5518 90.9119C47.2311 78.7571 51.7806 62.3189 48.5214 46.1553ZM34.409 56.1076L38.4088 56.0649C38.532 67.5957 33.7589 78.615 25.3949 86.4407L22.6621 83.5198C30.2119 76.4559 34.5202 66.5096 34.409 56.1076ZM71.2282 65.9481L67.2608 65.438C66.2844 73.0337 64.0734 80.3996 60.7325 87.2575L64.3285 89.0094C67.8593 81.7617 70.1961 73.9765 71.2282 65.9481ZM11.1434 46.0862C11.1126 48.608 11.3378 51.1007 11.8319 53.5525L11.9751 54.263C12.7455 59.3519 10.8067 64.4248 6.9168 67.7207L9.5026 70.7726C14.6751 66.3899 17.1346 59.526 15.7703 52.7586L15.5659 51.745C15.2588 49.9013 15.12 48.0299 15.1431 46.1351L11.1434 46.0862ZM1.39338 57.7332L2.20302 57.5329L3.29084 57.2639L5.27641 56.7729C5.12833 56.1741 4.99261 55.569 4.86895 54.9565L4.58355 53.5427C2.29462 39.8351 6.8354 26.0651 16.5598 16.381L13.7372 13.5467C2.73591 24.5024 -2.20202 40.2507 0.923964 55.7524L1.31869 57.7098C1.31869 57.7098 1.39038 57.721 1.39338 57.7332Z" fill="#BFBFBF"/>
<mask id="mask0" mask-type="alpha" maskUnits="userSpaceOnUse" x="0" y="0" width="94" height="93">
<path fill-rule="evenodd" clip-rule="evenodd" d="M92.1978 37.3486C92.8765 40.7144 93.1809 44.1083 93.1161 47.4877L89.1169 47.4111C89.1669 44.8005 88.9758 42.1798 88.5406 39.5715L88.2528 38.144C83.6083 15.1103 61.1738 0.204302 38.1409 4.8484C32.1344 6.05927 26.5617 8.51497 21.6784 12.0385L19.3378 8.79475C24.6803 4.93993 30.7807 2.2517 37.3504 0.927292C61.893 -4.0212 85.8147 11.3198 91.7379 35.4041L92.1978 37.3486ZM15.9397 39.5722L12.0405 38.6802C15.1241 25.2008 25.7746 14.6121 39.5496 11.8345C43.6715 11.0034 47.8717 10.9394 52.0417 11.5953L51.4201 15.5467C47.7109 14.9632 43.9884 15.02 40.3402 15.7556C28.1224 18.2192 18.6761 27.6107 15.9397 39.5722ZM57.8155 17.2542C67.7867 21.1003 75.1996 29.6988 77.3456 40.3423L77.5391 41.3021C79.8378 53.4368 79.3563 65.7118 76.2368 77.4147L80.1018 78.445C83.4611 65.8428 83.9048 52.6058 81.2726 39.5525L80.9544 38.1491C78.1863 26.7988 70.046 17.6845 59.255 13.5222L57.8155 17.2542ZM71.7884 58.7478L67.7902 58.6278C67.952 53.2383 67.506 47.8566 66.4348 42.544L66.3579 42.163C63.9763 31.3942 53.3973 24.4738 42.5398 26.6628C31.8993 28.8083 24.8955 38.9153 26.4805 49.5307L26.6874 50.5569C28.8978 61.5185 24.8113 72.6302 16.3127 79.5922L13.7779 76.4979C20.8427 70.7105 24.3868 61.6193 22.973 52.5063L22.7404 51.3528C20.0884 38.2026 28.599 25.3933 41.7492 22.7417C54.899 20.0905 67.7076 28.6008 70.359 41.7509L70.6086 42.9887C71.5541 48.2079 71.9466 53.4756 71.7884 58.7478ZM37.6495 48.6164C37.6329 48.5079 37.6225 48.4454 37.6055 48.3601L37.441 47.5347C36.932 42.8751 40.0551 38.5144 44.739 37.57C49.5364 36.6027 54.2134 39.5739 55.4198 44.2578L55.518 44.7448C58.7245 60.6464 55.3061 76.8173 46.3223 89.9464L49.6235 92.2053C58.8983 78.6507 62.617 62.0476 59.7845 45.6014L59.4514 43.9493C58.0147 36.8237 51.074 32.2122 43.9484 33.6489C36.8226 35.0856 32.2112 42.0266 33.6484 49.1524L34.032 51.0547L35.9802 50.7226L35.7015 49.0877C35.7015 49.0877 37.6611 48.6916 37.6495 48.6164ZM48.5214 46.1553L44.6004 46.9459C47.61 61.8722 43.4107 77.045 33.5468 88.2718L36.5518 90.9119C47.2311 78.7571 51.7806 62.3189 48.5214 46.1553ZM34.409 56.1076L38.4088 56.0649C38.532 67.5957 33.7589 78.615 25.3949 86.4407L22.6621 83.5198C30.2119 76.4559 34.5202 66.5096 34.409 56.1076ZM71.2282 65.9481L67.2608 65.438C66.2844 73.0337 64.0734 80.3996 60.7325 87.2575L64.3285 89.0094C67.8593 81.7617 70.1961 73.9765 71.2282 65.9481ZM11.1434 46.0862C11.1126 48.608 11.3378 51.1007 11.8319 53.5525L11.9751 54.263C12.7455 59.3519 10.8067 64.4248 6.9168 67.7207L9.5026 70.7726C14.6751 66.3899 17.1346 59.526 15.7703 52.7586L15.5659 51.745C15.2588 49.9013 15.12 48.0299 15.1431 46.1351L11.1434 46.0862ZM1.39338 57.7332L2.20302 57.5329L3.29084 57.2639L5.27641 56.7729C5.12833 56.1741 4.99261 55.569 4.86895 54.9565L4.58355 53.5427C2.29462 39.8351 6.8354 26.0651 16.5598 16.381L13.7372 13.5467C2.73591 24.5024 -2.20202 40.2507 0.923964 55.7524L1.31869 57.7098C1.31869 57.7098 1.39038 57.721 1.39338 57.7332Z" fill="white"/>
</mask>
<g mask="url(#mask0)">
</g>
</svg>
